{"glyphs":{"0":{"ha":848,"x_min":90,"x_max":758,"o":"m 427 95 q 540 120 504 95 q 574 148 559 134 q 622 373 622 196 l 622 564 q 612 734 622 684 q 439 886 585 886 q 269 808 313 886 q 234 701 241 761 q 227 553 227 641 l 227 420 q 247 214 227 275 q 427 95 288 95 m 598 19 q 583 12 598 19 q 524 -5 567 4 q 421 -15 481 -15 q 308 0 361 -15 q 158 98 204 29 q 101 248 113 167 q 90 431 90 330 l 90 536 q 100 728 90 678 q 153 873 123 831 q 412 996 238 996 q 692 876 620 996 q 747 720 736 803 q 758 527 758 636 l 758 441 q 748 254 758 304 q 725 168 737 203 q 697 108 713 133 q 655 59 680 83 q 598 19 630 34 z "},"1":{"ha":848,"x_min":140,"x_max":788,"o":"m 140 0 l 140 105 l 412 105 l 412 866 l 158 839 l 146 947 l 437 981 l 548 981 l 548 105 l 788 105 l 788 0 l 140 0 z "},"2":{"ha":848,"x_min":111,"x_max":743,"o":"m 157 0 l 144 107 l 475 467 q 577 588 565 565 q 602 637 590 610 q 614 717 614 665 q 574 848 614 810 q 444 886 535 886 q 352 878 387 886 q 292 850 317 871 q 248 694 248 812 l 111 694 q 433 996 111 996 q 665 917 588 996 q 743 727 743 839 q 702 552 743 615 q 619 445 662 489 q 571 394 576 400 l 299 106 l 737 106 l 737 0 l 157 0 z "},"3":{"ha":848,"x_min":141,"x_max":764,"o":"m 616 738 q 463 886 616 886 q 351 871 382 886 q 307 835 320 856 q 278 695 278 790 l 148 695 q 190 885 148 819 q 299 973 232 950 q 458 996 367 996 q 667 932 590 996 q 744 740 744 869 q 707 588 744 641 q 587 521 670 534 q 720 446 675 503 q 764 260 764 389 q 685 58 764 131 q 460 -15 606 -15 q 285 14 350 -15 q 186 109 220 43 q 141 292 153 175 l 271 292 q 323 132 279 172 q 381 103 348 111 q 468 95 414 95 q 594 139 554 95 q 634 286 634 183 q 596 423 634 389 q 504 463 559 456 q 398 469 450 469 l 398 570 q 545 587 507 570 q 600 630 583 605 q 616 738 616 656 z "},"4":{"ha":848,"x_min":97,"x_max":788,"o":"m 531 0 l 531 238 l 97 238 l 97 345 l 456 981 l 597 981 l 249 343 l 531 343 l 531 568 l 644 568 l 644 343 l 788 343 l 788 238 l 644 238 l 644 0 l 531 0 z "},"5":{"ha":848,"x_min":117,"x_max":758,"o":"m 275 555 q 454 618 344 618 q 680 535 603 618 q 758 307 758 452 q 667 73 758 161 q 429 -15 576 -15 q 295 0 358 -15 q 197 31 232 14 q 117 73 161 47 l 153 176 q 225 134 195 149 q 423 95 302 95 q 615 212 572 95 q 629 298 629 250 q 583 459 629 401 q 437 517 536 517 q 353 500 390 517 q 259 442 316 484 l 160 483 l 195 981 l 694 981 l 694 869 l 304 869 l 275 555 z "},"6":{"ha":848,"x_min":121,"x_max":768,"o":"m 565 981 l 323 570 q 444 595 380 595 q 684 522 601 595 q 768 286 768 448 q 570 2 768 60 q 439 -15 511 -15 q 206 59 291 -15 q 121 285 121 133 q 216 608 121 437 l 429 981 l 565 981 m 440 485 q 392 485 440 485 q 296 440 344 485 q 248 287 248 396 q 295 137 248 178 q 441 95 342 95 q 591 137 541 95 q 641 293 641 178 q 589 446 641 407 q 440 485 536 485 z "},"7":{"ha":848,"x_min":128,"x_max":726,"o":"m 250 0 l 589 876 l 128 876 l 128 981 l 726 981 l 726 874 l 393 0 l 250 0 z "},"8":{"ha":848,"x_min":90,"x_max":758,"o":"m 758 249 q 668 52 758 118 q 422 -15 578 -15 q 178 52 267 -15 q 90 249 90 118 q 297 524 90 432 q 175 599 212 564 q 123 670 137 634 q 109 762 109 706 q 133 865 109 817 q 202 942 157 914 q 424 996 288 996 q 649 939 559 996 q 739 751 739 883 q 687 612 739 661 q 550 524 635 563 q 758 249 758 432 m 219 252 q 271 131 219 168 q 424 95 323 95 q 577 131 525 95 q 629 248 629 168 q 572 376 629 329 q 424 467 515 423 q 290 388 330 422 q 234 322 250 354 q 219 252 219 291 m 424 574 q 548 643 530 627 q 587 682 566 659 q 607 761 607 705 q 564 851 607 817 q 424 886 522 886 q 283 851 326 886 q 241 751 241 817 q 366 602 241 666 q 424 574 387 592 z "},"9":{"ha":848,"x_min":102,"x_max":750,"o":"m 306 0 l 548 410 q 427 385 491 385 q 186 459 270 385 q 102 694 102 532 q 301 979 102 921 q 432 996 359 996 q 665 922 580 996 q 750 696 750 848 q 654 372 750 544 l 441 0 l 306 0 m 430 496 q 479 496 430 496 q 575 540 527 496 q 623 693 623 585 q 576 844 623 802 q 430 886 529 886 q 280 844 330 886 q 229 688 229 802 q 281 535 229 574 q 430 496 334 496 z "}," ":{"ha":347,"x_min":0,"x_max":0,"o":""},"!":{"ha":521,"x_min":190,"x_max":331,"o":"m 190 0 l 190 140 l 328 140 l 328 0 l 190 0 m 239 252 q 194 981 194 720 l 331 981 q 277 252 331 768 l 239 252 z "},"\"":{"ha":604,"x_min":119,"x_max":484,"o":"m 149 631 l 119 1021 l 258 1021 l 225 631 l 149 631 m 375 631 l 345 1021 l 484 1021 l 451 631 l 375 631 z "},"#":{"ha":871,"x_min":58,"x_max":812,"o":"m 122 0 l 181 322 l 58 322 l 58 403 l 196 403 l 235 617 l 75 617 l 75 698 l 250 698 l 301 981 l 416 981 l 366 698 l 570 698 l 622 981 l 737 981 l 687 698 l 812 698 l 812 617 l 673 617 l 635 403 l 796 403 l 796 322 l 621 322 l 564 0 l 443 0 l 502 322 l 300 322 l 243 0 l 122 0 m 314 403 l 517 403 l 555 617 l 352 617 l 314 403 z "},"$":{"ha":884,"x_min":98,"x_max":789,"o":"m 789 275 q 495 -14 789 -3 l 495 -164 l 420 -164 l 420 -14 q 98 77 237 -4 l 146 181 q 282 123 207 145 q 420 97 358 102 l 420 461 l 307 499 q 197 552 237 522 q 136 626 156 581 q 116 733 116 671 q 132 838 116 794 q 420 995 189 987 l 420 1111 l 495 1111 l 495 995 q 774 927 677 987 l 741 821 q 495 885 631 880 l 495 566 l 596 532 q 707 477 666 507 q 789 275 789 416 m 420 591 l 420 884 q 309 859 350 880 q 250 771 254 831 q 248 737 248 751 q 269 662 248 688 q 349 615 290 635 l 420 591 m 495 437 l 495 96 q 564 106 536 98 q 655 205 637 127 q 663 286 663 241 q 650 355 663 332 q 544 420 627 393 l 495 437 z "},"%":{"ha":1389,"x_min":117,"x_max":1272,"o":"m 319 538 q 415 606 396 538 q 425 705 426 642 l 425 768 q 399 897 425 869 q 332 926 373 926 q 271 918 290 926 q 223 866 233 903 q 214 770 214 829 l 214 705 q 240 571 214 604 q 319 538 266 538 m 524 717 q 477 526 524 592 q 319 460 430 460 q 162 526 208 460 q 117 717 117 592 l 117 753 q 162 942 117 879 q 320 1004 207 1004 q 478 940 433 1004 q 524 753 522 876 l 524 717 m 1067 66 q 1164 133 1145 66 q 1174 233 1175 170 l 1174 296 q 1148 425 1174 396 q 1080 453 1122 453 q 1019 445 1039 453 q 972 393 982 430 q 962 297 962 357 l 962 233 q 988 98 962 131 q 1067 66 1015 66 m 1272 244 q 1225 53 1272 119 q 1068 -13 1179 -13 q 911 53 957 -13 q 865 244 865 119 l 865 280 q 910 469 865 406 q 1069 532 956 532 q 1226 467 1182 532 q 1272 281 1271 403 l 1272 244 m 453 0 l 821 981 l 922 981 l 557 0 l 453 0 z "},"&":{"ha":1017,"x_min":119,"x_max":971,"o":"m 119 296 q 160 464 119 403 q 298 553 201 525 q 233 618 255 592 q 179 774 179 682 q 467 1006 179 1006 q 642 990 590 1006 q 715 953 693 974 q 762 817 762 908 l 762 749 l 650 749 l 650 789 q 613 880 650 858 q 501 903 576 903 q 391 892 426 903 q 332 854 357 882 q 308 776 308 827 q 326 696 308 726 q 392 615 343 666 l 746 278 q 747 309 747 288 l 747 528 l 865 528 l 865 339 q 852 177 865 231 l 971 64 l 901 -13 l 804 77 q 483 -16 723 -16 q 119 296 119 -16 m 256 302 q 309 139 256 193 q 478 85 362 85 q 645 98 594 85 q 721 156 696 111 l 365 490 q 258 351 265 463 q 256 302 256 331 z "},"'":{"ha":608,"x_min":121,"x_max":260,"o":"m 151 631 l 121 1021 l 260 1021 l 227 631 l 151 631 z "},"(":{"ha":521,"x_min":117,"x_max":437,"o":"m 437 -102 q 268 -75 344 -102 q 172 -3 221 -59 q 133 86 148 25 q 117 201 118 148 q 117 298 117 254 l 117 650 q 123 820 117 787 q 138 885 130 853 q 157 935 145 916 q 186 977 170 954 q 227 1014 203 1000 q 294 1045 251 1027 q 437 1063 337 1063 l 437 960 q 283 902 317 960 q 258 851 269 879 q 247 675 247 823 l 247 277 q 258 104 247 132 q 317 24 285 39 q 437 0 368 0 l 437 -102 z "},")":{"ha":521,"x_min":84,"x_max":404,"o":"m 84 -102 l 84 1 q 238 58 203 0 q 263 110 252 81 q 274 286 274 138 l 274 684 q 263 857 274 829 q 204 937 236 922 q 84 961 153 961 l 84 1063 q 253 1036 177 1063 q 349 964 300 1020 q 388 874 373 936 q 404 760 403 813 q 404 663 404 707 l 404 311 q 397 141 404 174 q 383 76 391 108 q 363 26 376 45 q 334 -16 351 7 q 294 -53 317 -39 q 227 -84 270 -66 q 84 -102 184 -102 z "},"*":{"ha":694,"x_min":67,"x_max":627,"o":"m 287 406 l 307 627 l 121 509 l 67 618 l 264 697 l 74 793 l 138 897 l 306 768 l 287 981 l 408 981 l 387 760 l 572 878 l 627 769 l 430 690 l 620 593 l 555 490 l 388 618 l 408 406 l 287 406 z "},"+":{"ha":694,"x_min":110,"x_max":585,"o":"m 296 106 l 296 335 l 110 335 l 110 435 l 296 435 l 296 656 l 399 656 l 399 435 l 585 435 l 585 335 l 399 335 l 399 106 l 296 106 z "},",":{"ha":435,"x_min":130,"x_max":304,"o":"m 188 -229 l 133 -199 q 217 -62 199 -119 q 226 0 227 -31 l 130 0 l 130 158 l 304 158 l 304 34 q 223 -190 304 -83 q 188 -229 205 -213 z "},"-":{"ha":694,"x_min":110,"x_max":585,"o":"m 110 335 l 110 435 l 585 435 l 585 335 l 110 335 z "},".":{"ha":426,"x_min":126,"x_max":300,"o":"m 126 0 l 126 164 l 300 164 l 300 0 l 126 0 z "},"/":{"ha":521,"x_min":43,"x_max":477,"o":"m 353 1021 l 477 1021 l 170 0 l 43 0 l 353 1021 z "},":":{"ha":521,"x_min":174,"x_max":347,"o":"m 174 555 l 174 719 l 347 719 l 347 555 l 174 555 m 174 67 l 174 231 l 347 231 l 347 67 l 174 67 z "},";":{"ha":521,"x_min":168,"x_max":353,"o":"m 237 -87 l 182 -57 q 266 80 248 23 q 275 142 275 111 l 179 142 l 179 300 l 353 300 l 353 176 q 272 -47 353 59 q 237 -87 254 -71 m 168 555 l 168 719 l 342 719 l 342 555 l 168 555 z "},"<":{"ha":848,"x_min":106,"x_max":707,"o":"m 707 0 l 106 319 l 106 456 l 707 776 l 707 638 l 211 389 l 707 142 l 707 0 z "},"=":{"ha":848,"x_min":152,"x_max":696,"o":"m 152 317 l 152 417 l 696 417 l 696 317 l 152 317 m 152 546 l 152 646 l 696 646 l 696 546 l 152 546 z "},">":{"ha":848,"x_min":141,"x_max":742,"o":"m 141 0 l 141 138 l 637 387 l 141 634 l 141 776 l 742 456 l 742 320 l 141 0 z "},"?":{"ha":841,"x_min":121,"x_max":743,"o":"m 316 292 l 502 539 q 593 694 581 645 q 599 748 599 720 q 565 850 599 814 q 436 886 531 886 q 298 849 341 886 q 255 741 255 812 l 255 705 l 121 705 l 121 726 q 195 937 121 878 q 452 996 269 996 q 706 887 635 996 q 743 770 743 830 q 732 672 743 711 q 686 582 720 633 q 566 441 651 531 l 425 292 l 316 292 m 298 0 l 298 140 l 437 140 l 437 0 l 298 0 z "},"@":{"ha":1389,"x_min":245,"x_max":1215,"o":"m 1133 -107 q 962 -155 1069 -134 q 735 -175 855 -175 q 517 -145 616 -175 q 359 -60 418 -115 q 245 225 245 47 l 245 607 q 395 932 245 836 q 720 1006 509 1005 q 904 988 847 1006 q 992 956 961 970 q 1045 921 1023 942 q 1083 882 1067 900 q 1118 813 1099 863 q 1137 659 1137 763 l 1137 325 q 1146 265 1137 279 q 1172 248 1156 252 q 1215 244 1187 244 l 1202 144 l 1175 144 q 1059 193 1090 144 q 1031 255 1042 217 q 930 169 999 206 q 749 132 861 132 q 571 198 638 132 q 505 361 505 263 q 531 463 505 428 q 591 519 557 498 q 839 605 663 562 q 1015 648 1015 648 q 984 813 1015 766 q 890 881 953 860 q 720 903 828 903 q 460 840 546 903 q 374 635 374 777 l 374 202 q 473 -7 374 62 q 749 -75 572 -75 q 945 -56 850 -75 q 1099 -12 1041 -37 l 1133 -107 m 642 366 q 784 233 642 233 q 926 267 852 233 q 1015 354 1000 302 l 1015 559 q 878 522 1006 555 q 709 468 749 489 q 655 424 669 447 q 642 366 642 401 z "},"A":{"ha":968,"x_min":58,"x_max":910,"o":"m 58 0 l 424 981 l 544 981 l 910 0 l 771 0 l 705 191 l 267 191 l 200 0 l 58 0 m 300 288 l 673 288 l 488 825 l 300 288 z "},"B":{"ha":963,"x_min":148,"x_max":876,"o":"m 148 0 l 148 981 l 503 981 q 792 880 731 981 q 829 711 829 819 q 705 524 825 566 q 833 440 789 505 q 876 279 876 375 q 794 66 876 133 q 533 0 712 0 l 148 0 m 285 101 l 523 101 q 690 138 638 101 q 742 294 742 176 q 556 472 742 472 l 285 472 l 285 101 m 285 565 l 536 565 q 658 602 624 565 q 692 701 692 638 q 683 796 692 764 q 649 847 674 828 q 586 872 623 866 q 482 878 548 878 l 285 878 l 285 565 z "},"C":{"ha":987,"x_min":123,"x_max":882,"o":"m 268 30 q 225 52 268 30 q 153 149 182 74 q 123 330 123 224 l 123 637 q 235 930 123 852 q 509 996 329 996 q 770 946 689 996 q 872 789 852 896 q 882 676 882 742 l 752 665 q 735 799 752 764 q 702 848 718 833 q 647 874 685 863 q 528 886 609 886 q 401 875 448 886 q 323 840 355 865 q 260 663 260 791 l 260 309 q 323 138 260 181 q 525 95 387 95 q 701 127 663 95 q 747 222 739 160 q 752 304 752 256 l 882 304 q 839 96 882 156 q 540 -15 760 -15 q 268 30 355 -15 z "},"D":{"ha":1032,"x_min":148,"x_max":909,"o":"m 285 102 l 525 102 q 723 157 673 102 q 772 313 772 212 l 772 659 q 672 853 772 808 q 525 878 615 879 l 285 878 l 285 102 m 148 0 l 148 981 l 537 981 q 888 781 819 981 q 909 650 909 723 l 909 327 q 816 83 909 166 q 538 0 724 0 l 148 0 z "},"E":{"ha":851,"x_min":148,"x_max":768,"o":"m 148 0 l 148 981 l 760 981 l 760 879 l 284 879 l 284 556 l 705 556 l 705 454 l 284 454 l 284 102 l 768 102 l 768 0 l 148 0 z "},"F":{"ha":786,"x_min":148,"x_max":705,"o":"m 148 0 l 148 981 l 705 981 l 705 879 l 284 879 l 284 552 l 680 552 l 680 450 l 284 450 l 284 0 l 148 0 z "},"G":{"ha":1055,"x_min":126,"x_max":922,"o":"m 534 -15 q 176 121 260 -15 q 126 330 126 200 l 126 637 q 248 930 126 847 q 521 996 345 996 q 778 956 696 996 q 886 850 860 916 q 911 689 911 784 l 787 679 q 768 807 787 774 q 732 852 749 839 q 674 876 715 866 q 550 886 633 886 q 419 875 467 886 q 335 840 372 865 q 263 663 263 790 l 263 309 q 332 138 263 181 q 533 95 400 95 q 726 137 667 95 q 785 309 785 180 l 785 399 l 553 399 l 553 498 l 922 498 l 922 0 l 848 0 l 831 167 q 746 34 818 82 q 534 -15 673 -15 z "},"H":{"ha":1036,"x_min":144,"x_max":892,"o":"m 144 0 l 144 981 l 280 981 l 280 547 l 756 547 l 756 981 l 892 981 l 892 0 l 756 0 l 756 447 l 280 447 l 280 0 l 144 0 z "},"I":{"ha":768,"x_min":129,"x_max":639,"o":"m 129 0 l 129 102 l 316 102 l 316 880 l 129 880 l 129 981 l 639 981 l 639 880 l 452 880 l 452 102 l 639 102 l 639 0 l 129 0 z "},"J":{"ha":818,"x_min":69,"x_max":670,"o":"m 354 -12 q 192 8 276 -12 q 69 47 108 27 l 106 153 q 213 118 141 136 q 350 100 285 100 q 490 149 446 100 q 534 295 534 198 l 534 869 l 159 869 l 159 981 l 670 981 l 670 292 q 592 68 670 148 q 354 -12 515 -12 z "},"K":{"ha":962,"x_min":148,"x_max":916,"o":"m 148 0 l 148 981 l 284 981 l 284 446 q 545 749 393 578 q 748 981 696 921 l 896 981 l 528 541 l 916 0 l 764 0 l 432 468 l 284 317 l 284 0 l 148 0 z "},"L":{"ha":777,"x_min":148,"x_max":724,"o":"m 148 0 l 148 981 l 284 981 l 284 105 l 724 105 l 724 0 l 148 0 z "},"M":{"ha":1206,"x_min":148,"x_max":1058,"o":"m 148 0 l 148 981 l 273 981 l 604 433 l 937 981 l 1058 981 l 1058 0 l 929 0 l 929 760 l 654 311 l 553 311 l 278 758 l 278 0 l 148 0 z "},"N":{"ha":1081,"x_min":148,"x_max":933,"o":"m 148 0 l 148 981 l 252 981 l 813 197 l 813 981 l 933 981 l 933 0 l 812 0 l 268 749 l 268 0 l 148 0 z "},"O":{"ha":1048,"x_min":126,"x_max":922,"o":"m 530 95 q 597 95 530 95 q 725 138 664 95 q 786 309 786 181 l 786 663 q 725 838 786 791 q 530 886 663 886 q 280 772 324 886 q 263 663 263 728 l 263 309 q 330 138 263 182 q 530 95 396 95 m 279 30 q 234 52 279 30 q 158 150 190 75 q 126 330 126 225 l 126 638 q 245 930 126 849 q 530 996 342 996 q 912 747 864 996 q 922 629 922 695 l 922 339 q 805 52 922 134 q 539 -15 711 -15 q 279 30 368 -15 z "},"P":{"ha":899,"x_min":148,"x_max":812,"o":"m 148 0 l 148 981 l 540 981 q 812 672 812 981 q 742 431 812 504 q 538 359 671 359 l 285 359 l 285 0 l 148 0 m 285 463 l 541 463 q 673 602 661 463 q 675 663 675 628 q 643 829 675 782 q 544 877 611 877 l 285 877 l 285 463 z "},"Q":{"ha":1046,"x_min":126,"x_max":922,"o":"m 530 95 q 597 95 530 95 q 725 138 664 95 q 786 309 786 181 l 786 663 q 725 838 786 791 q 530 886 663 886 q 280 772 324 886 q 263 663 263 728 l 263 309 q 330 138 263 182 q 530 95 396 95 m 607 -12 l 736 -209 l 640 -260 l 484 -14 q 211 75 296 -6 q 126 330 126 157 l 126 638 q 245 930 126 849 q 530 996 342 996 q 912 747 864 996 q 922 629 922 695 l 922 339 q 805 52 922 134 q 607 -12 732 1 z "},"R":{"ha":993,"x_min":148,"x_max":929,"o":"m 148 0 l 148 981 l 585 981 q 840 827 788 981 q 859 692 859 770 q 841 561 859 614 q 794 478 823 507 q 721 431 765 450 l 929 0 l 789 0 l 594 407 l 285 406 l 285 0 l 148 0 m 285 510 l 574 510 q 691 557 661 510 q 722 689 722 604 q 642 869 722 842 q 589 877 618 878 l 285 877 l 285 510 z "},"S":{"ha":884,"x_min":98,"x_max":789,"o":"m 789 275 q 469 -15 789 -15 q 98 77 256 -15 l 146 181 q 294 120 207 145 q 464 95 381 95 q 588 116 546 95 q 663 271 663 154 q 659 335 663 319 q 544 420 643 389 l 307 499 q 154 594 193 536 q 116 741 116 651 q 210 937 117 869 q 445 996 291 995 q 774 927 664 996 l 741 821 q 469 886 620 886 q 309 859 363 886 q 250 771 254 831 q 248 737 248 752 q 269 662 248 688 q 349 615 290 635 l 596 532 q 744 441 698 497 q 789 275 789 385 z "},"T":{"ha":817,"x_min":57,"x_max":760,"o":"m 340 0 l 340 869 l 57 869 l 57 981 l 760 981 l 760 869 l 476 869 l 476 0 l 340 0 z "},"U":{"ha":1043,"x_min":136,"x_max":907,"o":"m 526 -15 q 182 123 264 -15 q 136 321 136 201 l 136 981 l 273 981 l 273 307 q 449 99 273 122 q 534 95 484 95 q 705 136 639 95 q 770 307 770 176 l 770 981 l 907 981 l 907 321 q 795 50 907 130 q 526 -15 703 -15 z "},"V":{"ha":940,"x_min":58,"x_max":882,"o":"m 408 0 l 58 981 l 199 981 l 469 199 l 740 981 l 882 981 l 528 0 l 408 0 z "},"W":{"ha":1389,"x_min":76,"x_max":1313,"o":"m 354 0 l 76 981 l 201 981 l 409 235 l 623 981 l 768 981 l 991 235 l 1189 981 l 1313 981 l 1046 0 l 943 0 l 703 836 l 457 0 l 354 0 z "},"X":{"ha":906,"x_min":64,"x_max":842,"o":"m 64 0 l 383 496 l 79 981 l 216 981 l 454 609 l 685 981 l 832 981 l 524 498 l 842 0 l 694 0 l 452 385 l 208 0 l 64 0 z "},"Y":{"ha":894,"x_min":33,"x_max":861,"o":"m 380 0 l 380 385 l 33 981 l 177 981 l 448 505 l 721 981 l 861 981 l 516 385 l 516 0 l 380 0 z "},"Z":{"ha":842,"x_min":122,"x_max":743,"o":"m 122 0 l 122 102 l 585 869 l 143 869 l 143 981 l 734 981 l 734 878 l 273 112 l 743 112 l 743 0 l 122 0 z "},"[":{"ha":521,"x_min":174,"x_max":430,"o":"m 174 -52 l 174 1037 l 430 1037 l 430 947 l 301 947 l 301 39 l 430 39 l 430 -52 l 174 -52 z "},"\\":{"ha":521,"x_min":43,"x_max":477,"o":"m 353 0 l 43 1021 l 170 1021 l 477 0 l 353 0 z "},"]":{"ha":521,"x_min":132,"x_max":389,"o":"m 132 -52 l 132 39 l 261 39 l 261 946 l 132 946 l 132 1037 l 389 1037 l 389 -52 l 132 -52 z "},"^":{"ha":852,"x_min":104,"x_max":748,"o":"m 104 425 l 348 870 l 498 870 l 748 425 l 617 425 l 426 787 l 236 425 l 104 425 z "},"_":{"ha":630,"x_min":9,"x_max":621,"o":"m 9 -71 l 9 31 l 621 31 l 621 -71 l 9 -71 z "},"`":{"ha":418,"x_min":78,"x_max":324,"o":"m 252 790 l 78 1021 l 231 1021 l 324 790 l 252 790 z "},"a":{"ha":795,"x_min":90,"x_max":732,"o":"m 319 -15 q 150 44 210 -15 q 90 192 90 104 q 111 275 90 242 q 366 405 153 343 q 507 463 488 439 q 528 502 526 488 q 530 546 530 515 q 505 606 530 576 q 397 635 480 635 q 254 590 281 635 q 241 528 241 567 l 241 496 l 118 496 l 118 528 q 188 683 118 633 q 398 732 258 732 q 597 669 538 732 q 657 488 657 606 l 657 182 q 671 109 657 125 q 732 92 686 92 l 718 -5 l 692 -5 q 591 21 624 -5 q 540 102 557 47 q 404 -4 484 18 q 319 -15 366 -15 m 384 318 q 335 304 384 318 q 250 262 287 290 q 213 183 213 234 q 247 107 213 133 q 330 81 281 81 q 418 94 378 81 q 489 131 457 106 q 530 188 520 156 l 530 395 q 384 318 480 346 z "},"b":{"ha":817,"x_min":126,"x_max":716,"o":"m 254 685 q 456 732 338 732 q 646 669 575 732 q 716 499 716 606 l 716 239 q 639 56 716 127 q 425 -15 562 -15 q 237 48 338 -15 l 220 0 l 126 0 l 126 1021 l 254 1021 l 254 685 m 589 509 q 429 635 589 635 q 254 590 351 635 l 254 127 q 406 85 328 85 q 536 123 484 85 q 589 225 589 161 l 589 509 z "},"c":{"ha":753,"x_min":100,"x_max":673,"o":"m 393 -15 q 117 138 172 -15 q 100 233 100 182 l 100 507 q 178 671 100 610 q 389 732 256 732 q 623 659 559 732 q 673 491 673 602 l 551 479 q 517 605 551 576 q 395 635 483 635 q 268 604 308 635 q 228 504 228 574 l 228 222 q 270 115 228 148 q 400 83 312 83 q 517 106 488 83 q 553 210 547 129 l 671 210 q 600 35 661 85 q 393 -15 538 -15 z "},"d":{"ha":814,"x_min":100,"x_max":688,"o":"m 401 732 q 560 705 488 732 l 560 1021 l 688 1021 l 688 0 l 601 0 l 580 47 q 492 3 547 22 q 385 -15 438 -15 q 169 51 238 -15 q 100 227 100 116 l 100 498 q 174 671 100 610 q 401 732 248 732 m 228 218 q 274 119 228 153 q 381 85 319 85 q 560 128 491 85 l 560 605 q 410 635 498 635 q 228 513 228 635 l 228 218 z "},"e":{"ha":785,"x_min":100,"x_max":682,"o":"m 399 -15 q 171 51 241 -15 q 100 254 100 117 l 100 504 q 173 671 100 610 q 392 732 245 732 q 611 676 539 732 q 682 514 682 619 l 682 343 l 228 343 l 228 242 q 264 118 228 153 q 393 83 300 83 q 499 87 487 83 q 524 96 511 91 q 542 109 537 102 q 556 132 547 117 q 568 191 564 147 l 681 191 q 658 87 674 127 q 608 25 642 48 q 526 -7 574 1 q 399 -15 478 -15 m 228 429 l 559 429 l 559 528 q 517 612 559 589 q 395 635 475 635 q 271 607 314 635 q 228 515 228 579 l 228 429 z "},"f":{"ha":536,"x_min":75,"x_max":505,"o":"m 195 0 l 195 623 l 75 623 l 75 719 l 195 719 l 195 828 q 249 974 195 928 q 416 1021 304 1021 l 496 1021 l 505 930 l 426 930 q 322 840 322 930 l 322 719 l 496 719 l 496 623 l 322 623 l 322 0 l 195 0 z "},"g":{"ha":804,"x_min":100,"x_max":685,"o":"m 200 -154 q 373 -180 271 -180 q 516 -141 475 -180 q 557 -21 557 -102 l 557 79 q 474 40 530 53 q 373 27 419 27 q 100 257 100 27 l 100 494 q 169 669 100 606 q 373 732 237 732 q 485 710 427 732 q 557 661 542 687 l 557 719 l 685 719 l 685 17 q 617 -195 685 -113 q 397 -277 549 -277 q 172 -250 245 -277 l 200 -154 m 557 536 q 393 635 557 635 q 228 507 228 635 l 228 237 q 393 125 228 125 q 557 179 490 125 l 557 536 z "},"h":{"ha":831,"x_min":126,"x_max":712,"o":"m 585 531 q 425 635 585 635 q 299 602 345 635 q 254 514 254 568 l 254 0 l 126 0 l 126 1021 l 254 1021 l 254 651 q 468 732 323 732 q 699 605 651 732 q 712 524 712 568 l 712 0 l 585 0 l 585 531 z "},"i":{"ha":404,"x_min":140,"x_max":267,"o":"m 140 0 l 140 719 l 267 719 l 267 0 l 140 0 m 140 848 l 140 981 l 267 981 l 267 848 l 140 848 z "},"j":{"ha":408,"x_min":9,"x_max":285,"o":"m 22 -239 l 9 -134 l 28 -134 q 121 -116 98 -134 q 151 -72 144 -98 q 157 -3 157 -45 l 157 719 l 285 719 l 285 5 q 203 -214 285 -172 q 66 -239 155 -239 l 22 -239 m 157 848 l 157 981 l 285 981 l 285 848 l 157 848 z "},"k":{"ha":781,"x_min":126,"x_max":766,"o":"m 126 0 l 126 1021 l 254 1021 l 254 355 l 597 719 l 737 719 l 445 403 l 766 0 l 619 0 l 361 334 l 254 227 l 254 0 l 126 0 z "},"l":{"ha":472,"x_min":129,"x_max":411,"o":"m 359 -5 q 256 4 296 -5 q 186 40 216 14 q 129 243 129 90 l 129 1021 l 256 1021 l 256 241 q 282 128 256 155 q 389 102 308 102 l 411 102 l 396 -5 l 359 -5 z "},"m":{"ha":1261,"x_min":126,"x_max":1142,"o":"m 572 530 q 417 635 572 635 q 296 601 338 635 q 254 512 254 568 l 254 0 l 126 0 l 126 719 l 254 719 l 254 649 q 470 732 326 732 q 671 638 614 732 l 688 654 q 906 732 766 732 q 1130 604 1087 732 q 1142 522 1142 567 l 1142 0 l 1015 0 l 1015 530 q 873 635 1015 635 q 742 601 785 635 q 700 512 700 568 l 700 0 l 572 0 l 572 530 z "},"n":{"ha":831,"x_min":126,"x_max":712,"o":"m 585 530 q 424 635 585 635 q 299 601 345 635 q 254 512 254 567 l 254 0 l 126 0 l 126 719 l 254 719 l 254 649 q 467 732 326 732 q 699 604 650 732 q 712 522 712 567 l 712 0 l 585 0 l 585 530 z "},"o":{"ha":796,"x_min":100,"x_max":696,"o":"m 228 203 q 398 83 228 83 q 568 203 568 83 l 568 514 q 398 635 568 635 q 228 514 228 635 l 228 203 m 696 214 q 624 46 696 108 q 397 -15 551 -15 q 172 46 243 -15 q 100 214 100 107 l 100 503 q 172 671 100 610 q 397 732 243 732 q 624 671 551 732 q 696 503 696 609 l 696 214 z "},"p":{"ha":812,"x_min":126,"x_max":712,"o":"m 126 -277 l 126 719 l 227 719 l 241 665 q 327 712 273 692 q 439 732 381 732 q 643 667 573 732 q 712 494 712 602 l 712 233 q 636 54 712 122 q 423 -15 560 -15 q 254 23 328 -15 l 254 -277 l 126 -277 m 254 121 q 407 83 322 83 q 538 119 492 83 q 585 220 585 155 l 585 505 q 539 601 585 567 q 427 635 493 635 q 314 608 361 635 q 254 559 268 581 l 254 121 z "},"q":{"ha":814,"x_min":100,"x_max":688,"o":"m 560 -277 l 560 32 q 481 -3 530 9 q 389 -15 432 -15 q 176 46 252 -15 q 100 213 100 108 l 100 494 q 172 669 100 605 q 380 732 243 732 q 489 710 433 732 q 560 661 545 687 l 560 719 l 688 719 l 688 -277 l 560 -277 m 397 83 q 506 102 460 83 q 560 136 553 121 l 560 549 q 519 609 560 583 q 399 635 477 635 q 274 603 320 635 q 228 507 228 571 l 228 193 q 397 83 228 83 z "},"r":{"ha":538,"x_min":126,"x_max":503,"o":"m 126 0 l 126 719 l 254 719 l 254 617 q 386 713 278 684 q 503 729 442 730 l 499 620 q 330 583 407 620 q 254 503 254 547 l 254 0 l 126 0 z "},"s":{"ha":673,"x_min":96,"x_max":594,"o":"m 341 83 q 486 191 486 83 q 473 260 486 237 q 412 300 460 283 l 241 363 q 132 430 163 391 q 101 526 101 468 q 113 618 101 583 q 151 680 124 653 q 340 732 203 732 q 576 693 477 732 l 547 595 q 456 622 513 610 q 358 635 400 635 q 235 604 261 635 q 220 546 220 584 q 232 492 220 508 q 281 463 245 476 l 450 397 q 566 320 538 362 q 594 189 594 279 q 536 42 594 100 q 358 -15 479 -15 q 201 4 270 -15 q 96 43 133 23 l 127 137 q 341 83 224 83 z "},"t":{"ha":570,"x_min":54,"x_max":491,"o":"m 458 -5 q 241 42 308 -5 q 174 205 174 90 l 174 623 l 54 623 l 54 719 l 179 719 l 195 941 l 302 941 l 302 719 l 482 719 l 482 623 l 302 623 l 302 214 q 341 124 302 146 q 477 102 380 102 l 491 102 l 477 -5 l 458 -5 z "},"u":{"ha":830,"x_min":119,"x_max":704,"o":"m 367 -15 q 134 115 183 -15 q 119 197 119 153 l 119 719 l 247 719 l 247 196 q 286 113 247 143 q 402 83 325 83 q 528 121 479 83 q 576 210 576 159 l 576 719 l 704 719 l 704 0 l 590 0 l 576 90 q 367 -15 517 -15 z "},"v":{"ha":749,"x_min":43,"x_max":705,"o":"m 322 0 l 43 719 l 172 719 l 388 136 l 581 719 l 705 719 l 451 0 l 322 0 z "},"w":{"ha":1095,"x_min":35,"x_max":1059,"o":"m 242 0 l 35 719 l 152 719 l 311 155 l 484 719 l 607 719 l 787 155 l 941 719 l 1059 719 l 849 0 l 730 0 l 547 573 l 363 0 l 242 0 z "},"x":{"ha":716,"x_min":43,"x_max":678,"o":"m 43 0 l 299 361 l 47 719 l 176 719 l 363 452 l 552 719 l 675 719 l 425 363 l 678 0 l 554 0 l 362 273 l 170 0 l 43 0 z "},"y":{"ha":758,"x_min":52,"x_max":719,"o":"m 134 -275 l 134 -176 q 270 -134 218 -176 q 348 3 322 -93 l 52 719 l 186 719 l 406 146 l 590 719 l 719 719 l 483 31 q 398 -158 436 -106 q 326 -232 361 -211 q 134 -275 255 -275 z "},"z":{"ha":654,"x_min":95,"x_max":579,"o":"m 95 0 l 95 80 l 439 635 l 107 635 l 107 719 l 573 719 l 573 641 l 227 84 l 579 84 l 579 0 l 95 0 z "},"{":{"ha":646,"x_min":107,"x_max":587,"o":"m 321 441 q 392 201 392 406 l 392 159 q 400 34 392 51 q 418 2 408 16 q 441 -18 428 -12 q 482 -31 455 -23 q 587 -38 509 -38 l 587 -140 q 359 -103 420 -140 q 319 -76 335 -88 q 282 -19 302 -64 q 262 138 262 26 l 262 277 q 257 328 262 300 q 248 363 253 356 q 229 379 243 370 q 198 389 214 389 q 159 389 182 389 l 107 389 l 107 492 l 174 492 q 235 503 203 491 q 251 527 241 506 q 262 621 262 548 l 262 709 q 271 870 262 844 q 319 958 296 941 q 416 1005 372 997 q 587 1021 496 1021 l 587 919 q 435 895 467 920 q 418 880 425 887 q 392 745 392 856 l 392 680 q 321 441 392 475 z "},"|":{"ha":468,"x_min":174,"x_max":294,"o":"m 174 -113 l 174 1055 l 294 1055 l 294 -113 l 174 -113 z "},"}":{"ha":646,"x_min":87,"x_max":567,"o":"m 353 440 q 282 680 282 475 l 282 722 q 274 847 282 830 q 256 879 266 865 q 233 899 246 893 q 192 911 219 904 q 87 919 165 919 l 87 1021 q 315 985 254 1021 q 355 958 339 970 q 392 900 372 945 q 412 743 412 855 l 412 604 q 417 553 412 581 q 426 518 421 525 q 446 502 431 511 q 476 492 460 492 q 515 492 492 492 l 567 492 l 567 389 l 519 389 q 476 389 492 389 q 446 379 460 389 q 426 363 431 370 q 417 328 421 356 q 412 277 412 300 l 412 172 q 406 24 412 50 q 391 -24 399 -1 q 370 -60 382 -47 q 341 -88 358 -72 q 299 -111 323 -104 q 232 -130 275 -119 q 87 -140 189 -140 l 87 -38 q 192 -31 165 -38 q 233 -18 219 -23 q 264 14 246 -12 q 282 127 282 40 l 282 201 q 353 440 282 406 z "},"~":{"ha":597,"x_min":43,"x_max":554,"o":"m 189 796 q 159 796 189 796 q 86 849 128 795 q 43 985 43 902 l 109 985 q 127 921 109 948 q 178 895 146 895 q 257 929 210 895 q 408 994 347 994 q 512 941 469 994 q 554 805 554 888 l 488 805 q 470 868 488 842 q 420 895 452 895 q 340 861 388 895 q 189 796 250 796 z "}," ":{"ha":347,"x_min":0,"x_max":0,"o":"z "},"¡":{"ha":521,"x_min":190,"x_max":331,"o":"m 331 859 l 331 719 l 193 719 l 193 859 l 331 859 m 281 607 q 327 -122 327 139 l 190 -122 q 243 607 190 91 l 281 607 z "},"¢":{"ha":753,"x_min":100,"x_max":673,"o":"m 436 -14 l 436 -139 l 366 -139 l 366 -14 q 117 138 170 -5 q 100 233 100 182 l 100 507 q 175 668 100 610 q 366 732 250 727 l 366 866 l 436 866 l 436 731 q 620 663 568 723 q 673 491 673 602 l 551 479 q 517 605 551 576 q 395 635 483 635 q 268 604 308 635 q 228 504 228 574 l 228 222 q 270 115 228 148 q 400 83 312 83 q 517 106 488 83 q 553 210 547 129 l 671 210 q 604 39 661 85 q 436 -14 548 -7 z "},"£":{"ha":863,"x_min":113,"x_max":730,"o":"m 177 0 l 219 453 l 113 453 l 113 549 l 228 549 l 249 763 q 326 937 258 867 q 502 1006 393 1006 q 730 948 610 1006 l 694 854 q 522 900 599 900 q 379 749 395 900 l 359 549 l 686 549 l 686 453 l 349 453 l 313 110 l 703 110 l 703 0 l 177 0 z "},"¤":{"ha":779,"x_min":79,"x_max":701,"o":"m 554 330 q 388 244 493 244 q 220 317 283 244 l 120 244 l 85 300 l 186 372 q 166 474 166 417 q 197 585 166 532 l 79 664 l 115 720 l 237 635 q 383 690 296 690 q 529 634 471 690 l 660 729 l 694 673 l 569 583 q 599 476 599 527 q 585 387 599 425 l 701 310 l 665 255 l 554 330 m 274 350 q 296 326 274 350 q 383 301 318 301 q 492 350 448 301 q 536 468 536 399 q 492 586 536 538 q 383 635 448 635 q 274 586 318 635 q 231 468 231 538 q 274 350 231 399 z "},"¥":{"ha":894,"x_min":33,"x_max":861,"o":"m 176 380 l 176 480 l 324 480 l 33 981 l 177 981 l 448 505 l 721 981 l 861 981 l 571 480 l 721 480 l 721 380 l 516 380 l 516 271 l 721 271 l 721 171 l 516 171 l 516 0 l 380 0 l 380 171 l 176 171 l 176 271 l 380 271 l 380 380 l 176 380 z "},"¦":{"ha":457,"x_min":172,"x_max":293,"o":"m 172 -113 l 172 348 l 293 348 l 293 -113 l 172 -113 m 172 575 l 172 1055 l 293 1055 l 293 575 l 172 575 z "},"§":{"ha":680,"x_min":98,"x_max":610,"o":"m 562 859 q 345 898 463 898 q 252 876 279 898 q 225 813 225 854 q 238 756 225 771 q 288 726 251 741 l 463 660 q 582 584 553 625 q 610 462 610 542 q 574 330 610 382 q 610 195 610 290 q 551 42 610 100 q 368 -15 492 -15 q 206 4 277 -15 q 98 43 136 23 l 130 137 q 350 83 231 83 q 499 191 499 83 q 486 260 499 237 q 423 300 472 283 l 248 363 q 134 431 166 393 q 102 549 102 469 q 151 676 102 629 q 102 799 102 718 q 229 982 102 947 q 343 996 276 996 q 593 956 490 996 l 562 859 m 248 627 q 234 597 242 627 q 225 541 225 568 q 238 495 225 513 q 288 463 252 477 l 486 387 q 499 458 499 417 q 486 523 499 500 q 423 564 472 546 l 248 627 z "},"¨":{"ha":695,"x_min":107,"x_max":588,"o":"m 107 858 l 107 981 l 247 981 l 247 858 l 107 858 m 448 858 l 448 981 l 588 981 l 588 858 l 448 858 z "},"©":{"ha":1210,"x_min":106,"x_max":1104,"o":"m 595 195 q 533 195 595 195 q 422 250 471 195 q 374 400 374 304 l 374 589 q 492 787 374 749 q 610 802 541 802 q 790 742 748 802 q 833 584 833 683 l 833 567 l 754 560 l 754 604 q 722 710 754 680 q 611 740 690 740 q 493 709 532 740 q 455 604 455 678 l 455 387 q 493 284 455 313 q 611 255 531 255 q 723 283 692 255 q 754 387 754 311 l 754 429 l 833 429 l 833 406 q 814 289 833 326 q 771 235 795 252 q 595 195 719 195 m 234 268 q 262 219 234 268 q 387 112 289 169 q 607 56 485 56 q 826 112 728 56 q 978 268 924 169 q 1032 489 1032 367 q 978 711 1032 612 q 826 866 924 810 q 607 923 728 923 q 387 866 485 923 q 234 711 289 810 q 180 490 180 612 q 234 268 180 368 m 961 133 q 928 100 961 133 q 802 29 895 67 q 588 -9 709 -9 q 352 56 467 -9 q 172 235 238 121 q 106 489 106 350 q 172 743 106 629 q 352 922 238 857 q 605 987 467 987 q 859 922 744 987 q 1039 743 973 857 q 1104 507 1104 629 q 1065 292 1104 385 q 961 133 1027 199 z "},"ª":{"ha":709,"x_min":126,"x_max":644,"o":"m 312 341 q 175 391 224 341 q 126 518 126 442 q 143 589 126 561 q 349 700 178 647 q 463 750 448 729 q 479 783 478 771 q 481 821 481 795 q 461 872 481 847 q 374 897 441 897 q 259 858 280 897 q 248 805 248 839 l 248 778 l 149 778 l 149 806 q 206 938 149 896 q 375 980 262 980 q 536 926 488 980 q 584 771 584 872 l 584 509 q 595 447 584 461 q 644 432 607 432 l 632 349 l 612 349 q 530 371 557 349 q 489 440 503 393 q 380 350 444 368 q 312 341 349 341 m 363 625 q 324 613 363 625 q 256 577 285 601 q 226 510 226 554 q 253 445 226 467 q 320 423 281 423 q 391 434 359 423 q 448 466 423 444 q 481 514 473 487 l 481 692 q 363 625 441 649 z "},"«":{"ha":715,"x_min":65,"x_max":629,"o":"m 255 54 l 65 359 l 250 665 l 350 617 l 210 359 l 350 102 l 255 54 m 536 54 l 346 359 l 531 665 l 629 617 l 490 359 l 629 102 l 536 54 z "},"¬":{"ha":586,"x_min":66,"x_max":489,"o":"m 399 226 l 399 377 l 66 377 l 66 469 l 489 469 l 489 226 l 399 226 z "},"­":{"ha":694,"x_min":110,"x_max":585,"o":"m 110 335 l 110 435 l 585 435 l 585 335 l 110 335 z "},"®":{"ha":1210,"x_min":106,"x_max":1104,"o":"m 404 216 l 404 782 l 677 782 q 856 616 852 782 l 856 606 q 753 452 856 479 l 878 216 l 791 216 l 669 442 l 493 442 l 493 216 l 404 216 m 493 503 l 674 503 q 766 595 765 503 l 766 611 q 680 720 766 720 l 493 720 l 493 503 m 234 268 q 262 219 234 268 q 387 112 289 169 q 607 56 485 56 q 826 112 728 56 q 978 268 924 169 q 1032 489 1032 367 q 978 711 1032 612 q 826 866 924 810 q 607 923 728 923 q 387 866 485 923 q 234 711 289 810 q 180 490 180 612 q 234 268 180 368 m 961 133 q 928 100 961 133 q 802 29 895 67 q 588 -9 709 -9 q 352 56 467 -9 q 172 235 238 121 q 106 489 106 350 q 172 743 106 629 q 352 922 238 857 q 605 987 467 987 q 859 922 744 987 q 1039 743 973 857 q 1104 507 1104 629 q 1065 292 1104 385 q 961 133 1027 199 z "},"¯":{"ha":348,"x_min":22,"x_max":326,"o":"m 22 922 l 22 1021 l 326 1021 l 326 922 l 22 922 z "},"°":{"ha":703,"x_min":132,"x_max":571,"o":"m 242 647 q 264 624 242 647 q 352 600 286 600 q 462 647 418 600 q 507 762 507 694 q 462 876 507 829 q 352 923 418 923 q 242 876 286 923 q 197 762 197 829 q 242 647 197 694 m 507 606 q 474 573 507 606 q 351 541 442 541 q 196 606 260 541 q 132 761 132 670 q 196 916 132 852 q 351 981 260 981 q 507 916 442 981 q 571 761 571 852 q 507 606 571 670 z "},"±":{"ha":706,"x_min":140,"x_max":566,"o":"m 312 227 l 312 414 l 140 414 l 140 492 l 312 492 l 312 673 l 394 673 l 394 492 l 566 492 l 566 414 l 394 414 l 394 227 l 312 227 m 140 0 l 140 81 l 566 81 l 566 0 l 140 0 z "},"²":{"ha":713,"x_min":129,"x_max":556,"o":"m 444 905 q 350 941 414 941 q 211 796 210 941 l 129 796 q 191 955 129 903 q 348 1006 253 1006 q 499 951 443 1006 q 556 818 556 897 q 532 690 556 739 q 454 587 509 642 l 237 372 l 553 372 l 553 304 l 156 304 l 149 379 l 392 643 q 461 735 448 703 q 474 818 474 768 q 444 905 474 868 z "},"³":{"ha":795,"x_min":136,"x_max":643,"o":"m 400 283 q 157 401 206 283 q 136 516 138 448 l 229 516 q 319 365 232 388 q 411 356 353 355 q 511 388 470 356 q 551 478 551 420 q 534 566 552 536 q 338 625 500 625 l 338 692 q 493 715 460 692 q 533 761 527 739 q 538 826 538 783 q 505 902 538 869 q 400 935 472 935 q 248 860 274 935 q 237 782 237 829 l 144 782 q 321 1001 147 974 q 410 1006 357 1006 q 513 986 463 1006 q 596 923 564 966 q 629 814 629 879 q 498 659 629 684 q 633 562 609 639 q 643 488 643 530 q 575 335 643 386 q 400 283 508 283 z "},"´":{"ha":418,"x_min":90,"x_max":324,"o":"m 90 790 l 172 1021 l 324 1021 l 162 790 l 90 790 z "},"µ":{"ha":208,"x_min":0,"x_max":0,"o":""},"¶":{"ha":848,"x_min":114,"x_max":652,"o":"m 329 0 l 329 590 q 176 644 237 592 q 114 784 114 696 q 260 970 114 933 q 353 981 302 981 l 652 981 l 652 0 l 559 0 l 559 907 l 421 907 l 421 0 l 329 0 z "},"·":{"ha":279,"x_min":73,"x_max":212,"o":"m 73 866 l 73 1006 l 212 1006 l 212 866 l 73 866 z "},"¸":{"ha":347,"x_min":81,"x_max":312,"o":"m 144 -330 q 81 -324 112 -330 l 81 -259 q 141 -264 106 -264 q 200 -244 176 -264 q 224 -194 224 -225 q 194 -136 224 -163 q 116 -107 164 -109 l 116 0 l 158 0 l 162 -64 q 273 -117 233 -77 q 312 -207 312 -157 q 268 -293 312 -257 q 144 -330 224 -330 z "},"¹":{"ha":712,"x_min":140,"x_max":572,"o":"m 140 444 l 140 512 l 326 512 l 326 945 l 153 928 l 144 998 l 342 1021 l 415 1021 l 415 512 l 572 512 l 572 444 l 140 444 z "},"º":{"ha":694,"x_min":106,"x_max":588,"o":"m 209 524 q 347 420 209 420 q 485 524 485 420 l 485 792 q 347 895 485 895 q 209 792 209 895 l 209 524 m 588 533 q 529 389 588 442 q 346 336 471 336 q 164 389 222 336 q 106 533 106 441 l 106 782 q 164 927 106 874 q 346 979 222 979 q 529 926 471 979 q 588 782 588 873 l 588 533 z "},"»":{"ha":715,"x_min":85,"x_max":650,"o":"m 184 54 l 85 102 l 224 359 l 85 617 l 179 665 l 369 359 l 184 54 m 465 54 l 365 102 l 505 359 l 365 617 l 460 665 l 650 359 l 465 54 z "},"¼":{"ha":1388,"x_min":111,"x_max":1297,"o":"m 111 444 l 111 512 l 297 512 l 297 945 l 123 928 l 115 998 l 313 1021 l 386 1021 l 386 512 l 543 512 l 543 444 l 111 444 m 466 0 l 930 981 l 1015 981 l 555 0 l 466 0 m 1122 0 l 1122 140 l 828 140 l 828 203 l 1072 605 l 1167 605 l 931 202 l 1122 202 l 1122 361 l 1199 361 l 1199 202 l 1297 202 l 1297 140 l 1199 140 l 1199 0 l 1122 0 z "},"½":{"ha":1388,"x_min":111,"x_max":1277,"o":"m 930 1 l 922 64 l 1114 280 q 1191 387 1184 355 q 1195 429 1195 403 q 1185 477 1195 456 q 1098 519 1164 519 q 1007 498 1031 519 q 983 410 983 477 l 903 410 q 954 544 903 500 q 1094 588 1005 588 q 1229 542 1183 588 q 1274 424 1274 496 q 1265 361 1274 382 q 1252 331 1255 340 q 1234 304 1248 321 q 1216 281 1219 286 q 1193 255 1212 276 q 1170 230 1173 234 l 1025 68 l 1277 68 l 1277 1 l 930 1 m 111 444 l 111 512 l 297 512 l 297 945 l 123 928 l 115 998 l 313 1021 l 386 1021 l 386 512 l 543 512 l 543 444 l 111 444 m 466 0 l 930 981 l 1015 981 l 555 0 l 466 0 z "},"¾":{"ha":1388,"x_min":135,"x_max":1297,"o":"m 1122 0 l 1122 140 l 828 140 l 828 203 l 1072 605 l 1167 605 l 931 202 l 1122 202 l 1122 361 l 1199 361 l 1199 202 l 1297 202 l 1297 140 l 1199 140 l 1199 0 l 1122 0 m 466 0 l 930 981 l 1015 981 l 555 0 l 466 0 m 471 878 q 361 964 471 964 q 255 936 275 964 q 235 850 235 909 l 144 850 q 233 1009 146 975 q 367 1028 280 1028 q 507 991 454 1027 q 561 888 561 954 q 535 792 561 823 q 450 753 509 761 q 544 709 513 742 q 574 601 574 676 q 521 485 574 526 q 358 443 468 443 q 196 484 249 443 q 135 632 144 526 l 227 632 q 263 531 231 555 q 363 506 295 506 q 457 531 431 506 q 484 606 484 557 q 472 677 484 654 q 318 723 449 723 l 318 781 q 417 789 394 781 q 450 805 439 798 q 471 878 471 819 z "},"¿":{"ha":841,"x_min":100,"x_max":722,"o":"m 527 566 l 341 319 q 250 164 262 214 q 244 111 244 139 q 278 8 244 44 q 407 -27 312 -27 q 545 9 502 -27 q 588 118 588 46 l 588 154 l 722 154 l 722 132 q 648 -78 722 -19 q 391 -137 574 -137 q 137 -28 208 -137 q 100 88 100 28 q 111 187 100 148 q 157 277 123 226 q 277 418 192 328 l 418 566 l 527 566 m 545 859 l 545 719 l 406 719 l 406 859 l 545 859 z "},"À":{"ha":968,"x_min":58,"x_max":910,"o":"m 448 1106 l 274 1337 l 427 1337 l 520 1106 l 448 1106 m 58 0 l 424 981 l 544 981 l 910 0 l 771 0 l 705 191 l 267 191 l 200 0 l 58 0 m 300 288 l 673 288 l 488 825 l 300 288 z "},"Á":{"ha":968,"x_min":58,"x_max":910,"o":"m 448 1106 l 530 1337 l 682 1337 l 520 1106 l 448 1106 m 58 0 l 424 981 l 544 981 l 910 0 l 771 0 l 705 191 l 267 191 l 200 0 l 58 0 m 300 288 l 673 288 l 488 825 l 300 288 z "},"Â":{"ha":968,"x_min":58,"x_max":910,"o":"m 290 1106 l 437 1286 l 538 1286 l 678 1106 l 572 1106 l 488 1224 l 399 1106 l 290 1106 m 58 0 l 424 981 l 544 981 l 910 0 l 771 0 l 705 191 l 267 191 l 200 0 l 58 0 m 300 288 l 673 288 l 488 825 l 300 288 z "},"Ã":{"ha":968,"x_min":58,"x_max":910,"o":"m 619 1116 q 569 1179 619 1179 q 507 1142 545 1179 q 408 1106 470 1106 q 314 1143 346 1106 q 283 1261 283 1179 l 349 1261 q 399 1198 349 1198 q 460 1235 423 1198 q 560 1271 498 1271 q 653 1234 622 1271 q 685 1116 685 1198 l 619 1116 m 58 0 l 424 981 l 544 981 l 910 0 l 771 0 l 705 191 l 267 191 l 200 0 l 58 0 m 300 288 l 673 288 l 488 825 l 300 288 z "},"Ä":{"ha":968,"x_min":58,"x_max":910,"o":"m 244 1106 l 244 1229 l 384 1229 l 384 1106 l 244 1106 m 585 1106 l 585 1229 l 725 1229 l 725 1106 l 585 1106 m 58 0 l 424 981 l 544 981 l 910 0 l 771 0 l 705 191 l 267 191 l 200 0 l 58 0 m 300 288 l 673 288 l 488 825 l 300 288 z "},"Å":{"ha":968,"x_min":58,"x_max":910,"o":"m 410 1109 q 484 1031 410 1031 q 558 1108 558 1031 q 484 1185 558 1185 q 431 1167 452 1185 q 410 1109 410 1149 m 578 1018 q 559 1003 578 1018 q 484 987 540 987 q 391 1018 429 987 q 353 1108 353 1049 q 391 1198 353 1167 q 484 1229 429 1229 q 578 1198 540 1229 q 616 1108 616 1167 q 578 1018 616 1049 m 58 0 l 424 981 l 544 981 l 910 0 l 771 0 l 705 191 l 267 191 l 200 0 l 58 0 m 300 288 l 673 288 l 488 825 l 300 288 z "},"Æ":{"ha":1143,"x_min":66,"x_max":1057,"o":"m 205 0 l 66 2 l 334 981 l 1051 981 l 1051 879 l 722 879 l 722 552 l 1010 552 l 1010 450 l 722 450 l 722 102 l 1057 102 l 1057 0 l 593 0 l 593 191 l 254 191 l 205 0 m 279 283 l 593 283 l 593 879 l 429 879 l 279 283 z "},"Ç":{"ha":987,"x_min":123,"x_max":882,"o":"m 490 -334 q 427 -328 458 -334 l 427 -263 q 487 -268 452 -268 q 546 -249 522 -268 q 570 -198 570 -229 q 540 -140 570 -168 q 462 -111 510 -113 l 462 -4 l 504 -4 l 508 -68 q 618 -121 579 -81 q 658 -211 658 -161 q 614 -297 658 -261 q 490 -334 570 -334 m 268 30 q 225 52 268 30 q 153 149 182 74 q 123 330 123 224 l 123 637 q 235 930 123 852 q 509 996 329 996 q 770 946 689 996 q 872 789 852 896 q 882 676 882 742 l 752 665 q 735 799 752 764 q 702 848 718 833 q 647 874 685 863 q 528 886 609 886 q 401 875 448 886 q 323 840 355 865 q 260 663 260 791 l 260 309 q 323 138 260 181 q 525 95 387 95 q 701 127 663 95 q 747 222 739 160 q 752 304 752 256 l 882 304 q 839 96 882 156 q 540 -15 760 -15 q 268 30 355 -15 z "},"È":{"ha":851,"x_min":148,"x_max":768,"o":"m 422 1106 l 248 1337 l 400 1337 l 494 1106 l 422 1106 m 148 0 l 148 981 l 760 981 l 760 879 l 284 879 l 284 556 l 705 556 l 705 454 l 284 454 l 284 102 l 768 102 l 768 0 l 148 0 z "},"É":{"ha":851,"x_min":148,"x_max":768,"o":"m 422 1106 l 504 1337 l 656 1337 l 494 1106 l 422 1106 m 148 0 l 148 981 l 760 981 l 760 879 l 284 879 l 284 556 l 705 556 l 705 454 l 284 454 l 284 102 l 768 102 l 768 0 l 148 0 z "},"Ê":{"ha":851,"x_min":148,"x_max":768,"o":"m 264 1106 l 411 1286 l 513 1286 l 652 1106 l 547 1106 l 463 1224 l 373 1106 l 264 1106 m 148 0 l 148 981 l 760 981 l 760 879 l 284 879 l 284 556 l 705 556 l 705 454 l 284 454 l 284 102 l 768 102 l 768 0 l 148 0 z "},"Ë":{"ha":851,"x_min":148,"x_max":768,"o":"m 218 1106 l 218 1229 l 357 1229 l 357 1106 l 218 1106 m 559 1106 l 559 1229 l 699 1229 l 699 1106 l 559 1106 m 148 0 l 148 981 l 760 981 l 760 879 l 284 879 l 284 556 l 705 556 l 705 454 l 284 454 l 284 102 l 768 102 l 768 0 l 148 0 z "},"Ì":{"ha":768,"x_min":129,"x_max":639,"o":"m 348 1106 l 174 1337 l 326 1337 l 420 1106 l 348 1106 m 129 0 l 129 102 l 316 102 l 316 880 l 129 880 l 129 981 l 639 981 l 639 880 l 452 880 l 452 102 l 639 102 l 639 0 l 129 0 z "},"Í":{"ha":768,"x_min":129,"x_max":639,"o":"m 348 1106 l 429 1337 l 582 1337 l 420 1106 l 348 1106 m 129 0 l 129 102 l 316 102 l 316 880 l 129 880 l 129 981 l 639 981 l 639 880 l 452 880 l 452 102 l 639 102 l 639 0 l 129 0 z "},"Î":{"ha":768,"x_min":129,"x_max":639,"o":"m 190 1106 l 336 1286 l 438 1286 l 578 1106 l 472 1106 l 388 1224 l 298 1106 l 190 1106 m 129 0 l 129 102 l 316 102 l 316 880 l 129 880 l 129 981 l 639 981 l 639 880 l 452 880 l 452 102 l 639 102 l 639 0 l 129 0 z "},"Ï":{"ha":768,"x_min":129,"x_max":639,"o":"m 144 1106 l 144 1229 l 283 1229 l 283 1106 l 144 1106 m 485 1106 l 485 1229 l 625 1229 l 625 1106 l 485 1106 m 129 0 l 129 102 l 316 102 l 316 880 l 129 880 l 129 981 l 639 981 l 639 880 l 452 880 l 452 102 l 639 102 l 639 0 l 129 0 z "},"Ð":{"ha":824,"x_min":52,"x_max":909,"o":"m 285 102 l 525 102 q 723 157 673 102 q 772 313 772 212 l 772 659 q 672 853 772 808 q 525 878 615 879 l 285 878 l 285 576 l 528 576 l 528 473 l 285 473 l 285 102 m 52 473 l 52 576 l 148 576 l 148 981 l 537 981 q 888 781 819 981 q 909 650 909 723 l 909 327 q 816 83 909 166 q 538 0 724 0 l 148 0 l 148 473 l 52 473 z "},"Ñ":{"ha":1081,"x_min":148,"x_max":933,"o":"m 676 1116 q 626 1179 676 1179 q 564 1142 602 1179 q 465 1106 527 1106 q 371 1143 403 1106 q 340 1261 340 1179 l 406 1261 q 456 1198 406 1198 q 517 1235 480 1198 q 617 1271 555 1271 q 710 1234 679 1271 q 742 1116 742 1198 l 676 1116 m 148 0 l 148 981 l 252 981 l 813 197 l 813 981 l 933 981 l 933 0 l 812 0 l 268 749 l 268 0 l 148 0 z "},"Ò":{"ha":1048,"x_min":126,"x_max":922,"o":"m 488 1106 l 314 1337 l 467 1337 l 560 1106 l 488 1106 m 530 95 q 597 95 530 95 q 725 138 664 95 q 786 309 786 181 l 786 663 q 725 838 786 791 q 530 886 663 886 q 280 772 324 886 q 263 663 263 728 l 263 309 q 330 138 263 182 q 530 95 396 95 m 279 30 q 234 52 279 30 q 158 150 190 75 q 126 330 126 225 l 126 638 q 245 930 126 849 q 530 996 342 996 q 912 747 864 996 q 922 629 922 695 l 922 339 q 805 52 922 134 q 539 -15 711 -15 q 279 30 368 -15 z "},"Ó":{"ha":1048,"x_min":126,"x_max":922,"o":"m 488 1106 l 570 1337 l 722 1337 l 560 1106 l 488 1106 m 530 95 q 597 95 530 95 q 725 138 664 95 q 786 309 786 181 l 786 663 q 725 838 786 791 q 530 886 663 886 q 280 772 324 886 q 263 663 263 728 l 263 309 q 330 138 263 182 q 530 95 396 95 m 279 30 q 234 52 279 30 q 158 150 190 75 q 126 330 126 225 l 126 638 q 245 930 126 849 q 530 996 342 996 q 912 747 864 996 q 922 629 922 695 l 922 339 q 805 52 922 134 q 539 -15 711 -15 q 279 30 368 -15 z "},"Ô":{"ha":1048,"x_min":126,"x_max":922,"o":"m 330 1106 l 477 1286 l 578 1286 l 718 1106 l 612 1106 l 528 1224 l 439 1106 l 330 1106 m 530 95 q 597 95 530 95 q 725 138 664 95 q 786 309 786 181 l 786 663 q 725 838 786 791 q 530 886 663 886 q 280 772 324 886 q 263 663 263 728 l 263 309 q 330 138 263 182 q 530 95 396 95 m 279 30 q 234 52 279 30 q 158 150 190 75 q 126 330 126 225 l 126 638 q 245 930 126 849 q 530 996 342 996 q 912 747 864 996 q 922 629 922 695 l 922 339 q 805 52 922 134 q 539 -15 711 -15 q 279 30 368 -15 z "},"Õ":{"ha":1048,"x_min":126,"x_max":922,"o":"m 660 1116 q 610 1179 660 1179 q 548 1142 585 1179 q 449 1106 511 1106 q 355 1143 387 1106 q 323 1261 323 1179 l 389 1261 q 439 1198 389 1198 q 501 1235 464 1198 q 601 1271 538 1271 q 694 1234 663 1271 q 726 1116 726 1198 l 660 1116 m 530 95 q 597 95 530 95 q 725 138 664 95 q 786 309 786 181 l 786 663 q 725 838 786 791 q 530 886 663 886 q 280 772 324 886 q 263 663 263 728 l 263 309 q 330 138 263 182 q 530 95 396 95 m 279 30 q 234 52 279 30 q 158 150 190 75 q 126 330 126 225 l 126 638 q 245 930 126 849 q 530 996 342 996 q 912 747 864 996 q 922 629 922 695 l 922 339 q 805 52 922 134 q 539 -15 711 -15 q 279 30 368 -15 z "},"Ö":{"ha":1048,"x_min":126,"x_max":922,"o":"m 283 1106 l 283 1229 l 423 1229 l 423 1106 l 283 1106 m 625 1106 l 625 1229 l 764 1229 l 764 1106 l 625 1106 m 530 95 q 597 95 530 95 q 725 138 664 95 q 786 309 786 181 l 786 663 q 725 838 786 791 q 530 886 663 886 q 280 772 324 886 q 263 663 263 728 l 263 309 q 330 138 263 182 q 530 95 396 95 m 279 30 q 234 52 279 30 q 158 150 190 75 q 126 330 126 225 l 126 638 q 245 930 126 849 q 530 996 342 996 q 912 747 864 996 q 922 629 922 695 l 922 339 q 805 52 922 134 q 539 -15 711 -15 q 279 30 368 -15 z "},"×":{"ha":660,"x_min":87,"x_max":572,"o":"m 162 146 l 87 233 l 248 391 l 87 547 l 162 635 l 330 471 l 498 635 l 572 547 l 412 391 l 572 233 l 498 146 l 330 311 l 162 146 z "},"Ø":{"ha":1048,"x_min":126,"x_max":922,"o":"m 302 20 q 158 150 195 62 q 126 330 126 225 l 126 638 q 245 930 126 849 q 530 996 342 996 q 659 985 601 996 l 715 1137 l 785 1111 l 731 964 q 912 747 881 907 q 922 629 922 695 l 922 339 q 805 52 922 134 q 539 -15 711 -15 q 374 -1 444 -15 l 325 -132 l 255 -106 l 302 20 m 530 95 q 725 138 664 95 q 786 309 786 181 l 786 663 q 725 838 786 791 q 692 858 711 850 l 413 106 q 530 95 463 95 m 620 879 q 530 886 581 886 q 280 772 324 886 q 263 663 263 728 l 263 309 q 342 131 263 174 l 620 879 z "},"Ù":{"ha":1043,"x_min":136,"x_max":907,"o":"m 486 1106 l 311 1337 l 464 1337 l 557 1106 l 486 1106 m 526 -15 q 182 123 264 -15 q 136 321 136 201 l 136 981 l 273 981 l 273 307 q 449 99 273 122 q 534 95 484 95 q 705 136 639 95 q 770 307 770 176 l 770 981 l 907 981 l 907 321 q 795 50 907 130 q 526 -15 703 -15 z "},"Ú":{"ha":1043,"x_min":136,"x_max":907,"o":"m 486 1106 l 567 1337 l 720 1337 l 557 1106 l 486 1106 m 526 -15 q 182 123 264 -15 q 136 321 136 201 l 136 981 l 273 981 l 273 307 q 449 99 273 122 q 534 95 484 95 q 705 136 639 95 q 770 307 770 176 l 770 981 l 907 981 l 907 321 q 795 50 907 130 q 526 -15 703 -15 z "},"Û":{"ha":1043,"x_min":136,"x_max":907,"o":"m 328 1106 l 474 1286 l 576 1286 l 715 1106 l 610 1106 l 526 1224 l 436 1106 l 328 1106 m 526 -15 q 182 123 264 -15 q 136 321 136 201 l 136 981 l 273 981 l 273 307 q 449 99 273 122 q 534 95 484 95 q 705 136 639 95 q 770 307 770 176 l 770 981 l 907 981 l 907 321 q 795 50 907 130 q 526 -15 703 -15 z "},"Ü":{"ha":1043,"x_min":136,"x_max":907,"o":"m 281 1106 l 281 1229 l 420 1229 l 420 1106 l 281 1106 m 622 1106 l 622 1229 l 762 1229 l 762 1106 l 622 1106 m 526 -15 q 182 123 264 -15 q 136 321 136 201 l 136 981 l 273 981 l 273 307 q 449 99 273 122 q 534 95 484 95 q 705 136 639 95 q 770 307 770 176 l 770 981 l 907 981 l 907 321 q 795 50 907 130 q 526 -15 703 -15 z "},"Ý":{"ha":894,"x_min":33,"x_max":861,"o":"m 411 1106 l 492 1337 l 645 1337 l 483 1106 l 411 1106 m 380 0 l 380 385 l 33 981 l 177 981 l 448 505 l 721 981 l 861 981 l 516 385 l 516 0 l 380 0 z "},"Þ":{"ha":895,"x_min":144,"x_max":808,"o":"m 144 0 l 144 981 l 281 981 l 281 819 l 534 819 q 789 665 738 819 q 808 522 808 606 q 736 289 808 353 q 534 224 664 224 l 281 224 l 281 0 l 144 0 m 281 328 l 536 328 q 647 380 622 328 q 671 490 671 432 q 669 573 671 549 q 635 678 664 640 q 538 715 606 715 l 281 715 l 281 328 z "},"ß":{"ha":869,"x_min":129,"x_max":791,"o":"m 129 0 l 129 748 q 257 973 129 916 q 455 1006 330 1006 q 649 944 581 1006 q 717 770 717 882 q 692 651 717 691 q 612 595 667 611 q 695 556 675 569 q 791 321 791 495 q 683 73 791 146 q 363 0 575 0 l 351 100 q 532 124 482 110 q 672 319 672 164 q 637 458 672 416 q 546 511 603 500 q 407 522 490 522 l 407 618 q 552 654 515 618 q 589 746 589 690 q 550 875 589 846 q 452 903 510 903 q 366 898 395 903 q 310 880 336 893 q 256 767 256 852 l 256 0 l 129 0 z "},"à":{"ha":795,"x_min":90,"x_max":732,"o":"m 375 843 l 201 1074 l 353 1074 l 447 843 l 375 843 m 319 -15 q 150 44 210 -15 q 90 192 90 104 q 111 275 90 242 q 366 405 153 343 q 507 463 488 439 q 528 502 526 488 q 530 546 530 515 q 505 606 530 576 q 397 635 480 635 q 254 590 281 635 q 241 528 241 567 l 241 496 l 118 496 l 118 528 q 188 683 118 633 q 398 732 258 732 q 597 669 538 732 q 657 488 657 606 l 657 182 q 671 109 657 125 q 732 92 686 92 l 718 -5 l 692 -5 q 591 21 624 -5 q 540 102 557 47 q 404 -4 484 18 q 319 -15 366 -15 m 384 318 q 335 304 384 318 q 250 262 287 290 q 213 183 213 234 q 247 107 213 133 q 330 81 281 81 q 418 94 378 81 q 489 131 457 106 q 530 188 520 156 l 530 395 q 384 318 480 346 z "},"á":{"ha":795,"x_min":90,"x_max":732,"o":"m 375 843 l 456 1074 l 609 1074 l 447 843 l 375 843 m 319 -15 q 150 44 210 -15 q 90 192 90 104 q 111 275 90 242 q 366 405 153 343 q 507 463 488 439 q 528 502 526 488 q 530 546 530 515 q 505 606 530 576 q 397 635 480 635 q 254 590 281 635 q 241 528 241 567 l 241 496 l 118 496 l 118 528 q 188 683 118 633 q 398 732 258 732 q 597 669 538 732 q 657 488 657 606 l 657 182 q 671 109 657 125 q 732 92 686 92 l 718 -5 l 692 -5 q 591 21 624 -5 q 540 102 557 47 q 404 -4 484 18 q 319 -15 366 -15 m 384 318 q 335 304 384 318 q 250 262 287 290 q 213 183 213 234 q 247 107 213 133 q 330 81 281 81 q 418 94 378 81 q 489 131 457 106 q 530 188 520 156 l 530 395 q 384 318 480 346 z "},"â":{"ha":795,"x_min":90,"x_max":732,"o":"m 217 843 l 363 1023 l 465 1023 l 605 843 l 499 843 l 415 961 l 326 843 l 217 843 m 319 -15 q 150 44 210 -15 q 90 192 90 104 q 111 275 90 242 q 366 405 153 343 q 507 463 488 439 q 528 502 526 488 q 530 546 530 515 q 505 606 530 576 q 397 635 480 635 q 254 590 281 635 q 241 528 241 567 l 241 496 l 118 496 l 118 528 q 188 683 118 633 q 398 732 258 732 q 597 669 538 732 q 657 488 657 606 l 657 182 q 671 109 657 125 q 732 92 686 92 l 718 -5 l 692 -5 q 591 21 624 -5 q 540 102 557 47 q 404 -4 484 18 q 319 -15 366 -15 m 384 318 q 335 304 384 318 q 250 262 287 290 q 213 183 213 234 q 247 107 213 133 q 330 81 281 81 q 418 94 378 81 q 489 131 457 106 q 530 188 520 156 l 530 395 q 384 318 480 346 z "},"ã":{"ha":795,"x_min":90,"x_max":732,"o":"m 546 852 q 496 916 546 916 q 434 879 471 916 q 335 843 397 843 q 241 880 273 843 q 210 998 210 916 l 275 998 q 326 935 275 935 q 387 971 350 935 q 487 1008 425 1008 q 580 971 549 1008 q 612 852 612 935 l 546 852 m 319 -15 q 150 44 210 -15 q 90 192 90 104 q 111 275 90 242 q 366 405 153 343 q 507 463 488 439 q 528 502 526 488 q 530 546 530 515 q 505 606 530 576 q 397 635 480 635 q 254 590 281 635 q 241 528 241 567 l 241 496 l 118 496 l 118 528 q 188 683 118 633 q 398 732 258 732 q 597 669 538 732 q 657 488 657 606 l 657 182 q 671 109 657 125 q 732 92 686 92 l 718 -5 l 692 -5 q 591 21 624 -5 q 540 102 557 47 q 404 -4 484 18 q 319 -15 366 -15 m 384 318 q 335 304 384 318 q 250 262 287 290 q 213 183 213 234 q 247 107 213 133 q 330 81 281 81 q 418 94 378 81 q 489 131 457 106 q 530 188 520 156 l 530 395 q 384 318 480 346 z "},"ä":{"ha":795,"x_min":90,"x_max":732,"o":"m 171 843 l 171 966 l 311 966 l 311 843 l 171 843 m 512 843 l 512 966 l 652 966 l 652 843 l 512 843 m 319 -15 q 150 44 210 -15 q 90 192 90 104 q 111 275 90 242 q 366 405 153 343 q 507 463 488 439 q 528 502 526 488 q 530 546 530 515 q 505 606 530 576 q 397 635 480 635 q 254 590 281 635 q 241 528 241 567 l 241 496 l 118 496 l 118 528 q 188 683 118 633 q 398 732 258 732 q 597 669 538 732 q 657 488 657 606 l 657 182 q 671 109 657 125 q 732 92 686 92 l 718 -5 l 692 -5 q 591 21 624 -5 q 540 102 557 47 q 404 -4 484 18 q 319 -15 366 -15 m 384 318 q 335 304 384 318 q 250 262 287 290 q 213 183 213 234 q 247 107 213 133 q 330 81 281 81 q 418 94 378 81 q 489 131 457 106 q 530 188 520 156 l 530 395 q 384 318 480 346 z "},"å":{"ha":795,"x_min":90,"x_max":732,"o":"m 337 964 q 411 887 337 887 q 485 964 485 887 q 411 1040 485 1040 q 358 1023 378 1040 q 337 964 337 1005 m 505 874 q 486 858 505 874 q 411 843 467 843 q 317 874 355 843 q 279 964 279 905 q 317 1054 279 1023 q 411 1084 355 1084 q 505 1054 467 1084 q 543 964 543 1023 q 505 874 543 905 m 319 -15 q 150 44 210 -15 q 90 192 90 104 q 111 275 90 242 q 366 405 153 343 q 507 463 488 439 q 528 502 526 488 q 530 546 530 515 q 505 606 530 576 q 397 635 480 635 q 254 590 281 635 q 241 528 241 567 l 241 496 l 118 496 l 118 528 q 188 683 118 633 q 398 732 258 732 q 597 669 538 732 q 657 488 657 606 l 657 182 q 671 109 657 125 q 732 92 686 92 l 718 -5 l 692 -5 q 591 21 624 -5 q 540 102 557 47 q 404 -4 484 18 q 319 -15 366 -15 m 384 318 q 335 304 384 318 q 250 262 287 290 q 213 183 213 234 q 247 107 213 133 q 330 81 281 81 q 418 94 378 81 q 489 131 457 106 q 530 188 520 156 l 530 395 q 384 318 480 346 z "},"æ":{"ha":1181,"x_min":89,"x_max":1091,"o":"m 532 515 q 407 637 532 637 q 256 581 282 637 q 239 505 239 547 l 239 487 l 117 487 l 117 506 q 189 673 117 614 q 400 732 260 732 q 529 708 474 732 q 602 637 583 684 q 806 732 662 732 q 1021 675 950 732 q 1091 514 1091 618 l 1091 347 l 660 347 l 660 222 q 696 116 660 151 q 806 82 732 82 q 899 89 881 82 q 928 102 917 96 q 972 216 966 127 l 1087 216 q 1016 36 1076 85 q 806 -14 955 -14 q 667 18 715 -14 q 595 107 619 49 q 318 -14 496 -14 q 149 45 209 -14 q 89 201 89 104 q 155 345 89 298 q 343 410 221 391 q 492 437 465 429 q 532 515 532 448 m 225 251 q 222 244 225 251 q 215 223 218 237 q 212 181 212 210 q 228 127 212 153 q 342 77 259 77 q 490 127 425 76 q 532 185 523 153 l 532 371 q 423 336 495 349 q 324 316 351 324 q 278 298 296 309 q 246 277 259 288 q 225 251 233 265 m 660 429 l 975 429 l 975 528 q 933 612 975 589 q 812 636 892 636 q 696 608 733 636 q 660 515 660 581 l 660 429 z "},"ç":{"ha":753,"x_min":100,"x_max":673,"o":"m 375 -334 q 312 -328 342 -334 l 312 -263 q 372 -268 336 -268 q 431 -249 407 -268 q 455 -198 455 -229 q 425 -140 455 -168 q 347 -111 395 -113 l 347 -4 l 389 -4 l 393 -68 q 503 -121 464 -81 q 543 -211 543 -161 q 498 -297 543 -261 q 375 -334 454 -334 m 393 -15 q 117 138 172 -15 q 100 233 100 182 l 100 507 q 178 671 100 610 q 389 732 256 732 q 623 659 559 732 q 673 491 673 602 l 551 479 q 517 605 551 576 q 395 635 483 635 q 268 604 308 635 q 228 504 228 574 l 228 222 q 270 115 228 148 q 400 83 312 83 q 517 106 488 83 q 553 210 547 129 l 671 210 q 600 35 661 85 q 393 -15 538 -15 z "},"è":{"ha":785,"x_min":100,"x_max":682,"o":"m 355 843 l 181 1074 l 334 1074 l 427 843 l 355 843 m 399 -15 q 171 51 241 -15 q 100 254 100 117 l 100 504 q 173 671 100 610 q 392 732 245 732 q 611 676 539 732 q 682 514 682 619 l 682 343 l 228 343 l 228 242 q 264 118 228 153 q 393 83 300 83 q 499 87 487 83 q 524 96 511 91 q 542 109 537 102 q 556 132 547 117 q 568 191 564 147 l 681 191 q 658 87 674 127 q 608 25 642 48 q 526 -7 574 1 q 399 -15 478 -15 m 228 429 l 559 429 l 559 528 q 517 612 559 589 q 395 635 475 635 q 271 607 314 635 q 228 515 228 579 l 228 429 z "},"é":{"ha":785,"x_min":100,"x_max":682,"o":"m 355 843 l 437 1074 l 589 1074 l 427 843 l 355 843 m 399 -15 q 171 51 241 -15 q 100 254 100 117 l 100 504 q 173 671 100 610 q 392 732 245 732 q 611 676 539 732 q 682 514 682 619 l 682 343 l 228 343 l 228 242 q 264 118 228 153 q 393 83 300 83 q 499 87 487 83 q 524 96 511 91 q 542 109 537 102 q 556 132 547 117 q 568 191 564 147 l 681 191 q 658 87 674 127 q 608 25 642 48 q 526 -7 574 1 q 399 -15 478 -15 m 228 429 l 559 429 l 559 528 q 517 612 559 589 q 395 635 475 635 q 271 607 314 635 q 228 515 228 579 l 228 429 z "},"ê":{"ha":785,"x_min":100,"x_max":682,"o":"m 197 843 l 344 1023 l 446 1023 l 585 843 l 479 843 l 395 961 l 306 843 l 197 843 m 399 -15 q 171 51 241 -15 q 100 254 100 117 l 100 504 q 173 671 100 610 q 392 732 245 732 q 611 676 539 732 q 682 514 682 619 l 682 343 l 228 343 l 228 242 q 264 118 228 153 q 393 83 300 83 q 499 87 487 83 q 524 96 511 91 q 542 109 537 102 q 556 132 547 117 q 568 191 564 147 l 681 191 q 658 87 674 127 q 608 25 642 48 q 526 -7 574 1 q 399 -15 478 -15 m 228 429 l 559 429 l 559 528 q 517 612 559 589 q 395 635 475 635 q 271 607 314 635 q 228 515 228 579 l 228 429 z "},"ë":{"ha":785,"x_min":100,"x_max":682,"o":"m 151 843 l 151 966 l 290 966 l 290 843 l 151 843 m 492 843 l 492 966 l 631 966 l 631 843 l 492 843 m 399 -15 q 171 51 241 -15 q 100 254 100 117 l 100 504 q 173 671 100 610 q 392 732 245 732 q 611 676 539 732 q 682 514 682 619 l 682 343 l 228 343 l 228 242 q 264 118 228 153 q 393 83 300 83 q 499 87 487 83 q 524 96 511 91 q 542 109 537 102 q 556 132 547 117 q 568 191 564 147 l 681 191 q 658 87 674 127 q 608 25 642 48 q 526 -7 574 1 q 399 -15 478 -15 m 228 429 l 559 429 l 559 528 q 517 612 559 589 q 395 635 475 635 q 271 607 314 635 q 228 515 228 579 l 228 429 z "},"ì":{"ha":404,"x_min":-7,"x_max":267,"o":"m 168 843 l -7 1074 l 146 1074 l 239 843 l 168 843 m 140 0 l 140 719 l 267 719 l 267 0 l 140 0 z "},"í":{"ha":404,"x_min":140,"x_max":401,"o":"m 168 843 l 249 1074 l 401 1074 l 239 843 l 168 843 m 140 0 l 140 719 l 267 719 l 267 0 l 140 0 z "},"î":{"ha":404,"x_min":9,"x_max":397,"o":"m 9 843 l 156 1023 l 258 1023 l 397 843 l 292 843 l 208 961 l 118 843 l 9 843 m 140 0 l 140 719 l 267 719 l 267 0 l 140 0 z "},"ï":{"ha":404,"x_min":-37,"x_max":444,"o":"m -37 843 l -37 966 l 103 966 l 103 843 l -37 843 m 304 843 l 304 966 l 444 966 l 444 843 l 304 843 m 140 0 l 140 719 l 267 719 l 267 0 l 140 0 z "},"ð":{"ha":785,"x_min":102,"x_max":685,"o":"m 398 -14 q 173 47 245 -14 q 102 213 102 107 l 102 438 q 183 601 102 540 q 398 661 264 661 q 473 649 431 661 q 530 625 516 637 q 411 827 505 744 l 265 731 l 219 788 l 349 873 q 165 954 278 919 l 215 1027 q 438 932 342 1000 l 538 999 l 585 942 l 497 884 q 685 363 685 706 l 685 248 q 654 89 685 142 q 398 -14 594 -14 m 398 565 q 229 442 229 565 l 229 209 q 273 111 229 140 q 407 82 317 82 q 527 116 496 82 q 561 206 558 149 q 562 243 562 220 l 562 402 q 546 531 562 446 q 479 555 526 545 q 398 565 432 565 z "},"ñ":{"ha":831,"x_min":126,"x_max":712,"o":"m 554 852 q 504 916 554 916 q 442 879 479 916 q 343 843 405 843 q 249 880 281 843 q 218 998 218 916 l 283 998 q 334 935 283 935 q 395 971 358 935 q 495 1008 433 1008 q 588 971 557 1008 q 620 852 620 935 l 554 852 m 585 530 q 424 635 585 635 q 299 601 345 635 q 254 512 254 567 l 254 0 l 126 0 l 126 719 l 254 719 l 254 649 q 467 732 326 732 q 699 604 650 732 q 712 522 712 567 l 712 0 l 585 0 l 585 530 z "},"ò":{"ha":796,"x_min":100,"x_max":696,"o":"m 362 843 l 188 1074 l 340 1074 l 434 843 l 362 843 m 228 203 q 398 83 228 83 q 568 203 568 83 l 568 514 q 398 635 568 635 q 228 514 228 635 l 228 203 m 696 214 q 624 46 696 108 q 397 -15 551 -15 q 172 46 243 -15 q 100 214 100 107 l 100 503 q 172 671 100 610 q 397 732 243 732 q 624 671 551 732 q 696 503 696 609 l 696 214 z "},"ó":{"ha":796,"x_min":100,"x_max":696,"o":"m 362 843 l 444 1074 l 596 1074 l 434 843 l 362 843 m 228 203 q 398 83 228 83 q 568 203 568 83 l 568 514 q 398 635 568 635 q 228 514 228 635 l 228 203 m 696 214 q 624 46 696 108 q 397 -15 551 -15 q 172 46 243 -15 q 100 214 100 107 l 100 503 q 172 671 100 610 q 397 732 243 732 q 624 671 551 732 q 696 503 696 609 l 696 214 z "},"ô":{"ha":796,"x_min":100,"x_max":696,"o":"m 204 843 l 351 1023 l 452 1023 l 592 843 l 486 843 l 402 961 l 313 843 l 204 843 m 228 203 q 398 83 228 83 q 568 203 568 83 l 568 514 q 398 635 568 635 q 228 514 228 635 l 228 203 m 696 214 q 624 46 696 108 q 397 -15 551 -15 q 172 46 243 -15 q 100 214 100 107 l 100 503 q 172 671 100 610 q 397 732 243 732 q 624 671 551 732 q 696 503 696 609 l 696 214 z "},"õ":{"ha":796,"x_min":100,"x_max":696,"o":"m 534 852 q 484 916 534 916 q 422 879 459 916 q 322 843 385 843 q 229 880 260 843 q 197 998 197 916 l 263 998 q 313 935 263 935 q 375 971 338 935 q 474 1008 412 1008 q 568 971 536 1008 q 600 852 600 935 l 534 852 m 228 203 q 398 83 228 83 q 568 203 568 83 l 568 514 q 398 635 568 635 q 228 514 228 635 l 228 203 m 696 214 q 624 46 696 108 q 397 -15 551 -15 q 172 46 243 -15 q 100 214 100 107 l 100 503 q 172 671 100 610 q 397 732 243 732 q 624 671 551 732 q 696 503 696 609 l 696 214 z "},"ö":{"ha":796,"x_min":100,"x_max":696,"o":"m 157 843 l 157 966 l 297 966 l 297 843 l 157 843 m 498 843 l 498 966 l 638 966 l 638 843 l 498 843 m 228 203 q 398 83 228 83 q 568 203 568 83 l 568 514 q 398 635 568 635 q 228 514 228 635 l 228 203 m 696 214 q 624 46 696 108 q 397 -15 551 -15 q 172 46 243 -15 q 100 214 100 107 l 100 503 q 172 671 100 610 q 397 732 243 732 q 624 671 551 732 q 696 503 696 609 l 696 214 z "},"÷":{"ha":695,"x_min":68,"x_max":627,"o":"m 280 61 l 280 203 l 419 203 l 419 61 l 280 61 m 68 320 l 68 413 l 627 413 l 627 320 l 68 320 m 280 534 l 280 675 l 419 675 l 419 534 l 280 534 z "},"ø":{"ha":796,"x_min":100,"x_max":696,"o":"m 696 214 q 624 46 696 108 q 397 -15 551 -15 q 300 -7 344 -15 l 246 -153 l 184 -132 l 237 9 q 172 46 199 23 q 100 214 100 107 l 100 503 q 172 671 100 610 q 397 732 243 732 q 503 724 456 732 l 550 848 l 611 827 l 566 705 q 624 671 600 692 q 696 503 696 609 l 696 214 m 398 83 q 568 203 568 83 l 568 514 q 528 603 568 573 l 336 87 q 398 83 363 83 m 468 628 q 398 635 437 635 q 228 514 228 635 l 228 203 q 274 110 228 140 l 468 628 z "},"ù":{"ha":830,"x_min":119,"x_max":704,"o":"m 376 843 l 201 1074 l 354 1074 l 448 843 l 376 843 m 367 -15 q 134 115 183 -15 q 119 197 119 153 l 119 719 l 247 719 l 247 196 q 286 113 247 143 q 402 83 325 83 q 528 121 479 83 q 576 210 576 159 l 576 719 l 704 719 l 704 0 l 590 0 l 576 90 q 367 -15 517 -15 z "},"ú":{"ha":830,"x_min":119,"x_max":704,"o":"m 376 843 l 457 1074 l 610 1074 l 448 843 l 376 843 m 367 -15 q 134 115 183 -15 q 119 197 119 153 l 119 719 l 247 719 l 247 196 q 286 113 247 143 q 402 83 325 83 q 528 121 479 83 q 576 210 576 159 l 576 719 l 704 719 l 704 0 l 590 0 l 576 90 q 367 -15 517 -15 z "},"û":{"ha":830,"x_min":119,"x_max":704,"o":"m 218 843 l 364 1023 l 466 1023 l 606 843 l 500 843 l 416 961 l 326 843 l 218 843 m 367 -15 q 134 115 183 -15 q 119 197 119 153 l 119 719 l 247 719 l 247 196 q 286 113 247 143 q 402 83 325 83 q 528 121 479 83 q 576 210 576 159 l 576 719 l 704 719 l 704 0 l 590 0 l 576 90 q 367 -15 517 -15 z "},"ü":{"ha":830,"x_min":119,"x_max":704,"o":"m 171 843 l 171 966 l 311 966 l 311 843 l 171 843 m 512 843 l 512 966 l 652 966 l 652 843 l 512 843 m 367 -15 q 134 115 183 -15 q 119 197 119 153 l 119 719 l 247 719 l 247 196 q 286 113 247 143 q 402 83 325 83 q 528 121 479 83 q 576 210 576 159 l 576 719 l 704 719 l 704 0 l 590 0 l 576 90 q 367 -15 517 -15 z "},"ý":{"ha":758,"x_min":52,"x_max":719,"o":"m 349 843 l 431 1074 l 583 1074 l 421 843 l 349 843 m 134 -275 l 134 -176 q 270 -134 218 -176 q 348 3 322 -93 l 52 719 l 186 719 l 406 146 l 590 719 l 719 719 l 483 31 q 398 -158 436 -106 q 326 -232 361 -211 q 134 -275 255 -275 z "},"þ":{"ha":810,"x_min":120,"x_max":708,"o":"m 120 -277 l 121 1021 l 248 1021 l 248 674 q 330 714 279 698 q 433 730 380 730 q 637 666 567 730 q 708 494 708 602 l 708 233 q 631 53 708 122 q 417 -16 554 -16 q 248 23 325 -16 l 248 -277 l 120 -277 m 248 121 q 404 79 322 79 q 533 117 486 79 q 581 220 581 155 l 581 503 q 534 600 581 566 q 421 633 487 633 q 308 607 355 633 q 248 559 262 580 l 248 121 z "},"ÿ":{"ha":758,"x_min":52,"x_max":719,"o":"m 145 843 l 145 966 l 285 966 l 285 843 l 145 843 m 486 843 l 486 966 l 626 966 l 626 843 l 486 843 m 134 -275 l 134 -176 q 270 -134 218 -176 q 348 3 322 -93 l 52 719 l 186 719 l 406 146 l 590 719 l 719 719 l 483 31 q 398 -158 436 -106 q 326 -232 361 -211 q 134 -275 255 -275 z "},"Ā":{"ha":968,"x_min":58,"x_max":910,"o":"m 349 1106 l 349 1209 l 621 1209 l 621 1106 l 349 1106 m 58 0 l 424 981 l 544 981 l 910 0 l 771 0 l 705 191 l 267 191 l 200 0 l 58 0 m 300 288 l 673 288 l 488 825 l 300 288 z "},"ā":{"ha":795,"x_min":90,"x_max":732,"o":"m 275 843 l 275 946 l 547 946 l 547 843 l 275 843 m 319 -15 q 150 44 210 -15 q 90 192 90 104 q 111 275 90 242 q 366 405 153 343 q 507 463 488 439 q 528 502 526 488 q 530 546 530 515 q 505 606 530 576 q 397 635 480 635 q 254 590 281 635 q 241 528 241 567 l 241 496 l 118 496 l 118 528 q 188 683 118 633 q 398 732 258 732 q 597 669 538 732 q 657 488 657 606 l 657 182 q 671 109 657 125 q 732 92 686 92 l 718 -5 l 692 -5 q 591 21 624 -5 q 540 102 557 47 q 404 -4 484 18 q 319 -15 366 -15 m 384 318 q 335 304 384 318 q 250 262 287 290 q 213 183 213 234 q 247 107 213 133 q 330 81 281 81 q 418 94 378 81 q 489 131 457 106 q 530 188 520 156 l 530 395 q 384 318 480 346 z "},"Ă":{"ha":968,"x_min":58,"x_max":910,"o":"m 595 1148 q 574 1127 595 1148 q 484 1106 553 1106 q 373 1148 416 1106 q 331 1250 331 1190 l 402 1250 q 426 1194 402 1216 q 485 1171 449 1171 q 544 1193 522 1171 q 566 1250 566 1215 l 637 1250 q 595 1148 637 1190 m 58 0 l 424 981 l 544 981 l 910 0 l 771 0 l 705 191 l 267 191 l 200 0 l 58 0 m 300 288 l 673 288 l 488 825 l 300 288 z "},"ă":{"ha":795,"x_min":90,"x_max":732,"o":"m 522 885 q 501 864 522 885 q 411 843 479 843 q 300 885 342 843 q 258 987 258 926 l 329 987 q 352 930 329 953 q 412 908 376 908 q 471 930 448 908 q 493 987 493 951 l 564 987 q 522 885 564 926 m 319 -15 q 150 44 210 -15 q 90 192 90 104 q 111 275 90 242 q 366 405 153 343 q 507 463 488 439 q 528 502 526 488 q 530 546 530 515 q 505 606 530 576 q 397 635 480 635 q 254 590 281 635 q 241 528 241 567 l 241 496 l 118 496 l 118 528 q 188 683 118 633 q 398 732 258 732 q 597 669 538 732 q 657 488 657 606 l 657 182 q 671 109 657 125 q 732 92 686 92 l 718 -5 l 692 -5 q 591 21 624 -5 q 540 102 557 47 q 404 -4 484 18 q 319 -15 366 -15 m 384 318 q 335 304 384 318 q 250 262 287 290 q 213 183 213 234 q 247 107 213 133 q 330 81 281 81 q 418 94 378 81 q 489 131 457 106 q 530 188 520 156 l 530 395 q 384 318 480 346 z "},"Ą":{"ha":968,"x_min":58,"x_max":910,"o":"m 890 -325 q 746 -289 800 -325 q 692 -193 692 -253 q 815 5 692 -100 l 857 5 q 799 -77 823 -28 q 776 -168 776 -125 q 890 -259 776 -259 l 890 -325 m 58 0 l 424 981 l 544 981 l 910 0 l 771 0 l 705 191 l 267 191 l 200 0 l 58 0 m 300 288 l 673 288 l 488 825 l 300 288 z "},"ą":{"ha":795,"x_min":90,"x_max":743,"o":"m 743 -330 q 598 -294 652 -330 q 544 -197 544 -258 q 667 0 544 -104 l 709 0 q 651 -82 675 -33 q 628 -173 628 -130 q 743 -264 628 -264 l 743 -330 m 319 -15 q 150 44 210 -15 q 90 192 90 104 q 111 275 90 242 q 366 405 153 343 q 507 463 488 439 q 528 502 526 488 q 530 546 530 515 q 505 606 530 576 q 397 635 480 635 q 254 590 281 635 q 241 528 241 567 l 241 496 l 118 496 l 118 528 q 188 683 118 633 q 398 732 258 732 q 597 669 538 732 q 657 488 657 606 l 657 182 q 671 109 657 125 q 732 92 686 92 l 718 -5 l 692 -5 q 591 21 624 -5 q 540 102 557 47 q 404 -4 484 18 q 319 -15 366 -15 m 384 318 q 335 304 384 318 q 250 262 287 290 q 213 183 213 234 q 247 107 213 133 q 330 81 281 81 q 418 94 378 81 q 489 131 457 106 q 530 188 520 156 l 530 395 q 384 318 480 346 z "},"Ć":{"ha":987,"x_min":123,"x_max":882,"o":"m 467 1106 l 548 1337 l 701 1337 l 538 1106 l 467 1106 m 268 30 q 225 52 268 30 q 153 149 182 74 q 123 330 123 224 l 123 637 q 235 930 123 852 q 509 996 329 996 q 770 946 689 996 q 872 789 852 896 q 882 676 882 742 l 752 665 q 735 799 752 764 q 702 848 718 833 q 647 874 685 863 q 528 886 609 886 q 401 875 448 886 q 323 840 355 865 q 260 663 260 791 l 260 309 q 323 138 260 181 q 525 95 387 95 q 701 127 663 95 q 747 222 739 160 q 752 304 752 256 l 882 304 q 839 96 882 156 q 540 -15 760 -15 q 268 30 355 -15 z "},"ć":{"ha":753,"x_min":100,"x_max":673,"o":"m 351 843 l 432 1074 l 585 1074 l 422 843 l 351 843 m 393 -15 q 117 138 172 -15 q 100 233 100 182 l 100 507 q 178 671 100 610 q 389 732 256 732 q 623 659 559 732 q 673 491 673 602 l 551 479 q 517 605 551 576 q 395 635 483 635 q 268 604 308 635 q 228 504 228 574 l 228 222 q 270 115 228 148 q 400 83 312 83 q 517 106 488 83 q 553 210 547 129 l 671 210 q 600 35 661 85 q 393 -15 538 -15 z "},"Ĉ":{"ha":987,"x_min":123,"x_max":882,"o":"m 309 1106 l 455 1286 l 557 1286 l 696 1106 l 591 1106 l 507 1224 l 417 1106 l 309 1106 m 268 30 q 225 52 268 30 q 153 149 182 74 q 123 330 123 224 l 123 637 q 235 930 123 852 q 509 996 329 996 q 770 946 689 996 q 872 789 852 896 q 882 676 882 742 l 752 665 q 735 799 752 764 q 702 848 718 833 q 647 874 685 863 q 528 886 609 886 q 401 875 448 886 q 323 840 355 865 q 260 663 260 791 l 260 309 q 323 138 260 181 q 525 95 387 95 q 701 127 663 95 q 747 222 739 160 q 752 304 752 256 l 882 304 q 839 96 882 156 q 540 -15 760 -15 q 268 30 355 -15 z "},"ĉ":{"ha":753,"x_min":100,"x_max":673,"o":"m 193 843 l 339 1023 l 441 1023 l 581 843 l 475 843 l 391 961 l 301 843 l 193 843 m 393 -15 q 117 138 172 -15 q 100 233 100 182 l 100 507 q 178 671 100 610 q 389 732 256 732 q 623 659 559 732 q 673 491 673 602 l 551 479 q 517 605 551 576 q 395 635 483 635 q 268 604 308 635 q 228 504 228 574 l 228 222 q 270 115 228 148 q 400 83 312 83 q 517 106 488 83 q 553 210 547 129 l 671 210 q 600 35 661 85 q 393 -15 538 -15 z "},"Ċ":{"ha":987,"x_min":123,"x_max":882,"o":"m 433 1106 l 433 1246 l 572 1246 l 572 1106 l 433 1106 m 268 30 q 225 52 268 30 q 153 149 182 74 q 123 330 123 224 l 123 637 q 235 930 123 852 q 509 996 329 996 q 770 946 689 996 q 872 789 852 896 q 882 676 882 742 l 752 665 q 735 799 752 764 q 702 848 718 833 q 647 874 685 863 q 528 886 609 886 q 401 875 448 886 q 323 840 355 865 q 260 663 260 791 l 260 309 q 323 138 260 181 q 525 95 387 95 q 701 127 663 95 q 747 222 739 160 q 752 304 752 256 l 882 304 q 839 96 882 156 q 540 -15 760 -15 q 268 30 355 -15 z "},"ċ":{"ha":753,"x_min":100,"x_max":673,"o":"m 317 843 l 317 983 l 456 983 l 456 843 l 317 843 m 393 -15 q 117 138 172 -15 q 100 233 100 182 l 100 507 q 178 671 100 610 q 389 732 256 732 q 623 659 559 732 q 673 491 673 602 l 551 479 q 517 605 551 576 q 395 635 483 635 q 268 604 308 635 q 228 504 228 574 l 228 222 q 270 115 228 148 q 400 83 312 83 q 517 106 488 83 q 553 210 547 129 l 671 210 q 600 35 661 85 q 393 -15 538 -15 z "},"Č":{"ha":987,"x_min":123,"x_max":882,"o":"m 448 1106 l 309 1286 l 414 1286 l 498 1168 l 587 1286 l 696 1286 l 549 1106 l 448 1106 m 268 30 q 225 52 268 30 q 153 149 182 74 q 123 330 123 224 l 123 637 q 235 930 123 852 q 509 996 329 996 q 770 946 689 996 q 872 789 852 896 q 882 676 882 742 l 752 665 q 735 799 752 764 q 702 848 718 833 q 647 874 685 863 q 528 886 609 886 q 401 875 448 886 q 323 840 355 865 q 260 663 260 791 l 260 309 q 323 138 260 181 q 525 95 387 95 q 701 127 663 95 q 747 222 739 160 q 752 304 752 256 l 882 304 q 839 96 882 156 q 540 -15 760 -15 q 268 30 355 -15 z "},"č":{"ha":753,"x_min":100,"x_max":673,"o":"m 332 843 l 193 1023 l 298 1023 l 382 905 l 471 1023 l 581 1023 l 433 843 l 332 843 m 393 -15 q 117 138 172 -15 q 100 233 100 182 l 100 507 q 178 671 100 610 q 389 732 256 732 q 623 659 559 732 q 673 491 673 602 l 551 479 q 517 605 551 576 q 395 635 483 635 q 268 604 308 635 q 228 504 228 574 l 228 222 q 270 115 228 148 q 400 83 312 83 q 517 106 488 83 q 553 210 547 129 l 671 210 q 600 35 661 85 q 393 -15 538 -15 z "},"Ď":{"ha":1032,"x_min":148,"x_max":909,"o":"m 473 1106 l 334 1286 l 439 1286 l 524 1168 l 613 1286 l 722 1286 l 575 1106 l 473 1106 m 285 102 l 525 102 q 723 157 673 102 q 772 313 772 212 l 772 659 q 672 853 772 808 q 525 878 615 879 l 285 878 l 285 102 m 148 0 l 148 981 l 537 981 q 888 781 819 981 q 909 650 909 723 l 909 327 q 816 83 909 166 q 538 0 724 0 l 148 0 z "},"ď":{"ha":814,"x_min":100,"x_max":1027,"o":"m 911 634 l 856 664 q 940 801 922 744 q 949 863 949 832 l 853 863 l 853 1021 l 1027 1021 l 1027 897 q 946 673 1027 780 q 911 634 928 650 m 401 732 q 560 705 488 732 l 560 1021 l 688 1021 l 688 0 l 601 0 l 580 47 q 492 3 547 22 q 385 -15 438 -15 q 169 51 238 -15 q 100 227 100 116 l 100 498 q 174 671 100 610 q 401 732 248 732 m 228 218 q 274 119 228 153 q 381 85 319 85 q 560 128 491 85 l 560 605 q 410 635 498 635 q 228 513 228 635 l 228 218 z "},"Đ":{"ha":824,"x_min":52,"x_max":909,"o":"m 285 102 l 525 102 q 723 157 673 102 q 772 313 772 212 l 772 659 q 672 853 772 808 q 525 878 615 879 l 285 878 l 285 576 l 528 576 l 528 473 l 285 473 l 285 102 m 52 473 l 52 576 l 148 576 l 148 981 l 537 981 q 888 781 819 981 q 909 650 909 723 l 909 327 q 816 83 909 166 q 538 0 724 0 l 148 0 l 148 473 l 52 473 z "},"đ":{"ha":814,"x_min":100,"x_max":798,"o":"m 228 218 q 274 119 228 153 q 381 85 319 85 q 560 128 491 85 l 560 605 q 410 635 498 635 q 228 513 228 635 l 228 218 m 401 732 q 560 705 488 732 l 560 847 l 313 847 l 313 931 l 560 931 l 560 1021 l 688 1021 l 688 931 l 798 931 l 798 847 l 688 847 l 688 0 l 601 0 l 580 47 q 492 3 547 22 q 385 -15 438 -15 q 169 51 238 -15 q 100 227 100 116 l 100 498 q 174 671 100 610 q 401 732 248 732 z "},"Ē":{"ha":851,"x_min":148,"x_max":768,"o":"m 322 1106 l 322 1209 l 594 1209 l 594 1106 l 322 1106 m 148 0 l 148 981 l 760 981 l 760 879 l 284 879 l 284 556 l 705 556 l 705 454 l 284 454 l 284 102 l 768 102 l 768 0 l 148 0 z "},"ē":{"ha":785,"x_min":100,"x_max":682,"o":"m 255 843 l 255 946 l 527 946 l 527 843 l 255 843 m 399 -15 q 171 51 241 -15 q 100 254 100 117 l 100 504 q 173 671 100 610 q 392 732 245 732 q 611 676 539 732 q 682 514 682 619 l 682 343 l 228 343 l 228 242 q 264 118 228 153 q 393 83 300 83 q 499 87 487 83 q 524 96 511 91 q 542 109 537 102 q 556 132 547 117 q 568 191 564 147 l 681 191 q 658 87 674 127 q 608 25 642 48 q 526 -7 574 1 q 399 -15 478 -15 m 228 429 l 559 429 l 559 528 q 517 612 559 589 q 395 635 475 635 q 271 607 314 635 q 228 515 228 579 l 228 429 z "},"Ĕ":{"ha":851,"x_min":148,"x_max":768,"o":"m 569 1148 q 548 1127 569 1148 q 458 1106 527 1106 q 348 1148 390 1106 q 305 1250 305 1190 l 376 1250 q 400 1194 376 1216 q 459 1171 423 1171 q 518 1193 496 1171 q 541 1250 541 1215 l 612 1250 q 569 1148 612 1190 m 148 0 l 148 981 l 760 981 l 760 879 l 284 879 l 284 556 l 705 556 l 705 454 l 284 454 l 284 102 l 768 102 l 768 0 l 148 0 z "},"ĕ":{"ha":785,"x_min":100,"x_max":682,"o":"m 502 885 q 481 864 502 885 q 391 843 460 843 q 280 885 323 843 q 238 987 238 926 l 309 987 q 333 930 309 953 q 392 908 356 908 q 451 930 429 908 q 473 987 473 951 l 545 987 q 502 885 545 926 m 399 -15 q 171 51 241 -15 q 100 254 100 117 l 100 504 q 173 671 100 610 q 392 732 245 732 q 611 676 539 732 q 682 514 682 619 l 682 343 l 228 343 l 228 242 q 264 118 228 153 q 393 83 300 83 q 499 87 487 83 q 524 96 511 91 q 542 109 537 102 q 556 132 547 117 q 568 191 564 147 l 681 191 q 658 87 674 127 q 608 25 642 48 q 526 -7 574 1 q 399 -15 478 -15 m 228 429 l 559 429 l 559 528 q 517 612 559 589 q 395 635 475 635 q 271 607 314 635 q 228 515 228 579 l 228 429 z "},"Ė":{"ha":851,"x_min":148,"x_max":768,"o":"m 389 1106 l 389 1246 l 528 1246 l 528 1106 l 389 1106 m 148 0 l 148 981 l 760 981 l 760 879 l 284 879 l 284 556 l 705 556 l 705 454 l 284 454 l 284 102 l 768 102 l 768 0 l 148 0 z "},"ė":{"ha":785,"x_min":100,"x_max":682,"o":"m 321 843 l 321 983 l 460 983 l 460 843 l 321 843 m 399 -15 q 171 51 241 -15 q 100 254 100 117 l 100 504 q 173 671 100 610 q 392 732 245 732 q 611 676 539 732 q 682 514 682 619 l 682 343 l 228 343 l 228 242 q 264 118 228 153 q 393 83 300 83 q 499 87 487 83 q 524 96 511 91 q 542 109 537 102 q 556 132 547 117 q 568 191 564 147 l 681 191 q 658 87 674 127 q 608 25 642 48 q 526 -7 574 1 q 399 -15 478 -15 m 228 429 l 559 429 l 559 528 q 517 612 559 589 q 395 635 475 635 q 271 607 314 635 q 228 515 228 579 l 228 429 z "},"Ę":{"ha":851,"x_min":148,"x_max":768,"o":"m 596 -319 q 451 -283 505 -319 q 397 -186 397 -247 q 521 11 397 -94 l 563 11 q 505 -71 528 -22 q 481 -162 481 -119 q 596 -253 481 -253 l 596 -319 m 148 0 l 148 981 l 760 981 l 760 879 l 284 879 l 284 556 l 705 556 l 705 454 l 284 454 l 284 102 l 768 102 l 768 0 l 148 0 z "},"ę":{"ha":785,"x_min":100,"x_max":682,"o":"m 521 -336 q 376 -300 430 -336 q 322 -203 322 -264 q 446 -6 322 -111 l 488 -6 q 430 -88 453 -39 q 406 -179 406 -136 q 521 -270 406 -270 l 521 -336 m 399 -15 q 171 51 241 -15 q 100 254 100 117 l 100 504 q 173 671 100 610 q 392 732 245 732 q 611 676 539 732 q 682 514 682 619 l 682 343 l 228 343 l 228 242 q 264 118 228 153 q 393 83 300 83 q 499 87 487 83 q 524 96 511 91 q 542 109 537 102 q 556 132 547 117 q 568 191 564 147 l 681 191 q 658 87 674 127 q 608 25 642 48 q 526 -7 574 1 q 399 -15 478 -15 m 228 429 l 559 429 l 559 528 q 517 612 559 589 q 395 635 475 635 q 271 607 314 635 q 228 515 228 579 l 228 429 z "},"Ě":{"ha":851,"x_min":148,"x_max":768,"o":"m 404 1106 l 264 1286 l 370 1286 l 454 1168 l 543 1286 l 652 1286 l 505 1106 l 404 1106 m 148 0 l 148 981 l 760 981 l 760 879 l 284 879 l 284 556 l 705 556 l 705 454 l 284 454 l 284 102 l 768 102 l 768 0 l 148 0 z "},"ě":{"ha":785,"x_min":100,"x_max":682,"o":"m 336 843 l 197 1023 l 302 1023 l 387 905 l 476 1023 l 585 1023 l 438 843 l 336 843 m 399 -15 q 171 51 241 -15 q 100 254 100 117 l 100 504 q 173 671 100 610 q 392 732 245 732 q 611 676 539 732 q 682 514 682 619 l 682 343 l 228 343 l 228 242 q 264 118 228 153 q 393 83 300 83 q 499 87 487 83 q 524 96 511 91 q 542 109 537 102 q 556 132 547 117 q 568 191 564 147 l 681 191 q 658 87 674 127 q 608 25 642 48 q 526 -7 574 1 q 399 -15 478 -15 m 228 429 l 559 429 l 559 528 q 517 612 559 589 q 395 635 475 635 q 271 607 314 635 q 228 515 228 579 l 228 429 z "},"Ĝ":{"ha":1055,"x_min":126,"x_max":922,"o":"m 330 1106 l 477 1286 l 578 1286 l 718 1106 l 612 1106 l 528 1224 l 439 1106 l 330 1106 m 534 -15 q 176 121 260 -15 q 126 330 126 200 l 126 637 q 248 930 126 847 q 521 996 345 996 q 778 956 696 996 q 886 850 860 916 q 911 689 911 784 l 787 679 q 768 807 787 774 q 732 852 749 839 q 674 876 715 866 q 550 886 633 886 q 419 875 467 886 q 335 840 372 865 q 263 663 263 790 l 263 309 q 332 138 263 181 q 533 95 400 95 q 726 137 667 95 q 785 309 785 180 l 785 399 l 553 399 l 553 498 l 922 498 l 922 0 l 848 0 l 831 167 q 746 34 818 82 q 534 -15 673 -15 z "},"ĝ":{"ha":804,"x_min":100,"x_max":685,"o":"m 199 843 l 345 1023 l 447 1023 l 587 843 l 481 843 l 397 961 l 307 843 l 199 843 m 200 -154 q 373 -180 271 -180 q 516 -141 475 -180 q 557 -21 557 -102 l 557 79 q 474 40 530 53 q 373 27 419 27 q 100 257 100 27 l 100 494 q 169 669 100 606 q 373 732 237 732 q 485 710 427 732 q 557 661 542 687 l 557 719 l 685 719 l 685 17 q 617 -195 685 -113 q 397 -277 549 -277 q 172 -250 245 -277 l 200 -154 m 557 536 q 393 635 557 635 q 228 507 228 635 l 228 237 q 393 125 228 125 q 557 179 490 125 l 557 536 z "},"Ğ":{"ha":1055,"x_min":126,"x_max":922,"o":"m 635 1148 q 614 1127 635 1148 q 524 1106 593 1106 q 413 1148 456 1106 q 371 1250 371 1190 l 442 1250 q 466 1194 442 1216 q 525 1171 489 1171 q 584 1193 562 1171 q 606 1250 606 1215 l 677 1250 q 635 1148 677 1190 m 534 -15 q 176 121 260 -15 q 126 330 126 200 l 126 637 q 248 930 126 847 q 521 996 345 996 q 778 956 696 996 q 886 850 860 916 q 911 689 911 784 l 787 679 q 768 807 787 774 q 732 852 749 839 q 674 876 715 866 q 550 886 633 886 q 419 875 467 886 q 335 840 372 865 q 263 663 263 790 l 263 309 q 332 138 263 181 q 533 95 400 95 q 726 137 667 95 q 785 309 785 180 l 785 399 l 553 399 l 553 498 l 922 498 l 922 0 l 848 0 l 831 167 q 746 34 818 82 q 534 -15 673 -15 z "},"ğ":{"ha":804,"x_min":100,"x_max":685,"o":"m 504 885 q 482 864 504 885 q 393 843 461 843 q 282 885 324 843 q 239 987 239 926 l 311 987 q 334 930 311 953 q 394 908 357 908 q 452 930 430 908 q 475 987 475 951 l 546 987 q 504 885 546 926 m 200 -154 q 373 -180 271 -180 q 516 -141 475 -180 q 557 -21 557 -102 l 557 79 q 474 40 530 53 q 373 27 419 27 q 100 257 100 27 l 100 494 q 169 669 100 606 q 373 732 237 732 q 485 710 427 732 q 557 661 542 687 l 557 719 l 685 719 l 685 17 q 617 -195 685 -113 q 397 -277 549 -277 q 172 -250 245 -277 l 200 -154 m 557 536 q 393 635 557 635 q 228 507 228 635 l 228 237 q 393 125 228 125 q 557 179 490 125 l 557 536 z "},"Ġ":{"ha":1055,"x_min":126,"x_max":922,"o":"m 454 1106 l 454 1246 l 593 1246 l 593 1106 l 454 1106 m 534 -15 q 176 121 260 -15 q 126 330 126 200 l 126 637 q 248 930 126 847 q 521 996 345 996 q 778 956 696 996 q 886 850 860 916 q 911 689 911 784 l 787 679 q 768 807 787 774 q 732 852 749 839 q 674 876 715 866 q 550 886 633 886 q 419 875 467 886 q 335 840 372 865 q 263 663 263 790 l 263 309 q 332 138 263 181 q 533 95 400 95 q 726 137 667 95 q 785 309 785 180 l 785 399 l 553 399 l 553 498 l 922 498 l 922 0 l 848 0 l 831 167 q 746 34 818 82 q 534 -15 673 -15 z "},"ġ":{"ha":804,"x_min":100,"x_max":685,"o":"m 323 843 l 323 983 l 462 983 l 462 843 l 323 843 m 200 -154 q 373 -180 271 -180 q 516 -141 475 -180 q 557 -21 557 -102 l 557 79 q 474 40 530 53 q 373 27 419 27 q 100 257 100 27 l 100 494 q 169 669 100 606 q 373 732 237 732 q 485 710 427 732 q 557 661 542 687 l 557 719 l 685 719 l 685 17 q 617 -195 685 -113 q 397 -277 549 -277 q 172 -250 245 -277 l 200 -154 m 557 536 q 393 635 557 635 q 228 507 228 635 l 228 237 q 393 125 228 125 q 557 179 490 125 l 557 536 z "},"Ģ":{"ha":1055,"x_min":126,"x_max":922,"o":"m 494 -513 l 439 -483 q 524 -346 506 -403 q 532 -283 533 -315 l 437 -283 l 437 -125 l 611 -125 l 611 -250 q 530 -473 611 -367 q 494 -513 512 -496 m 534 -15 q 176 121 260 -15 q 126 330 126 200 l 126 637 q 248 930 126 847 q 521 996 345 996 q 778 956 696 996 q 886 850 860 916 q 911 689 911 784 l 787 679 q 768 807 787 774 q 732 852 749 839 q 674 876 715 866 q 550 886 633 886 q 419 875 467 886 q 335 840 372 865 q 263 663 263 790 l 263 309 q 332 138 263 181 q 533 95 400 95 q 726 137 667 95 q 785 309 785 180 l 785 399 l 553 399 l 553 498 l 922 498 l 922 0 l 848 0 l 831 167 q 746 34 818 82 q 534 -15 673 -15 z "},"ģ":{"ha":804,"x_min":100,"x_max":685,"o":"m 200 -154 q 373 -180 271 -180 q 516 -141 475 -180 q 557 -21 557 -102 l 557 79 q 474 40 530 53 q 373 27 419 27 q 100 257 100 27 l 100 494 q 169 669 100 606 q 373 732 237 732 q 485 710 427 732 q 557 661 542 687 l 557 719 l 685 719 l 685 17 q 617 -195 685 -113 q 397 -277 549 -277 q 172 -250 245 -277 l 200 -154 m 557 536 q 393 635 557 635 q 228 507 228 635 l 228 237 q 393 125 228 125 q 557 179 490 125 l 557 536 m 472 1228 l 527 1198 q 443 1061 460 1118 q 434 999 433 1030 l 530 999 l 530 841 l 355 841 l 355 965 q 437 1189 355 1082 q 472 1228 454 1212 z "},"Ĥ":{"ha":1036,"x_min":144,"x_max":892,"o":"m 324 1106 l 471 1286 l 572 1286 l 712 1106 l 606 1106 l 522 1224 l 433 1106 l 324 1106 m 144 0 l 144 981 l 280 981 l 280 547 l 756 547 l 756 981 l 892 981 l 892 0 l 756 0 l 756 447 l 280 447 l 280 0 l 144 0 z "},"ĥ":{"ha":831,"x_min":126,"x_max":712,"o":"m 225 1131 l 372 1312 l 473 1312 l 613 1131 l 507 1131 l 423 1249 l 334 1131 l 225 1131 m 585 531 q 425 635 585 635 q 299 602 345 635 q 254 514 254 568 l 254 0 l 126 0 l 126 1021 l 254 1021 l 254 651 q 468 732 323 732 q 699 605 651 732 q 712 524 712 568 l 712 0 l 585 0 l 585 531 z "},"Ħ":{"ha":1042,"x_min":98,"x_max":944,"o":"m 98 719 l 98 803 l 144 803 l 144 981 l 280 981 l 280 803 l 756 803 l 756 981 l 892 981 l 892 803 l 944 803 l 944 719 l 892 719 l 892 0 l 756 0 l 756 447 l 280 447 l 280 0 l 144 0 l 144 719 l 98 719 m 280 719 l 280 547 l 756 547 l 756 719 l 280 719 z "},"ħ":{"ha":830,"x_min":20,"x_max":712,"o":"m 585 531 q 425 635 585 635 q 299 602 345 635 q 254 514 254 568 l 254 0 l 126 0 l 126 847 l 20 847 l 20 931 l 126 931 l 126 1021 l 254 1021 l 254 931 l 572 931 l 572 847 l 254 847 l 254 651 q 468 732 323 732 q 699 605 651 732 q 712 524 712 568 l 712 0 l 585 0 l 585 531 z "},"Ĩ":{"ha":768,"x_min":129,"x_max":639,"o":"m 519 1116 q 469 1179 519 1179 q 407 1142 444 1179 q 308 1106 370 1106 q 214 1143 245 1106 q 182 1261 182 1179 l 248 1261 q 298 1198 248 1198 q 360 1235 323 1198 q 459 1271 397 1271 q 553 1234 522 1271 q 585 1116 585 1198 l 519 1116 m 129 0 l 129 102 l 316 102 l 316 880 l 129 880 l 129 981 l 639 981 l 639 880 l 452 880 l 452 102 l 639 102 l 639 0 l 129 0 z "},"ĩ":{"ha":404,"x_min":2,"x_max":404,"o":"m 338 852 q 288 916 338 916 q 227 879 264 916 q 127 843 189 843 q 34 880 65 843 q 2 998 2 916 l 68 998 q 118 935 68 935 q 180 971 142 935 q 279 1008 217 1008 q 373 971 341 1008 q 404 852 404 935 l 338 852 m 140 0 l 140 719 l 267 719 l 267 0 l 140 0 z "},"Ī":{"ha":768,"x_min":129,"x_max":639,"o":"m 248 1106 l 248 1209 l 520 1209 l 520 1106 l 248 1106 m 129 0 l 129 102 l 316 102 l 316 880 l 129 880 l 129 981 l 639 981 l 639 880 l 452 880 l 452 102 l 639 102 l 639 0 l 129 0 z "},"ī":{"ha":404,"x_min":68,"x_max":340,"o":"m 68 843 l 68 946 l 340 946 l 340 843 l 68 843 m 140 0 l 140 719 l 267 719 l 267 0 l 140 0 z "},"Ĭ":{"ha":768,"x_min":129,"x_max":639,"o":"m 495 1148 q 474 1127 495 1148 q 384 1106 452 1106 q 273 1148 315 1106 q 231 1250 231 1190 l 302 1250 q 325 1194 302 1216 q 385 1171 349 1171 q 444 1193 421 1171 q 466 1250 466 1215 l 537 1250 q 495 1148 537 1190 m 129 0 l 129 102 l 316 102 l 316 880 l 129 880 l 129 981 l 639 981 l 639 880 l 452 880 l 452 102 l 639 102 l 639 0 l 129 0 z "},"ĭ":{"ha":404,"x_min":50,"x_max":357,"o":"m 314 885 q 293 864 314 885 q 203 843 272 843 q 93 885 135 843 q 50 987 50 926 l 121 987 q 145 930 121 953 q 204 908 168 908 q 263 930 241 908 q 286 987 286 951 l 357 987 q 314 885 357 926 m 140 0 l 140 719 l 267 719 l 267 0 l 140 0 z "},"Į":{"ha":768,"x_min":129,"x_max":639,"o":"m 491 -319 q 346 -283 400 -319 q 292 -186 292 -247 q 416 11 292 -94 l 458 11 q 400 -71 423 -22 q 376 -162 376 -119 q 491 -253 376 -253 l 491 -319 m 129 0 l 129 102 l 316 102 l 316 880 l 129 880 l 129 981 l 639 981 l 639 880 l 452 880 l 452 102 l 639 102 l 639 0 l 129 0 z "},"į":{"ha":404,"x_min":83,"x_max":282,"o":"m 282 -319 q 137 -283 191 -319 q 83 -186 83 -247 q 207 11 83 -94 l 249 11 q 191 -71 214 -22 q 168 -162 168 -119 q 282 -253 168 -253 l 282 -319 m 140 0 l 140 719 l 267 719 l 267 0 l 140 0 m 140 848 l 140 981 l 267 981 l 267 848 l 140 848 z "},"İ":{"ha":768,"x_min":129,"x_max":639,"o":"m 315 1106 l 315 1246 l 454 1246 l 454 1106 l 315 1106 m 129 0 l 129 102 l 316 102 l 316 880 l 129 880 l 129 981 l 639 981 l 639 880 l 452 880 l 452 102 l 639 102 l 639 0 l 129 0 z "},"ı":{"ha":404,"x_min":140,"x_max":267,"o":"m 140 0 l 140 719 l 267 719 l 267 0 l 140 0 z "},"Ĳ":{"ha":1586,"x_min":129,"x_max":1438,"o":"m 1122 -12 q 960 8 1044 -12 q 837 47 876 27 l 874 153 q 981 118 909 136 q 1118 100 1053 100 q 1257 149 1213 100 q 1301 295 1301 198 l 1301 869 l 926 869 l 926 981 l 1438 981 l 1438 292 q 1360 68 1438 148 q 1122 -12 1282 -12 m 129 0 l 129 102 l 316 102 l 316 880 l 129 880 l 129 981 l 639 981 l 639 880 l 452 880 l 452 102 l 639 102 l 639 0 l 129 0 z "},"ĳ":{"ha":812,"x_min":140,"x_max":689,"o":"m 426 -239 l 413 -134 l 433 -134 q 525 -116 502 -134 q 555 -72 548 -98 q 562 -3 562 -45 l 562 719 l 689 719 l 689 5 q 608 -214 689 -172 q 471 -239 559 -239 l 426 -239 m 562 848 l 562 981 l 689 981 l 689 848 l 562 848 m 140 0 l 140 719 l 267 719 l 267 0 l 140 0 m 140 848 l 140 981 l 267 981 l 267 848 l 140 848 z "},"Ĵ":{"ha":818,"x_min":69,"x_max":670,"o":"m 216 1106 l 363 1286 l 465 1286 l 604 1106 l 498 1106 l 414 1224 l 325 1106 l 216 1106 m 354 -12 q 192 8 276 -12 q 69 47 108 27 l 106 153 q 213 118 141 136 q 350 100 285 100 q 490 149 446 100 q 534 295 534 198 l 534 869 l 159 869 l 159 981 l 670 981 l 670 292 q 592 68 670 148 q 354 -12 515 -12 z "},"ĵ":{"ha":408,"x_min":7,"x_max":395,"o":"m 7 843 l 153 1023 l 255 1023 l 395 843 l 289 843 l 205 961 l 115 843 l 7 843 m 22 -239 l 9 -134 l 28 -134 q 121 -116 98 -134 q 151 -72 144 -98 q 157 -3 157 -45 l 157 719 l 285 719 l 285 5 q 203 -214 285 -172 q 66 -239 155 -239 l 22 -239 z "},"Ķ":{"ha":962,"x_min":148,"x_max":916,"o":"m 503 -498 l 448 -468 q 532 -331 514 -388 q 541 -269 541 -300 l 445 -269 l 445 -111 l 619 -111 l 619 -235 q 538 -458 619 -352 q 503 -498 520 -481 m 148 0 l 148 981 l 284 981 l 284 446 q 545 749 393 578 q 748 981 696 921 l 896 981 l 528 541 l 916 0 l 764 0 l 432 468 l 284 317 l 284 0 l 148 0 z "},"ķ":{"ha":781,"x_min":126,"x_max":766,"o":"m 417 -498 l 362 -468 q 446 -331 429 -388 q 455 -269 456 -300 l 359 -269 l 359 -111 l 534 -111 l 534 -235 q 452 -458 534 -352 q 417 -498 435 -481 m 126 0 l 126 1021 l 254 1021 l 254 355 l 597 719 l 737 719 l 445 403 l 766 0 l 619 0 l 361 334 l 254 227 l 254 0 l 126 0 z "},"ĸ":{"ha":779,"x_min":126,"x_max":761,"o":"m 254 346 l 591 719 l 732 719 l 451 395 l 761 0 l 614 0 l 353 338 l 254 240 l 254 0 l 126 0 l 126 719 l 254 719 l 254 346 z "},"Ĺ":{"ha":777,"x_min":148,"x_max":724,"o":"m 400 1106 l 481 1337 l 634 1337 l 472 1106 l 400 1106 m 148 0 l 148 981 l 284 981 l 284 105 l 724 105 l 724 0 l 148 0 z "},"ĺ":{"ha":472,"x_min":129,"x_max":468,"o":"m 234 1131 l 315 1362 l 468 1362 l 306 1131 l 234 1131 m 359 -5 q 256 4 296 -5 q 186 40 216 14 q 129 243 129 90 l 129 1021 l 256 1021 l 256 241 q 282 128 256 155 q 389 102 308 102 l 411 102 l 396 -5 l 359 -5 z "},"Ļ":{"ha":777,"x_min":148,"x_max":724,"o":"m 406 -498 l 351 -468 q 435 -331 418 -388 q 444 -269 445 -300 l 349 -269 l 349 -111 l 523 -111 l 523 -235 q 441 -458 523 -352 q 406 -498 424 -481 m 148 0 l 148 981 l 284 981 l 284 105 l 724 105 l 724 0 l 148 0 z "},"ļ":{"ha":472,"x_min":129,"x_max":411,"o":"m 241 -503 l 186 -473 q 270 -336 252 -393 q 279 -274 279 -305 l 183 -274 l 183 -116 l 357 -116 l 357 -240 q 276 -464 357 -357 q 241 -503 258 -487 m 359 -5 q 256 4 296 -5 q 186 40 216 14 q 129 243 129 90 l 129 1021 l 256 1021 l 256 241 q 282 128 256 155 q 389 102 308 102 l 411 102 l 396 -5 l 359 -5 z "},"Ľ":{"ha":777,"x_min":148,"x_max":775,"o":"m 659 608 l 604 638 q 688 775 670 718 q 696 838 697 806 l 601 838 l 601 996 l 775 996 l 775 871 q 694 648 775 754 q 659 608 676 625 m 148 0 l 148 981 l 284 981 l 284 105 l 724 105 l 724 0 l 148 0 z "},"ľ":{"ha":472,"x_min":129,"x_max":646,"o":"m 530 633 l 475 663 q 559 800 541 743 q 568 863 568 831 l 472 863 l 472 1021 l 646 1021 l 646 897 q 565 673 646 779 q 530 633 547 650 m 359 -5 q 256 4 296 -5 q 186 40 216 14 q 129 243 129 90 l 129 1021 l 256 1021 l 256 241 q 282 128 256 155 q 389 102 308 102 l 411 102 l 396 -5 l 359 -5 z "},"Ŀ":{"ha":777,"x_min":148,"x_max":724,"o":"m 479 428 l 479 568 l 618 568 l 618 428 l 479 428 m 148 0 l 148 981 l 284 981 l 284 105 l 724 105 l 724 0 l 148 0 z "},"ŀ":{"ha":751,"x_min":129,"x_max":684,"o":"m 545 866 l 545 1006 l 684 1006 l 684 866 l 545 866 m 359 -5 q 256 4 296 -5 q 186 40 216 14 q 129 243 129 90 l 129 1021 l 256 1021 l 256 241 q 282 128 256 155 q 389 102 308 102 l 411 102 l 396 -5 l 359 -5 z "},"Ł":{"ha":777,"x_min":35,"x_max":724,"o":"m 35 418 l 35 502 l 148 558 l 148 981 l 284 981 l 284 626 l 560 764 l 560 680 l 284 542 l 284 105 l 724 105 l 724 0 l 148 0 l 148 474 l 35 418 z "},"ł":{"ha":480,"x_min":35,"x_max":411,"o":"m 359 -5 q 256 4 296 -5 q 186 40 216 14 q 129 243 129 90 l 129 464 l 35 418 l 35 502 l 129 548 l 129 1021 l 256 1021 l 256 610 l 410 686 l 410 602 l 256 526 l 256 241 q 282 128 256 155 q 389 102 308 102 l 411 102 l 396 -5 l 359 -5 z "},"Ń":{"ha":1081,"x_min":148,"x_max":933,"o":"m 505 1106 l 586 1337 l 739 1337 l 576 1106 l 505 1106 m 148 0 l 148 981 l 252 981 l 813 197 l 813 981 l 933 981 l 933 0 l 812 0 l 268 749 l 268 0 l 148 0 z "},"ń":{"ha":831,"x_min":126,"x_max":712,"o":"m 383 843 l 465 1074 l 617 1074 l 455 843 l 383 843 m 585 530 q 424 635 585 635 q 299 601 345 635 q 254 512 254 567 l 254 0 l 126 0 l 126 719 l 254 719 l 254 649 q 467 732 326 732 q 699 604 650 732 q 712 522 712 567 l 712 0 l 585 0 l 585 530 z "},"Ņ":{"ha":1081,"x_min":148,"x_max":933,"o":"m 511 -498 l 456 -468 q 540 -331 522 -388 q 549 -269 549 -300 l 453 -269 l 453 -111 l 627 -111 l 627 -235 q 546 -458 627 -352 q 511 -498 528 -481 m 148 0 l 148 981 l 252 981 l 813 197 l 813 981 l 933 981 l 933 0 l 812 0 l 268 749 l 268 0 l 148 0 z "},"ņ":{"ha":831,"x_min":126,"x_max":712,"o":"m 390 -498 l 335 -468 q 419 -331 401 -388 q 428 -269 429 -300 l 332 -269 l 332 -111 l 507 -111 l 507 -235 q 425 -458 507 -352 q 390 -498 408 -481 m 585 530 q 424 635 585 635 q 299 601 345 635 q 254 512 254 567 l 254 0 l 126 0 l 126 719 l 254 719 l 254 649 q 467 732 326 732 q 699 604 650 732 q 712 522 712 567 l 712 0 l 585 0 l 585 530 z "},"Ň":{"ha":1081,"x_min":148,"x_max":933,"o":"m 486 1106 l 347 1286 l 452 1286 l 536 1168 l 625 1286 l 734 1286 l 587 1106 l 486 1106 m 148 0 l 148 981 l 252 981 l 813 197 l 813 981 l 933 981 l 933 0 l 812 0 l 268 749 l 268 0 l 148 0 z "},"ň":{"ha":831,"x_min":126,"x_max":712,"o":"m 364 843 l 225 1023 l 330 1023 l 414 905 l 504 1023 l 613 1023 l 466 843 l 364 843 m 585 530 q 424 635 585 635 q 299 601 345 635 q 254 512 254 567 l 254 0 l 126 0 l 126 719 l 254 719 l 254 649 q 467 732 326 732 q 699 604 650 732 q 712 522 712 567 l 712 0 l 585 0 l 585 530 z "},"ŉ":{"ha":831,"x_min":126,"x_max":712,"o":"m 585 530 q 424 635 585 635 q 299 601 345 635 q 254 512 254 567 l 254 0 l 126 0 l 126 719 l 254 719 l 254 649 q 467 732 326 732 q 699 604 650 732 q 712 522 712 567 l 712 0 l 585 0 l 585 530 m 200 851 l 145 881 q 229 1018 212 961 q 238 1080 239 1049 l 142 1080 l 142 1238 l 317 1238 l 317 1114 q 235 890 317 997 q 200 851 218 867 z "},"Ŋ":{"ha":1073,"x_min":144,"x_max":929,"o":"m 557 -253 l 538 -157 q 712 -125 678 -145 q 779 -58 766 -94 q 802 78 802 1 l 802 129 l 264 749 l 264 0 l 144 0 l 144 981 l 248 981 l 809 319 l 809 981 l 929 981 l 929 83 q 682 -243 929 -199 q 557 -253 627 -252 z "},"ŋ":{"ha":831,"x_min":126,"x_max":712,"o":"m 585 530 q 424 635 585 635 q 299 601 345 635 q 254 512 254 567 l 254 0 l 126 0 l 126 719 l 254 719 l 254 649 q 467 732 326 732 q 699 604 650 732 q 712 522 712 567 l 712 149 q 696 -45 712 14 q 661 -130 681 -103 q 610 -178 642 -157 q 435 -214 553 -214 l 416 -119 q 534 -98 510 -119 q 555 -80 547 -87 q 585 144 585 -57 l 585 530 z "},"Ō":{"ha":1048,"x_min":126,"x_max":922,"o":"m 388 1106 l 388 1209 l 660 1209 l 660 1106 l 388 1106 m 530 95 q 597 95 530 95 q 725 138 664 95 q 786 309 786 181 l 786 663 q 725 838 786 791 q 530 886 663 886 q 280 772 324 886 q 263 663 263 728 l 263 309 q 330 138 263 182 q 530 95 396 95 m 279 30 q 234 52 279 30 q 158 150 190 75 q 126 330 126 225 l 126 638 q 245 930 126 849 q 530 996 342 996 q 912 747 864 996 q 922 629 922 695 l 922 339 q 805 52 922 134 q 539 -15 711 -15 q 279 30 368 -15 z "},"ō":{"ha":796,"x_min":100,"x_max":696,"o":"m 262 843 l 262 946 l 534 946 l 534 843 l 262 843 m 228 203 q 398 83 228 83 q 568 203 568 83 l 568 514 q 398 635 568 635 q 228 514 228 635 l 228 203 m 696 214 q 624 46 696 108 q 397 -15 551 -15 q 172 46 243 -15 q 100 214 100 107 l 100 503 q 172 671 100 610 q 397 732 243 732 q 624 671 551 732 q 696 503 696 609 l 696 214 z "},"Ŏ":{"ha":1048,"x_min":126,"x_max":922,"o":"m 635 1148 q 614 1127 635 1148 q 524 1106 593 1106 q 413 1148 456 1106 q 371 1250 371 1190 l 442 1250 q 466 1194 442 1216 q 525 1171 489 1171 q 584 1193 562 1171 q 606 1250 606 1215 l 677 1250 q 635 1148 677 1190 m 530 95 q 597 95 530 95 q 725 138 664 95 q 786 309 786 181 l 786 663 q 725 838 786 791 q 530 886 663 886 q 280 772 324 886 q 263 663 263 728 l 263 309 q 330 138 263 182 q 530 95 396 95 m 279 30 q 234 52 279 30 q 158 150 190 75 q 126 330 126 225 l 126 638 q 245 930 126 849 q 530 996 342 996 q 912 747 864 996 q 922 629 922 695 l 922 339 q 805 52 922 134 q 539 -15 711 -15 q 279 30 368 -15 z "},"ŏ":{"ha":796,"x_min":100,"x_max":696,"o":"m 509 885 q 488 864 509 885 q 398 843 467 843 q 287 885 330 843 q 245 987 245 926 l 316 987 q 339 930 316 953 q 399 908 363 908 q 458 930 435 908 q 480 987 480 951 l 551 987 q 509 885 551 926 m 228 203 q 398 83 228 83 q 568 203 568 83 l 568 514 q 398 635 568 635 q 228 514 228 635 l 228 203 m 696 214 q 624 46 696 108 q 397 -15 551 -15 q 172 46 243 -15 q 100 214 100 107 l 100 503 q 172 671 100 610 q 397 732 243 732 q 624 671 551 732 q 696 503 696 609 l 696 214 z "},"Ő":{"ha":1048,"x_min":126,"x_max":922,"o":"m 382 1106 l 454 1428 l 597 1428 l 448 1106 l 382 1106 m 583 1106 l 719 1428 l 867 1428 l 667 1106 l 583 1106 m 530 95 q 597 95 530 95 q 725 138 664 95 q 786 309 786 181 l 786 663 q 725 838 786 791 q 530 886 663 886 q 280 772 324 886 q 263 663 263 728 l 263 309 q 330 138 263 182 q 530 95 396 95 m 279 30 q 234 52 279 30 q 158 150 190 75 q 126 330 126 225 l 126 638 q 245 930 126 849 q 530 996 342 996 q 912 747 864 996 q 922 629 922 695 l 922 339 q 805 52 922 134 q 539 -15 711 -15 q 279 30 368 -15 z "},"ő":{"ha":796,"x_min":100,"x_max":741,"o":"m 256 843 l 328 1165 l 471 1165 l 322 843 l 256 843 m 457 843 l 593 1165 l 741 1165 l 541 843 l 457 843 m 228 203 q 398 83 228 83 q 568 203 568 83 l 568 514 q 398 635 568 635 q 228 514 228 635 l 228 203 m 696 214 q 624 46 696 108 q 397 -15 551 -15 q 172 46 243 -15 q 100 214 100 107 l 100 503 q 172 671 100 610 q 397 732 243 732 q 624 671 551 732 q 696 503 696 609 l 696 214 z "},"Œ":{"ha":1056,"x_min":123,"x_max":949,"o":"m 526 0 q 171 136 252 0 q 124 346 123 215 l 124 623 q 242 915 124 833 q 526 981 337 981 l 943 981 l 943 879 l 662 879 l 662 552 l 901 552 l 901 450 l 662 450 l 662 102 l 949 102 l 949 0 l 526 0 m 519 102 l 526 102 l 526 878 l 518 878 q 325 825 388 878 q 261 648 261 772 l 261 325 q 323 151 261 201 q 519 102 386 102 z "},"œ":{"ha":1176,"x_min":102,"x_max":1088,"o":"m 386 -14 q 102 215 102 -14 l 102 507 q 178 671 102 610 q 393 732 254 732 q 599 644 532 732 q 806 732 661 732 q 1019 675 950 732 q 1088 514 1088 618 l 1088 343 l 664 343 l 664 222 q 701 116 664 151 q 798 82 737 82 q 884 87 858 82 q 930 107 910 92 q 972 224 965 133 l 1087 224 q 1017 39 1076 92 q 814 -14 958 -14 q 599 83 669 -14 q 386 -14 532 -14 m 386 82 q 536 204 536 82 l 536 517 q 499 608 536 580 q 386 636 461 636 q 270 609 311 636 q 229 517 229 581 l 229 204 q 269 111 229 140 q 386 82 309 82 m 664 429 l 964 429 l 964 528 q 928 613 964 589 q 813 636 891 636 q 699 609 734 636 q 664 515 664 581 l 664 429 z "},"Ŕ":{"ha":993,"x_min":148,"x_max":929,"o":"m 503 1106 l 584 1337 l 736 1337 l 574 1106 l 503 1106 m 148 0 l 148 981 l 585 981 q 840 827 788 981 q 859 692 859 770 q 841 561 859 614 q 794 478 823 507 q 721 431 765 450 l 929 0 l 789 0 l 594 407 l 285 406 l 285 0 l 148 0 m 285 510 l 574 510 q 691 557 661 510 q 722 689 722 604 q 642 869 722 842 q 589 877 618 878 l 285 877 l 285 510 z "},"ŕ":{"ha":538,"x_min":126,"x_max":513,"o":"m 279 843 l 360 1074 l 513 1074 l 351 843 l 279 843 m 126 0 l 126 719 l 254 719 l 254 617 q 386 713 278 684 q 503 729 442 730 l 499 620 q 330 583 407 620 q 254 503 254 547 l 254 0 l 126 0 z "},"Ŗ":{"ha":993,"x_min":148,"x_max":929,"o":"m 509 -498 l 454 -468 q 538 -331 521 -388 q 547 -269 548 -300 l 452 -269 l 452 -111 l 626 -111 l 626 -235 q 545 -458 626 -352 q 509 -498 527 -481 m 148 0 l 148 981 l 585 981 q 840 827 788 981 q 859 692 859 770 q 841 561 859 614 q 794 478 823 507 q 721 431 765 450 l 929 0 l 789 0 l 594 407 l 285 406 l 285 0 l 148 0 m 285 510 l 574 510 q 691 557 661 510 q 722 689 722 604 q 642 869 722 842 q 589 877 618 878 l 285 877 l 285 510 z "},"ŗ":{"ha":538,"x_min":126,"x_max":503,"o":"m 286 -498 l 231 -468 q 315 -331 297 -388 q 323 -269 324 -300 l 228 -269 l 228 -111 l 402 -111 l 402 -235 q 321 -458 402 -352 q 286 -498 303 -481 m 126 0 l 126 719 l 254 719 l 254 617 q 386 713 278 684 q 503 729 442 730 l 499 620 q 330 583 407 620 q 254 503 254 547 l 254 0 l 126 0 z "},"Ř":{"ha":993,"x_min":148,"x_max":929,"o":"m 484 1106 l 345 1286 l 450 1286 l 534 1168 l 623 1286 l 732 1286 l 585 1106 l 484 1106 m 148 0 l 148 981 l 585 981 q 840 827 788 981 q 859 692 859 770 q 841 561 859 614 q 794 478 823 507 q 721 431 765 450 l 929 0 l 789 0 l 594 407 l 285 406 l 285 0 l 148 0 m 285 510 l 574 510 q 691 557 661 510 q 722 689 722 604 q 642 869 722 842 q 589 877 618 878 l 285 877 l 285 510 z "},"ř":{"ha":538,"x_min":121,"x_max":509,"o":"m 260 843 l 121 1023 l 226 1023 l 310 905 l 399 1023 l 509 1023 l 361 843 l 260 843 m 126 0 l 126 719 l 254 719 l 254 617 q 386 713 278 684 q 503 729 442 730 l 499 620 q 330 583 407 620 q 254 503 254 547 l 254 0 l 126 0 z "},"Ś":{"ha":884,"x_min":98,"x_max":789,"o":"m 408 1106 l 489 1337 l 642 1337 l 479 1106 l 408 1106 m 789 275 q 469 -15 789 -15 q 98 77 256 -15 l 146 181 q 294 120 207 145 q 464 95 381 95 q 588 116 546 95 q 663 271 663 154 q 659 335 663 319 q 544 420 643 389 l 307 499 q 154 594 193 536 q 116 741 116 651 q 210 937 117 869 q 445 996 291 995 q 774 927 664 996 l 741 821 q 469 886 620 886 q 309 859 363 886 q 250 771 254 831 q 248 737 248 752 q 269 662 248 688 q 349 615 290 635 l 596 532 q 744 441 698 497 q 789 275 789 385 z "},"ś":{"ha":673,"x_min":96,"x_max":594,"o":"m 309 843 l 391 1074 l 543 1074 l 381 843 l 309 843 m 341 83 q 486 191 486 83 q 473 260 486 237 q 412 300 460 283 l 241 363 q 132 430 163 391 q 101 526 101 468 q 113 618 101 583 q 151 680 124 653 q 340 732 203 732 q 576 693 477 732 l 547 595 q 456 622 513 610 q 358 635 400 635 q 235 604 261 635 q 220 546 220 584 q 232 492 220 508 q 281 463 245 476 l 450 397 q 566 320 538 362 q 594 189 594 279 q 536 42 594 100 q 358 -15 479 -15 q 201 4 270 -15 q 96 43 133 23 l 127 137 q 341 83 224 83 z "},"Ŝ":{"ha":884,"x_min":98,"x_max":789,"o":"m 250 1106 l 396 1286 l 498 1286 l 637 1106 l 532 1106 l 448 1224 l 358 1106 l 250 1106 m 789 275 q 469 -15 789 -15 q 98 77 256 -15 l 146 181 q 294 120 207 145 q 464 95 381 95 q 588 116 546 95 q 663 271 663 154 q 659 335 663 319 q 544 420 643 389 l 307 499 q 154 594 193 536 q 116 741 116 651 q 210 937 117 869 q 445 996 291 995 q 774 927 664 996 l 741 821 q 469 886 620 886 q 309 859 363 886 q 250 771 254 831 q 248 737 248 752 q 269 662 248 688 q 349 615 290 635 l 596 532 q 744 441 698 497 q 789 275 789 385 z "},"ŝ":{"ha":673,"x_min":96,"x_max":594,"o":"m 151 843 l 298 1023 l 399 1023 l 539 843 l 433 843 l 349 961 l 260 843 l 151 843 m 341 83 q 486 191 486 83 q 473 260 486 237 q 412 300 460 283 l 241 363 q 132 430 163 391 q 101 526 101 468 q 113 618 101 583 q 151 680 124 653 q 340 732 203 732 q 576 693 477 732 l 547 595 q 456 622 513 610 q 358 635 400 635 q 235 604 261 635 q 220 546 220 584 q 232 492 220 508 q 281 463 245 476 l 450 397 q 566 320 538 362 q 594 189 594 279 q 536 42 594 100 q 358 -15 479 -15 q 201 4 270 -15 q 96 43 133 23 l 127 137 q 341 83 224 83 z "},"Ş":{"ha":884,"x_min":98,"x_max":789,"o":"m 432 -334 q 369 -328 399 -334 l 369 -263 q 429 -268 393 -268 q 488 -249 464 -268 q 512 -198 512 -229 q 482 -140 512 -168 q 404 -111 452 -113 l 404 -4 l 446 -4 l 450 -68 q 560 -121 521 -81 q 600 -211 600 -161 q 555 -297 600 -261 q 432 -334 511 -334 m 789 275 q 469 -15 789 -15 q 98 77 256 -15 l 146 181 q 294 120 207 145 q 464 95 381 95 q 588 116 546 95 q 663 271 663 154 q 659 335 663 319 q 544 420 643 389 l 307 499 q 154 594 193 536 q 116 741 116 651 q 210 937 117 869 q 445 996 291 995 q 774 927 664 996 l 741 821 q 469 886 620 886 q 309 859 363 886 q 250 771 254 831 q 248 737 248 752 q 269 662 248 688 q 349 615 290 635 l 596 532 q 744 441 698 497 q 789 275 789 385 z "},"ş":{"ha":673,"x_min":96,"x_max":594,"o":"m 333 -334 q 270 -328 300 -334 l 270 -263 q 330 -268 294 -268 q 389 -249 365 -268 q 413 -198 413 -229 q 383 -140 413 -168 q 304 -111 353 -113 l 304 -4 l 347 -4 l 351 -68 q 461 -121 422 -81 q 500 -211 500 -161 q 456 -297 500 -261 q 333 -334 412 -334 m 341 83 q 486 191 486 83 q 473 260 486 237 q 412 300 460 283 l 241 363 q 132 430 163 391 q 101 526 101 468 q 113 618 101 583 q 151 680 124 653 q 340 732 203 732 q 576 693 477 732 l 547 595 q 456 622 513 610 q 358 635 400 635 q 235 604 261 635 q 220 546 220 584 q 232 492 220 508 q 281 463 245 476 l 450 397 q 566 320 538 362 q 594 189 594 279 q 536 42 594 100 q 358 -15 479 -15 q 201 4 270 -15 q 96 43 133 23 l 127 137 q 341 83 224 83 z "},"Š":{"ha":884,"x_min":98,"x_max":789,"o":"m 389 1106 l 250 1286 l 355 1286 l 439 1168 l 528 1286 l 637 1286 l 490 1106 l 389 1106 m 789 275 q 469 -15 789 -15 q 98 77 256 -15 l 146 181 q 294 120 207 145 q 464 95 381 95 q 588 116 546 95 q 663 271 663 154 q 659 335 663 319 q 544 420 643 389 l 307 499 q 154 594 193 536 q 116 741 116 651 q 210 937 117 869 q 445 996 291 995 q 774 927 664 996 l 741 821 q 469 886 620 886 q 309 859 363 886 q 250 771 254 831 q 248 737 248 752 q 269 662 248 688 q 349 615 290 635 l 596 532 q 744 441 698 497 q 789 275 789 385 z "},"š":{"ha":673,"x_min":96,"x_max":594,"o":"m 290 843 l 151 1023 l 256 1023 l 340 905 l 430 1023 l 539 1023 l 392 843 l 290 843 m 341 83 q 486 191 486 83 q 473 260 486 237 q 412 300 460 283 l 241 363 q 132 430 163 391 q 101 526 101 468 q 113 618 101 583 q 151 680 124 653 q 340 732 203 732 q 576 693 477 732 l 547 595 q 456 622 513 610 q 358 635 400 635 q 235 604 261 635 q 220 546 220 584 q 232 492 220 508 q 281 463 245 476 l 450 397 q 566 320 538 362 q 594 189 594 279 q 536 42 594 100 q 358 -15 479 -15 q 201 4 270 -15 q 96 43 133 23 l 127 137 q 341 83 224 83 z "},"Ţ":{"ha":817,"x_min":57,"x_max":760,"o":"m 397 -319 q 334 -313 364 -319 l 334 -248 q 393 -253 358 -253 q 453 -234 429 -253 q 477 -183 477 -214 q 447 -125 477 -153 q 368 -96 416 -98 l 368 11 l 410 11 l 414 -53 q 525 -106 486 -66 q 564 -196 564 -146 q 520 -282 564 -246 q 397 -319 476 -319 m 340 0 l 340 869 l 57 869 l 57 981 l 760 981 l 760 869 l 476 869 l 476 0 l 340 0 z "},"ţ":{"ha":570,"x_min":54,"x_max":547,"o":"m 379 -324 q 316 -319 347 -324 l 316 -254 q 376 -258 340 -258 q 435 -239 411 -258 q 459 -189 459 -220 q 429 -131 459 -158 q 351 -102 399 -103 l 351 5 l 393 5 l 397 -58 q 507 -112 468 -71 q 547 -202 547 -152 q 503 -288 547 -252 q 379 -324 458 -324 m 458 -5 q 241 42 308 -5 q 174 205 174 90 l 174 623 l 54 623 l 54 719 l 179 719 l 195 941 l 302 941 l 302 719 l 482 719 l 482 623 l 302 623 l 302 214 q 341 124 302 146 q 477 102 380 102 l 491 102 l 477 -5 l 458 -5 z "},"Ť":{"ha":817,"x_min":57,"x_max":760,"o":"m 353 1106 l 214 1286 l 319 1286 l 404 1168 l 493 1286 l 602 1286 l 455 1106 l 353 1106 m 340 0 l 340 869 l 57 869 l 57 981 l 760 981 l 760 869 l 476 869 l 476 0 l 340 0 z "},"ť":{"ha":570,"x_min":54,"x_max":831,"o":"m 714 554 l 659 584 q 743 721 726 664 q 752 783 753 752 l 656 783 l 656 941 l 831 941 l 831 817 q 749 593 831 700 q 714 554 732 570 m 458 -5 q 241 42 308 -5 q 174 205 174 90 l 174 623 l 54 623 l 54 719 l 179 719 l 195 941 l 302 941 l 302 719 l 482 719 l 482 623 l 302 623 l 302 214 q 341 124 302 146 q 477 102 380 102 l 491 102 l 477 -5 l 458 -5 z "},"Ŧ":{"ha":817,"x_min":57,"x_max":760,"o":"m 157 467 l 157 554 l 340 554 l 340 869 l 57 869 l 57 981 l 760 981 l 760 869 l 476 869 l 476 554 l 643 554 l 643 467 l 476 467 l 476 0 l 340 0 l 340 467 l 157 467 z "},"ŧ":{"ha":570,"x_min":39,"x_max":525,"o":"m 458 -5 q 241 42 308 -5 q 174 205 174 90 l 174 380 l 39 380 l 39 467 l 174 467 l 174 623 l 54 623 l 54 719 l 179 719 l 195 941 l 302 941 l 302 719 l 482 719 l 482 623 l 302 623 l 302 467 l 525 467 l 525 380 l 302 380 l 302 214 q 341 124 302 146 q 477 102 380 102 l 491 102 l 477 -5 l 458 -5 z "},"Ũ":{"ha":1043,"x_min":136,"x_max":907,"o":"m 657 1116 q 607 1179 657 1179 q 545 1142 583 1179 q 446 1106 508 1106 q 352 1143 384 1106 q 321 1261 321 1179 l 387 1261 q 437 1198 387 1198 q 498 1235 461 1198 q 598 1271 536 1271 q 691 1234 660 1271 q 723 1116 723 1198 l 657 1116 m 526 -15 q 182 123 264 -15 q 136 321 136 201 l 136 981 l 273 981 l 273 307 q 449 99 273 122 q 534 95 484 95 q 705 136 639 95 q 770 307 770 176 l 770 981 l 907 981 l 907 321 q 795 50 907 130 q 526 -15 703 -15 z "},"ũ":{"ha":830,"x_min":119,"x_max":704,"o":"m 547 852 q 497 916 547 916 q 435 879 473 916 q 336 843 398 843 q 242 880 274 843 q 211 998 211 916 l 277 998 q 327 935 277 935 q 389 971 351 935 q 488 1008 426 1008 q 582 971 550 1008 q 613 852 613 935 l 547 852 m 367 -15 q 134 115 183 -15 q 119 197 119 153 l 119 719 l 247 719 l 247 196 q 286 113 247 143 q 402 83 325 83 q 528 121 479 83 q 576 210 576 159 l 576 719 l 704 719 l 704 0 l 590 0 l 576 90 q 367 -15 517 -15 z "},"Ū":{"ha":1043,"x_min":136,"x_max":907,"o":"m 385 1106 l 385 1209 l 657 1209 l 657 1106 l 385 1106 m 526 -15 q 182 123 264 -15 q 136 321 136 201 l 136 981 l 273 981 l 273 307 q 449 99 273 122 q 534 95 484 95 q 705 136 639 95 q 770 307 770 176 l 770 981 l 907 981 l 907 321 q 795 50 907 130 q 526 -15 703 -15 z "},"ū":{"ha":830,"x_min":119,"x_max":704,"o":"m 275 843 l 275 946 l 547 946 l 547 843 l 275 843 m 367 -15 q 134 115 183 -15 q 119 197 119 153 l 119 719 l 247 719 l 247 196 q 286 113 247 143 q 402 83 325 83 q 528 121 479 83 q 576 210 576 159 l 576 719 l 704 719 l 704 0 l 590 0 l 576 90 q 367 -15 517 -15 z "},"Ŭ":{"ha":1043,"x_min":136,"x_max":907,"o":"m 632 1148 q 611 1127 632 1148 q 522 1106 590 1106 q 411 1148 453 1106 q 368 1250 368 1190 l 439 1250 q 463 1194 439 1216 q 523 1171 486 1171 q 581 1193 559 1171 q 604 1250 604 1215 l 675 1250 q 632 1148 675 1190 m 526 -15 q 182 123 264 -15 q 136 321 136 201 l 136 981 l 273 981 l 273 307 q 449 99 273 122 q 534 95 484 95 q 705 136 639 95 q 770 307 770 176 l 770 981 l 907 981 l 907 321 q 795 50 907 130 q 526 -15 703 -15 z "},"ŭ":{"ha":830,"x_min":119,"x_max":704,"o":"m 523 885 q 501 864 523 885 q 412 843 480 843 q 301 885 343 843 q 258 987 258 926 l 330 987 q 353 930 330 953 q 413 908 376 908 q 471 930 449 908 q 494 987 494 951 l 565 987 q 523 885 565 926 m 367 -15 q 134 115 183 -15 q 119 197 119 153 l 119 719 l 247 719 l 247 196 q 286 113 247 143 q 402 83 325 83 q 528 121 479 83 q 576 210 576 159 l 576 719 l 704 719 l 704 0 l 590 0 l 576 90 q 367 -15 517 -15 z "},"Ů":{"ha":1043,"x_min":136,"x_max":907,"o":"m 448 1227 q 522 1150 448 1150 q 595 1227 595 1150 q 522 1303 595 1303 q 468 1286 489 1303 q 448 1227 448 1268 m 615 1137 q 596 1122 615 1137 q 522 1106 577 1106 q 428 1137 466 1106 q 390 1227 390 1168 q 428 1317 390 1286 q 522 1348 466 1348 q 615 1317 577 1348 q 653 1227 653 1286 q 615 1137 653 1168 m 526 -15 q 182 123 264 -15 q 136 321 136 201 l 136 981 l 273 981 l 273 307 q 449 99 273 122 q 534 95 484 95 q 705 136 639 95 q 770 307 770 176 l 770 981 l 907 981 l 907 321 q 795 50 907 130 q 526 -15 703 -15 z "},"ů":{"ha":830,"x_min":119,"x_max":704,"o":"m 338 964 q 412 887 338 887 q 486 964 486 887 q 412 1040 486 1040 q 358 1023 379 1040 q 338 964 338 1005 m 505 874 q 486 858 505 874 q 412 843 467 843 q 318 874 356 843 q 280 964 280 905 q 318 1054 280 1023 q 412 1084 356 1084 q 505 1054 467 1084 q 543 964 543 1023 q 505 874 543 905 m 367 -15 q 134 115 183 -15 q 119 197 119 153 l 119 719 l 247 719 l 247 196 q 286 113 247 143 q 402 83 325 83 q 528 121 479 83 q 576 210 576 159 l 576 719 l 704 719 l 704 0 l 590 0 l 576 90 q 367 -15 517 -15 z "},"Ű":{"ha":1043,"x_min":136,"x_max":907,"o":"m 379 1106 l 451 1428 l 594 1428 l 446 1106 l 379 1106 m 581 1106 l 716 1428 l 865 1428 l 664 1106 l 581 1106 m 526 -15 q 182 123 264 -15 q 136 321 136 201 l 136 981 l 273 981 l 273 307 q 449 99 273 122 q 534 95 484 95 q 705 136 639 95 q 770 307 770 176 l 770 981 l 907 981 l 907 321 q 795 50 907 130 q 526 -15 703 -15 z "},"ű":{"ha":830,"x_min":119,"x_max":755,"o":"m 269 843 l 341 1165 l 484 1165 l 336 843 l 269 843 m 471 843 l 606 1165 l 755 1165 l 554 843 l 471 843 m 367 -15 q 134 115 183 -15 q 119 197 119 153 l 119 719 l 247 719 l 247 196 q 286 113 247 143 q 402 83 325 83 q 528 121 479 83 q 576 210 576 159 l 576 719 l 704 719 l 704 0 l 590 0 l 576 90 q 367 -15 517 -15 z "},"Ų":{"ha":1043,"x_min":136,"x_max":907,"o":"m 576 -334 q 431 -298 485 -334 q 377 -201 377 -262 q 500 -4 377 -109 l 543 -4 q 485 -86 508 -37 q 461 -177 461 -134 q 576 -268 461 -268 l 576 -334 m 526 -15 q 182 123 264 -15 q 136 321 136 201 l 136 981 l 273 981 l 273 307 q 449 99 273 122 q 534 95 484 95 q 705 136 639 95 q 770 307 770 176 l 770 981 l 907 981 l 907 321 q 795 50 907 130 q 526 -15 703 -15 z "},"ų":{"ha":830,"x_min":119,"x_max":704,"o":"m 703 -323 q 558 -288 612 -323 q 504 -191 504 -252 q 627 6 504 -98 l 669 6 q 611 -76 635 -27 q 588 -167 588 -124 q 703 -258 588 -258 l 703 -323 m 367 -15 q 134 115 183 -15 q 119 197 119 153 l 119 719 l 247 719 l 247 196 q 286 113 247 143 q 402 83 325 83 q 528 121 479 83 q 576 210 576 159 l 576 719 l 704 719 l 704 0 l 590 0 l 576 90 q 367 -15 517 -15 z "},"Ŵ":{"ha":1389,"x_min":76,"x_max":1313,"o":"m 500 1106 l 647 1286 l 749 1286 l 888 1106 l 783 1106 l 699 1224 l 609 1106 l 500 1106 m 354 0 l 76 981 l 201 981 l 409 235 l 623 981 l 768 981 l 991 235 l 1189 981 l 1313 981 l 1046 0 l 943 0 l 703 836 l 457 0 l 354 0 z "},"ŵ":{"ha":1095,"x_min":35,"x_max":1059,"o":"m 353 843 l 500 1023 l 602 1023 l 741 843 l 635 843 l 551 961 l 462 843 l 353 843 m 242 0 l 35 719 l 152 719 l 311 155 l 484 719 l 607 719 l 787 155 l 941 719 l 1059 719 l 849 0 l 730 0 l 547 573 l 363 0 l 242 0 z "},"Ŷ":{"ha":894,"x_min":33,"x_max":861,"o":"m 253 1106 l 399 1286 l 501 1286 l 641 1106 l 535 1106 l 451 1224 l 361 1106 l 253 1106 m 380 0 l 380 385 l 33 981 l 177 981 l 448 505 l 721 981 l 861 981 l 516 385 l 516 0 l 380 0 z "},"ŷ":{"ha":758,"x_min":52,"x_max":719,"o":"m 191 843 l 338 1023 l 439 1023 l 579 843 l 473 843 l 389 961 l 300 843 l 191 843 m 134 -275 l 134 -176 q 270 -134 218 -176 q 348 3 322 -93 l 52 719 l 186 719 l 406 146 l 590 719 l 719 719 l 483 31 q 398 -158 436 -106 q 326 -232 361 -211 q 134 -275 255 -275 z "},"Ÿ":{"ha":894,"x_min":33,"x_max":861,"o":"m 206 1106 l 206 1229 l 346 1229 l 346 1106 l 206 1106 m 547 1106 l 547 1229 l 687 1229 l 687 1106 l 547 1106 m 380 0 l 380 385 l 33 981 l 177 981 l 448 505 l 721 981 l 861 981 l 516 385 l 516 0 l 380 0 z "},"Ź":{"ha":842,"x_min":122,"x_max":743,"o":"m 397 1106 l 478 1337 l 631 1337 l 469 1106 l 397 1106 m 122 0 l 122 102 l 585 869 l 143 869 l 143 981 l 734 981 l 734 878 l 273 112 l 743 112 l 743 0 l 122 0 z "},"ź":{"ha":654,"x_min":95,"x_max":579,"o":"m 301 843 l 382 1074 l 535 1074 l 373 843 l 301 843 m 95 0 l 95 80 l 439 635 l 107 635 l 107 719 l 573 719 l 573 641 l 227 84 l 579 84 l 579 0 l 95 0 z "},"Ż":{"ha":842,"x_min":122,"x_max":743,"o":"m 363 1106 l 363 1246 l 503 1246 l 503 1106 l 363 1106 m 122 0 l 122 102 l 585 869 l 143 869 l 143 981 l 734 981 l 734 878 l 273 112 l 743 112 l 743 0 l 122 0 z "},"ż":{"ha":654,"x_min":95,"x_max":579,"o":"m 267 843 l 267 983 l 406 983 l 406 843 l 267 843 m 95 0 l 95 80 l 439 635 l 107 635 l 107 719 l 573 719 l 573 641 l 227 84 l 579 84 l 579 0 l 95 0 z "},"Ž":{"ha":842,"x_min":122,"x_max":743,"o":"m 405 1106 l 266 1286 l 371 1286 l 455 1168 l 545 1286 l 654 1286 l 507 1106 l 405 1106 m 122 0 l 122 102 l 585 869 l 143 869 l 143 981 l 734 981 l 734 878 l 273 112 l 743 112 l 743 0 l 122 0 z "},"ž":{"ha":654,"x_min":95,"x_max":579,"o":"m 302 843 l 163 1023 l 269 1023 l 353 905 l 442 1023 l 551 1023 l 404 843 l 302 843 m 95 0 l 95 80 l 439 635 l 107 635 l 107 719 l 573 719 l 573 641 l 227 84 l 579 84 l 579 0 l 95 0 z "},"ƒ":{"ha":604,"x_min":96,"x_max":481,"o":"m 170 -129 q 96 -124 134 -129 l 96 -40 q 145 -41 107 -41 q 226 43 227 -41 l 226 493 l 146 493 l 146 582 l 226 582 l 226 783 q 267 944 226 896 q 411 993 307 993 q 481 989 443 993 l 481 905 q 450 905 473 905 q 373 875 393 905 q 353 798 353 845 l 353 582 l 441 582 l 441 493 l 353 493 l 353 62 q 312 -83 353 -37 q 170 -129 270 -129 z "},"Ǆ":{"ha":1874,"x_min":148,"x_max":1775,"o":"m 1437 1106 l 1298 1286 l 1403 1286 l 1487 1168 l 1577 1286 l 1686 1286 l 1539 1106 l 1437 1106 m 1154 0 l 1154 102 l 1617 869 l 1175 869 l 1175 981 l 1767 981 l 1767 878 l 1305 112 l 1775 112 l 1775 0 l 1154 0 m 285 102 l 525 102 q 723 157 673 102 q 772 313 772 212 l 772 659 q 672 853 772 808 q 525 878 615 879 l 285 878 l 285 102 m 148 0 l 148 981 l 537 981 q 888 781 819 981 q 909 650 909 723 l 909 327 q 816 83 909 166 q 538 0 724 0 l 148 0 z "},"ǅ":{"ha":1686,"x_min":148,"x_max":1611,"o":"m 1335 843 l 1196 1023 l 1301 1023 l 1385 905 l 1474 1023 l 1584 1023 l 1436 843 l 1335 843 m 1127 0 l 1127 80 l 1471 635 l 1139 635 l 1139 719 l 1605 719 l 1605 641 l 1259 84 l 1611 84 l 1611 0 l 1127 0 m 285 102 l 525 102 q 723 157 673 102 q 772 313 772 212 l 772 659 q 672 853 772 808 q 525 878 615 879 l 285 878 l 285 102 m 148 0 l 148 981 l 537 981 q 888 781 819 981 q 909 650 909 723 l 909 327 q 816 83 909 166 q 538 0 724 0 l 148 0 z "},"ǆ":{"ha":1468,"x_min":100,"x_max":1393,"o":"m 1116 843 l 977 1023 l 1082 1023 l 1166 905 l 1256 1023 l 1365 1023 l 1218 843 l 1116 843 m 909 0 l 909 80 l 1253 635 l 921 635 l 921 719 l 1387 719 l 1387 641 l 1041 84 l 1393 84 l 1393 0 l 909 0 m 401 732 q 560 705 488 732 l 560 1021 l 688 1021 l 688 0 l 601 0 l 580 47 q 492 3 547 22 q 385 -15 438 -15 q 169 51 238 -15 q 100 227 100 116 l 100 498 q 174 671 100 610 q 401 732 248 732 m 228 218 q 274 119 228 153 q 381 85 319 85 q 560 128 491 85 l 560 605 q 410 635 498 635 q 228 513 228 635 l 228 218 z "},"Ǉ":{"ha":1594,"x_min":148,"x_max":1447,"o":"m 1131 -12 q 968 8 1053 -12 q 846 47 884 27 l 883 153 q 989 118 918 136 q 1126 100 1061 100 q 1266 149 1222 100 q 1310 295 1310 198 l 1310 869 l 935 869 l 935 981 l 1447 981 l 1447 292 q 1369 68 1447 148 q 1131 -12 1291 -12 m 148 0 l 148 981 l 284 981 l 284 105 l 724 105 l 724 0 l 148 0 z "},"ǈ":{"ha":1185,"x_min":148,"x_max":1061,"o":"m 798 -239 l 785 -134 l 805 -134 q 897 -116 874 -134 q 927 -72 920 -98 q 934 -3 934 -45 l 934 719 l 1061 719 l 1061 5 q 980 -214 1061 -172 q 843 -239 932 -239 l 798 -239 m 934 848 l 934 981 l 1061 981 l 1061 848 l 934 848 m 148 0 l 148 981 l 284 981 l 284 105 l 724 105 l 724 0 l 148 0 z "},"ǉ":{"ha":880,"x_min":129,"x_max":757,"o":"m 494 -239 l 481 -134 l 500 -134 q 593 -116 570 -134 q 623 -72 616 -98 q 629 -3 629 -45 l 629 719 l 757 719 l 757 5 q 675 -214 757 -172 q 538 -239 627 -239 l 494 -239 m 629 848 l 629 981 l 757 981 l 757 848 l 629 848 m 359 -5 q 256 4 296 -5 q 186 40 216 14 q 129 243 129 90 l 129 1021 l 256 1021 l 256 241 q 282 128 256 155 q 389 102 308 102 l 411 102 l 396 -5 l 359 -5 z "},"Ǌ":{"ha":1899,"x_min":148,"x_max":1751,"o":"m 1435 -12 q 1273 8 1357 -12 q 1150 47 1189 27 l 1187 153 q 1294 118 1222 136 q 1431 100 1366 100 q 1571 149 1527 100 q 1615 295 1615 198 l 1615 869 l 1240 869 l 1240 981 l 1751 981 l 1751 292 q 1673 68 1751 148 q 1435 -12 1596 -12 m 148 0 l 148 981 l 252 981 l 813 197 l 813 981 l 933 981 l 933 0 l 812 0 l 268 749 l 268 0 l 148 0 z "},"ǋ":{"ha":1489,"x_min":148,"x_max":1366,"o":"m 1103 -239 l 1090 -134 l 1109 -134 q 1202 -116 1179 -134 q 1232 -72 1225 -98 q 1238 -3 1238 -45 l 1238 719 l 1366 719 l 1366 5 q 1284 -214 1366 -172 q 1147 -239 1236 -239 l 1103 -239 m 1238 848 l 1238 981 l 1366 981 l 1366 848 l 1238 848 m 148 0 l 148 981 l 252 981 l 813 197 l 813 981 l 933 981 l 933 0 l 812 0 l 268 749 l 268 0 l 148 0 z "},"ǌ":{"ha":1240,"x_min":126,"x_max":1116,"o":"m 853 -239 l 840 -134 l 860 -134 q 952 -116 929 -134 q 982 -72 975 -98 q 989 -3 989 -45 l 989 719 l 1116 719 l 1116 5 q 1035 -214 1116 -172 q 898 -239 987 -239 l 853 -239 m 989 848 l 989 981 l 1116 981 l 1116 848 l 989 848 m 585 530 q 424 635 585 635 q 299 601 345 635 q 254 512 254 567 l 254 0 l 126 0 l 126 719 l 254 719 l 254 649 q 467 732 326 732 q 699 604 650 732 q 712 522 712 567 l 712 0 l 585 0 l 585 530 z "},"Ǳ":{"ha":1874,"x_min":148,"x_max":1775,"o":"m 1154 0 l 1154 102 l 1617 869 l 1175 869 l 1175 981 l 1767 981 l 1767 878 l 1305 112 l 1775 112 l 1775 0 l 1154 0 m 285 102 l 525 102 q 723 157 673 102 q 772 313 772 212 l 772 659 q 672 853 772 808 q 525 878 615 879 l 285 878 l 285 102 m 148 0 l 148 981 l 537 981 q 888 781 819 981 q 909 650 909 723 l 909 327 q 816 83 909 166 q 538 0 724 0 l 148 0 z "},"ǲ":{"ha":1686,"x_min":148,"x_max":1611,"o":"m 1127 0 l 1127 80 l 1471 635 l 1139 635 l 1139 719 l 1605 719 l 1605 641 l 1259 84 l 1611 84 l 1611 0 l 1127 0 m 285 102 l 525 102 q 723 157 673 102 q 772 313 772 212 l 772 659 q 672 853 772 808 q 525 878 615 879 l 285 878 l 285 102 m 148 0 l 148 981 l 537 981 q 888 781 819 981 q 909 650 909 723 l 909 327 q 816 83 909 166 q 538 0 724 0 l 148 0 z "},"ǳ":{"ha":1468,"x_min":100,"x_max":1393,"o":"m 909 0 l 909 80 l 1253 635 l 921 635 l 921 719 l 1387 719 l 1387 641 l 1041 84 l 1393 84 l 1393 0 l 909 0 m 401 732 q 560 705 488 732 l 560 1021 l 688 1021 l 688 0 l 601 0 l 580 47 q 492 3 547 22 q 385 -15 438 -15 q 169 51 238 -15 q 100 227 100 116 l 100 498 q 174 671 100 610 q 401 732 248 732 m 228 218 q 274 119 228 153 q 381 85 319 85 q 560 128 491 85 l 560 605 q 410 635 498 635 q 228 513 228 635 l 228 218 z "},"Ǵ":{"ha":1055,"x_min":126,"x_max":922,"o":"m 488 1106 l 570 1337 l 722 1337 l 560 1106 l 488 1106 m 534 -15 q 176 121 260 -15 q 126 330 126 200 l 126 637 q 248 930 126 847 q 521 996 345 996 q 778 956 696 996 q 886 850 860 916 q 911 689 911 784 l 787 679 q 768 807 787 774 q 732 852 749 839 q 674 876 715 866 q 550 886 633 886 q 419 875 467 886 q 335 840 372 865 q 263 663 263 790 l 263 309 q 332 138 263 181 q 533 95 400 95 q 726 137 667 95 q 785 309 785 180 l 785 399 l 553 399 l 553 498 l 922 498 l 922 0 l 848 0 l 831 167 q 746 34 818 82 q 534 -15 673 -15 z "},"ǵ":{"ha":804,"x_min":100,"x_max":685,"o":"m 357 843 l 438 1074 l 591 1074 l 429 843 l 357 843 m 200 -154 q 373 -180 271 -180 q 516 -141 475 -180 q 557 -21 557 -102 l 557 79 q 474 40 530 53 q 373 27 419 27 q 100 257 100 27 l 100 494 q 169 669 100 606 q 373 732 237 732 q 485 710 427 732 q 557 661 542 687 l 557 719 l 685 719 l 685 17 q 617 -195 685 -113 q 397 -277 549 -277 q 172 -250 245 -277 l 200 -154 m 557 536 q 393 635 557 635 q 228 507 228 635 l 228 237 q 393 125 228 125 q 557 179 490 125 l 557 536 z "},"Ȁ":{"ha":968,"x_min":58,"x_max":910,"o":"m 342 1106 l 141 1428 l 290 1428 l 425 1106 l 342 1106 m 560 1106 l 412 1428 l 555 1428 l 627 1106 l 560 1106 m 58 0 l 424 981 l 544 981 l 910 0 l 771 0 l 705 191 l 267 191 l 200 0 l 58 0 m 300 288 l 673 288 l 488 825 l 300 288 z "},"ȁ":{"ha":795,"x_min":68,"x_max":732,"o":"m 269 843 l 68 1165 l 216 1165 l 352 843 l 269 843 m 487 843 l 338 1165 l 481 1165 l 553 843 l 487 843 m 319 -15 q 150 44 210 -15 q 90 192 90 104 q 111 275 90 242 q 366 405 153 343 q 507 463 488 439 q 528 502 526 488 q 530 546 530 515 q 505 606 530 576 q 397 635 480 635 q 254 590 281 635 q 241 528 241 567 l 241 496 l 118 496 l 118 528 q 188 683 118 633 q 398 732 258 732 q 597 669 538 732 q 657 488 657 606 l 657 182 q 671 109 657 125 q 732 92 686 92 l 718 -5 l 692 -5 q 591 21 624 -5 q 540 102 557 47 q 404 -4 484 18 q 319 -15 366 -15 m 384 318 q 335 304 384 318 q 250 262 287 290 q 213 183 213 234 q 247 107 213 133 q 330 81 281 81 q 418 94 378 81 q 489 131 457 106 q 530 188 520 156 l 530 395 q 384 318 480 346 z "},"Ȃ":{"ha":968,"x_min":58,"x_max":910,"o":"m 331 1106 q 373 1208 331 1166 q 484 1250 416 1250 q 595 1208 553 1250 q 637 1106 637 1166 l 566 1106 q 543 1162 566 1140 q 483 1185 519 1185 q 425 1163 447 1185 q 402 1106 402 1141 l 331 1106 m 58 0 l 424 981 l 544 981 l 910 0 l 771 0 l 705 191 l 267 191 l 200 0 l 58 0 m 300 288 l 673 288 l 488 825 l 300 288 z "},"ȃ":{"ha":795,"x_min":90,"x_max":732,"o":"m 258 843 q 300 945 258 903 q 411 987 342 987 q 522 945 479 987 q 564 843 564 903 l 493 843 q 470 899 493 877 q 410 922 446 922 q 351 900 374 922 q 329 843 329 878 l 258 843 m 319 -15 q 150 44 210 -15 q 90 192 90 104 q 111 275 90 242 q 366 405 153 343 q 507 463 488 439 q 528 502 526 488 q 530 546 530 515 q 505 606 530 576 q 397 635 480 635 q 254 590 281 635 q 241 528 241 567 l 241 496 l 118 496 l 118 528 q 188 683 118 633 q 398 732 258 732 q 597 669 538 732 q 657 488 657 606 l 657 182 q 671 109 657 125 q 732 92 686 92 l 718 -5 l 692 -5 q 591 21 624 -5 q 540 102 557 47 q 404 -4 484 18 q 319 -15 366 -15 m 384 318 q 335 304 384 318 q 250 262 287 290 q 213 183 213 234 q 247 107 213 133 q 330 81 281 81 q 418 94 378 81 q 489 131 457 106 q 530 188 520 156 l 530 395 q 384 318 480 346 z "},"Ȅ":{"ha":851,"x_min":115,"x_max":768,"o":"m 316 1106 l 115 1428 l 264 1428 l 399 1106 l 316 1106 m 534 1106 l 386 1428 l 529 1428 l 601 1106 l 534 1106 m 148 0 l 148 981 l 760 981 l 760 879 l 284 879 l 284 556 l 705 556 l 705 454 l 284 454 l 284 102 l 768 102 l 768 0 l 148 0 z "},"ȅ":{"ha":785,"x_min":48,"x_max":682,"o":"m 249 843 l 48 1165 l 197 1165 l 332 843 l 249 843 m 467 843 l 319 1165 l 462 1165 l 534 843 l 467 843 m 399 -15 q 171 51 241 -15 q 100 254 100 117 l 100 504 q 173 671 100 610 q 392 732 245 732 q 611 676 539 732 q 682 514 682 619 l 682 343 l 228 343 l 228 242 q 264 118 228 153 q 393 83 300 83 q 499 87 487 83 q 524 96 511 91 q 542 109 537 102 q 556 132 547 117 q 568 191 564 147 l 681 191 q 658 87 674 127 q 608 25 642 48 q 526 -7 574 1 q 399 -15 478 -15 m 228 429 l 559 429 l 559 528 q 517 612 559 589 q 395 635 475 635 q 271 607 314 635 q 228 515 228 579 l 228 429 z "},"Ȇ":{"ha":851,"x_min":148,"x_max":768,"o":"m 305 1106 q 348 1208 305 1166 q 458 1250 390 1250 q 569 1208 527 1250 q 612 1106 612 1166 l 541 1106 q 517 1162 541 1140 q 457 1185 494 1185 q 399 1163 421 1185 q 376 1106 376 1141 l 305 1106 m 148 0 l 148 981 l 760 981 l 760 879 l 284 879 l 284 556 l 705 556 l 705 454 l 284 454 l 284 102 l 768 102 l 768 0 l 148 0 z "},"ȇ":{"ha":785,"x_min":100,"x_max":682,"o":"m 238 843 q 280 945 238 903 q 391 987 323 987 q 502 945 460 987 q 545 843 545 903 l 473 843 q 450 899 473 877 q 390 922 427 922 q 332 900 354 922 q 309 843 309 878 l 238 843 m 399 -15 q 171 51 241 -15 q 100 254 100 117 l 100 504 q 173 671 100 610 q 392 732 245 732 q 611 676 539 732 q 682 514 682 619 l 682 343 l 228 343 l 228 242 q 264 118 228 153 q 393 83 300 83 q 499 87 487 83 q 524 96 511 91 q 542 109 537 102 q 556 132 547 117 q 568 191 564 147 l 681 191 q 658 87 674 127 q 608 25 642 48 q 526 -7 574 1 q 399 -15 478 -15 m 228 429 l 559 429 l 559 528 q 517 612 559 589 q 395 635 475 635 q 271 607 314 635 q 228 515 228 579 l 228 429 z "},"Ȉ":{"ha":768,"x_min":41,"x_max":639,"o":"m 241 1106 l 41 1428 l 189 1428 l 325 1106 l 241 1106 m 460 1106 l 311 1428 l 454 1428 l 526 1106 l 460 1106 m 129 0 l 129 102 l 316 102 l 316 880 l 129 880 l 129 981 l 639 981 l 639 880 l 452 880 l 452 102 l 639 102 l 639 0 l 129 0 z "},"ȉ":{"ha":404,"x_min":-140,"x_max":346,"o":"m 61 843 l -140 1165 l 9 1165 l 144 843 l 61 843 m 279 843 l 131 1165 l 274 1165 l 346 843 l 279 843 m 140 0 l 140 719 l 267 719 l 267 0 l 140 0 z "},"Ȋ":{"ha":768,"x_min":129,"x_max":639,"o":"m 231 1106 q 273 1208 231 1166 q 384 1250 315 1250 q 495 1208 452 1250 q 537 1106 537 1166 l 466 1106 q 443 1162 466 1140 q 383 1185 419 1185 q 324 1163 347 1185 q 302 1106 302 1141 l 231 1106 m 129 0 l 129 102 l 316 102 l 316 880 l 129 880 l 129 981 l 639 981 l 639 880 l 452 880 l 452 102 l 639 102 l 639 0 l 129 0 z "},"ȋ":{"ha":404,"x_min":50,"x_max":357,"o":"m 50 843 q 93 945 50 903 q 203 987 135 987 q 314 945 272 987 q 357 843 357 903 l 286 843 q 262 899 286 877 q 202 922 239 922 q 144 900 166 922 q 121 843 121 878 l 50 843 m 140 0 l 140 719 l 267 719 l 267 0 l 140 0 z "},"Ȍ":{"ha":1048,"x_min":126,"x_max":922,"o":"m 382 1106 l 181 1428 l 330 1428 l 465 1106 l 382 1106 m 600 1106 l 452 1428 l 595 1428 l 667 1106 l 600 1106 m 530 95 q 597 95 530 95 q 725 138 664 95 q 786 309 786 181 l 786 663 q 725 838 786 791 q 530 886 663 886 q 280 772 324 886 q 263 663 263 728 l 263 309 q 330 138 263 182 q 530 95 396 95 m 279 30 q 234 52 279 30 q 158 150 190 75 q 126 330 126 225 l 126 638 q 245 930 126 849 q 530 996 342 996 q 912 747 864 996 q 922 629 922 695 l 922 339 q 805 52 922 134 q 539 -15 711 -15 q 279 30 368 -15 z "},"ȍ":{"ha":796,"x_min":55,"x_max":696,"o":"m 256 843 l 55 1165 l 203 1165 l 339 843 l 256 843 m 474 843 l 326 1165 l 469 1165 l 541 843 l 474 843 m 228 203 q 398 83 228 83 q 568 203 568 83 l 568 514 q 398 635 568 635 q 228 514 228 635 l 228 203 m 696 214 q 624 46 696 108 q 397 -15 551 -15 q 172 46 243 -15 q 100 214 100 107 l 100 503 q 172 671 100 610 q 397 732 243 732 q 624 671 551 732 q 696 503 696 609 l 696 214 z "},"Ȏ":{"ha":1048,"x_min":126,"x_max":922,"o":"m 371 1106 q 413 1208 371 1166 q 524 1250 456 1250 q 635 1208 593 1250 q 677 1106 677 1166 l 606 1106 q 583 1162 606 1140 q 523 1185 559 1185 q 465 1163 487 1185 q 442 1106 442 1141 l 371 1106 m 530 95 q 597 95 530 95 q 725 138 664 95 q 786 309 786 181 l 786 663 q 725 838 786 791 q 530 886 663 886 q 280 772 324 886 q 263 663 263 728 l 263 309 q 330 138 263 182 q 530 95 396 95 m 279 30 q 234 52 279 30 q 158 150 190 75 q 126 330 126 225 l 126 638 q 245 930 126 849 q 530 996 342 996 q 912 747 864 996 q 922 629 922 695 l 922 339 q 805 52 922 134 q 539 -15 711 -15 q 279 30 368 -15 z "},"ȏ":{"ha":796,"x_min":100,"x_max":696,"o":"m 245 843 q 287 945 245 903 q 398 987 330 987 q 509 945 467 987 q 551 843 551 903 l 480 843 q 457 899 480 877 q 397 922 433 922 q 338 900 361 922 q 316 843 316 878 l 245 843 m 228 203 q 398 83 228 83 q 568 203 568 83 l 568 514 q 398 635 568 635 q 228 514 228 635 l 228 203 m 696 214 q 624 46 696 108 q 397 -15 551 -15 q 172 46 243 -15 q 100 214 100 107 l 100 503 q 172 671 100 610 q 397 732 243 732 q 624 671 551 732 q 696 503 696 609 l 696 214 z "},"Ȑ":{"ha":993,"x_min":148,"x_max":929,"o":"m 396 1106 l 195 1428 l 344 1428 l 479 1106 l 396 1106 m 614 1106 l 466 1428 l 609 1428 l 681 1106 l 614 1106 m 148 0 l 148 981 l 585 981 q 840 827 788 981 q 859 692 859 770 q 841 561 859 614 q 794 478 823 507 q 721 431 765 450 l 929 0 l 789 0 l 594 407 l 285 406 l 285 0 l 148 0 m 285 510 l 574 510 q 691 557 661 510 q 722 689 722 604 q 642 869 722 842 q 589 877 618 878 l 285 877 l 285 510 z "},"ȑ":{"ha":538,"x_min":-28,"x_max":503,"o":"m 172 843 l -28 1165 l 120 1165 l 256 843 l 172 843 m 391 843 l 242 1165 l 385 1165 l 457 843 l 391 843 m 126 0 l 126 719 l 254 719 l 254 617 q 386 713 278 684 q 503 729 442 730 l 499 620 q 330 583 407 620 q 254 503 254 547 l 254 0 l 126 0 z "},"Ȓ":{"ha":993,"x_min":148,"x_max":929,"o":"m 385 1106 q 428 1208 385 1166 q 538 1250 470 1250 q 649 1208 607 1250 q 692 1106 692 1166 l 621 1106 q 597 1162 621 1140 q 537 1185 574 1185 q 479 1163 501 1185 q 456 1106 456 1141 l 385 1106 m 148 0 l 148 981 l 585 981 q 840 827 788 981 q 859 692 859 770 q 841 561 859 614 q 794 478 823 507 q 721 431 765 450 l 929 0 l 789 0 l 594 407 l 285 406 l 285 0 l 148 0 m 285 510 l 574 510 q 691 557 661 510 q 722 689 722 604 q 642 869 722 842 q 589 877 618 878 l 285 877 l 285 510 z "},"ȓ":{"ha":538,"x_min":126,"x_max":503,"o":"m 161 843 q 204 945 161 903 q 315 987 246 987 q 426 945 383 987 q 468 843 468 903 l 397 843 q 373 899 397 877 q 314 922 350 922 q 255 900 277 922 q 233 843 233 878 l 161 843 m 126 0 l 126 719 l 254 719 l 254 617 q 386 713 278 684 q 503 729 442 730 l 499 620 q 330 583 407 620 q 254 503 254 547 l 254 0 l 126 0 z "},"Ȕ":{"ha":1043,"x_min":136,"x_max":907,"o":"m 379 1106 l 178 1428 l 327 1428 l 463 1106 l 379 1106 m 597 1106 l 449 1428 l 592 1428 l 664 1106 l 597 1106 m 526 -15 q 182 123 264 -15 q 136 321 136 201 l 136 981 l 273 981 l 273 307 q 449 99 273 122 q 534 95 484 95 q 705 136 639 95 q 770 307 770 176 l 770 981 l 907 981 l 907 321 q 795 50 907 130 q 526 -15 703 -15 z "},"ȕ":{"ha":830,"x_min":68,"x_max":704,"o":"m 269 843 l 68 1165 l 217 1165 l 353 843 l 269 843 m 488 843 l 339 1165 l 482 1165 l 554 843 l 488 843 m 367 -15 q 134 115 183 -15 q 119 197 119 153 l 119 719 l 247 719 l 247 196 q 286 113 247 143 q 402 83 325 83 q 528 121 479 83 q 576 210 576 159 l 576 719 l 704 719 l 704 0 l 590 0 l 576 90 q 367 -15 517 -15 z "},"Ȗ":{"ha":1043,"x_min":136,"x_max":907,"o":"m 368 1106 q 411 1208 368 1166 q 522 1250 453 1250 q 632 1208 590 1250 q 675 1106 675 1166 l 604 1106 q 580 1162 604 1140 q 520 1185 557 1185 q 462 1163 484 1185 q 439 1106 439 1141 l 368 1106 m 526 -15 q 182 123 264 -15 q 136 321 136 201 l 136 981 l 273 981 l 273 307 q 449 99 273 122 q 534 95 484 95 q 705 136 639 95 q 770 307 770 176 l 770 981 l 907 981 l 907 321 q 795 50 907 130 q 526 -15 703 -15 z "},"ȗ":{"ha":830,"x_min":119,"x_max":704,"o":"m 258 843 q 301 945 258 903 q 412 987 343 987 q 523 945 480 987 q 565 843 565 903 l 494 843 q 470 899 494 877 q 411 922 447 922 q 352 900 374 922 q 330 843 330 878 l 258 843 m 367 -15 q 134 115 183 -15 q 119 197 119 153 l 119 719 l 247 719 l 247 196 q 286 113 247 143 q 402 83 325 83 q 528 121 479 83 q 576 210 576 159 l 576 719 l 704 719 l 704 0 l 590 0 l 576 90 q 367 -15 517 -15 z "},"Ș":{"ha":884,"x_min":98,"x_max":789,"o":"m 414 -513 l 359 -483 q 444 -346 426 -403 q 452 -283 453 -315 l 357 -283 l 357 -125 l 531 -125 l 531 -250 q 450 -473 531 -367 q 414 -513 432 -496 m 789 275 q 469 -15 789 -15 q 98 77 256 -15 l 146 181 q 294 120 207 145 q 464 95 381 95 q 588 116 546 95 q 663 271 663 154 q 659 335 663 319 q 544 420 643 389 l 307 499 q 154 594 193 536 q 116 741 116 651 q 210 937 117 869 q 445 996 291 995 q 774 927 664 996 l 741 821 q 469 886 620 886 q 309 859 363 886 q 250 771 254 831 q 248 737 248 752 q 269 662 248 688 q 349 615 290 635 l 596 532 q 744 441 698 497 q 789 275 789 385 z "},"ș":{"ha":673,"x_min":96,"x_max":594,"o":"m 315 -513 l 260 -483 q 345 -346 327 -403 q 353 -283 354 -315 l 258 -283 l 258 -125 l 432 -125 l 432 -250 q 351 -473 432 -367 q 315 -513 333 -496 m 341 83 q 486 191 486 83 q 473 260 486 237 q 412 300 460 283 l 241 363 q 132 430 163 391 q 101 526 101 468 q 113 618 101 583 q 151 680 124 653 q 340 732 203 732 q 576 693 477 732 l 547 595 q 456 622 513 610 q 358 635 400 635 q 235 604 261 635 q 220 546 220 584 q 232 492 220 508 q 281 463 245 476 l 450 397 q 566 320 538 362 q 594 189 594 279 q 536 42 594 100 q 358 -15 479 -15 q 201 4 270 -15 q 96 43 133 23 l 127 137 q 341 83 224 83 z "},"Ț":{"ha":817,"x_min":57,"x_max":760,"o":"m 379 -498 l 324 -468 q 408 -331 391 -388 q 417 -269 418 -300 l 321 -269 l 321 -111 l 496 -111 l 496 -235 q 414 -458 496 -352 q 379 -498 397 -481 m 340 0 l 340 869 l 57 869 l 57 981 l 760 981 l 760 869 l 476 869 l 476 0 l 340 0 z "},"ț":{"ha":570,"x_min":54,"x_max":491,"o":"m 243 -503 l 189 -473 q 273 -336 255 -393 q 281 -274 282 -305 l 186 -274 l 186 -116 l 360 -116 l 360 -240 q 279 -464 360 -357 q 243 -503 261 -487 m 458 -5 q 241 42 308 -5 q 174 205 174 90 l 174 623 l 54 623 l 54 719 l 179 719 l 195 941 l 302 941 l 302 719 l 482 719 l 482 623 l 302 623 l 302 214 q 341 124 302 146 q 477 102 380 102 l 491 102 l 477 -5 l 458 -5 z "},"ȷ":{"ha":408,"x_min":9,"x_max":285,"o":"m 22 -239 l 9 -134 l 28 -134 q 121 -116 98 -134 q 151 -72 144 -98 q 157 -3 157 -45 l 157 719 l 285 719 l 285 5 q 203 -214 285 -172 q 66 -239 155 -239 l 22 -239 z "},"ˆ":{"ha":347,"x_min":-20,"x_max":368,"o":"m -20 841 l 126 1021 l 228 1021 l 368 841 l 262 841 l 178 959 l 88 841 l -20 841 z "},"ˇ":{"ha":347,"x_min":-20,"x_max":368,"o":"m 119 841 l -20 1021 l 85 1021 l 169 903 l 258 1021 l 368 1021 l 220 841 l 119 841 z "},"ˉ":{"ha":348,"x_min":38,"x_max":310,"o":"m 38 918 l 38 1021 l 310 1021 l 310 918 l 38 918 z "},"˘":{"ha":347,"x_min":20,"x_max":327,"o":"m 284 919 q 263 898 284 919 q 174 878 242 878 q 63 919 105 878 q 20 1021 20 961 l 92 1021 q 115 965 92 987 q 175 943 138 943 q 233 964 211 943 q 256 1021 256 986 l 327 1021 q 284 919 327 961 z "},"˙":{"ha":347,"x_min":92,"x_max":255,"o":"m 92 865 l 92 1021 l 255 1021 l 255 865 l 92 865 z "},"˚":{"ha":347,"x_min":42,"x_max":305,"o":"m 100 901 q 174 824 100 824 q 248 901 248 824 q 174 977 248 977 q 120 960 141 977 q 100 901 100 942 m 267 811 q 248 795 267 811 q 174 780 229 780 q 80 811 118 780 q 42 901 42 842 q 80 990 42 960 q 174 1021 118 1021 q 267 990 229 1021 q 305 901 305 960 q 267 811 305 842 z "},"˛":{"ha":348,"x_min":75,"x_max":273,"o":"m 273 -330 q 129 -294 182 -330 q 75 -197 75 -258 q 198 0 75 -104 l 240 0 q 182 -82 205 -33 q 159 -173 159 -130 q 273 -264 159 -264 l 273 -330 z "},"˜":{"ha":347,"x_min":-28,"x_max":374,"o":"m 309 866 q 258 929 309 929 q 197 893 234 929 q 97 857 159 857 q 4 893 35 857 q -28 1012 -28 930 l 38 1012 q 88 949 38 949 q 150 985 113 949 q 249 1021 187 1021 q 343 985 311 1021 q 374 866 374 948 l 309 866 z "},"˝":{"ha":694,"x_min":104,"x_max":590,"o":"m 104 699 l 176 1021 l 319 1021 l 171 699 l 104 699 m 306 699 l 441 1021 l 590 1021 l 389 699 l 306 699 z "},"̇":{"ha":279,"x_min":73,"x_max":212,"o":"m 73 866 l 73 1006 l 212 1006 l 212 866 l 73 866 z "},"̏":{"ha":694,"x_min":104,"x_max":590,"o":"m 305 699 l 104 1021 l 253 1021 l 389 699 l 305 699 m 524 699 l 375 1021 l 518 1021 l 590 699 l 524 699 z "},"̑":{"ha":347,"x_min":20,"x_max":327,"o":"m 20 878 q 63 980 20 938 q 174 1021 105 1021 q 284 980 242 1021 q 327 878 327 938 l 256 878 q 232 934 256 911 q 173 956 209 956 q 114 935 136 956 q 92 878 92 913 l 20 878 z "},"̦":{"ha":522,"x_min":174,"x_max":348,"o":"m 231 -450 l 176 -420 q 260 -283 243 -340 q 269 -221 270 -252 l 174 -221 l 174 -63 l 348 -63 l 348 -187 q 267 -411 348 -304 q 231 -450 249 -434 z "},"Δ":{"ha":968,"x_min":130,"x_max":839,"o":"m 286 97 l 687 97 l 488 811 l 286 97 m 839 0 l 130 0 l 424 981 l 544 981 l 839 0 z "},"Ḃ":{"ha":963,"x_min":148,"x_max":876,"o":"m 408 1106 l 408 1246 l 547 1246 l 547 1106 l 408 1106 m 148 0 l 148 981 l 503 981 q 792 880 731 981 q 829 711 829 819 q 705 524 825 566 q 833 440 789 505 q 876 279 876 375 q 794 66 876 133 q 533 0 712 0 l 148 0 m 285 101 l 523 101 q 690 138 638 101 q 742 294 742 176 q 556 472 742 472 l 285 472 l 285 101 m 285 565 l 536 565 q 658 602 624 565 q 692 701 692 638 q 683 796 692 764 q 649 847 674 828 q 586 872 623 866 q 482 878 548 878 l 285 878 l 285 565 z "},"ḃ":{"ha":817,"x_min":126,"x_max":716,"o":"m 351 1132 l 351 1272 l 490 1272 l 490 1132 l 351 1132 m 254 685 q 456 732 338 732 q 646 669 575 732 q 716 499 716 606 l 716 239 q 639 56 716 127 q 425 -15 562 -15 q 237 48 338 -15 l 220 0 l 126 0 l 126 1021 l 254 1021 l 254 685 m 589 509 q 429 635 589 635 q 254 590 351 635 l 254 127 q 406 85 328 85 q 536 123 484 85 q 589 225 589 161 l 589 509 z "},"Ḋ":{"ha":1032,"x_min":148,"x_max":909,"o":"m 458 1106 l 458 1246 l 597 1246 l 597 1106 l 458 1106 m 285 102 l 525 102 q 723 157 673 102 q 772 313 772 212 l 772 659 q 672 853 772 808 q 525 878 615 879 l 285 878 l 285 102 m 148 0 l 148 981 l 537 981 q 888 781 819 981 q 909 650 909 723 l 909 327 q 816 83 909 166 q 538 0 724 0 l 148 0 z "},"ḋ":{"ha":814,"x_min":100,"x_max":688,"o":"m 324 1132 l 324 1272 l 463 1272 l 463 1132 l 324 1132 m 401 732 q 560 705 488 732 l 560 1021 l 688 1021 l 688 0 l 601 0 l 580 47 q 492 3 547 22 q 385 -15 438 -15 q 169 51 238 -15 q 100 227 100 116 l 100 498 q 174 671 100 610 q 401 732 248 732 m 228 218 q 274 119 228 153 q 381 85 319 85 q 560 128 491 85 l 560 605 q 410 635 498 635 q 228 513 228 635 l 228 218 z "},"Ḟ":{"ha":786,"x_min":148,"x_max":705,"o":"m 357 1106 l 357 1246 l 496 1246 l 496 1106 l 357 1106 m 148 0 l 148 981 l 705 981 l 705 879 l 284 879 l 284 552 l 680 552 l 680 450 l 284 450 l 284 0 l 148 0 z "},"ḟ":{"ha":536,"x_min":75,"x_max":505,"o":"m 254 1132 l 254 1272 l 393 1272 l 393 1132 l 254 1132 m 195 0 l 195 623 l 75 623 l 75 719 l 195 719 l 195 828 q 249 974 195 928 q 416 1021 304 1021 l 496 1021 l 505 930 l 426 930 q 322 840 322 930 l 322 719 l 496 719 l 496 623 l 322 623 l 322 0 l 195 0 z "},"Ṁ":{"ha":1206,"x_min":148,"x_max":1058,"o":"m 533 1106 l 533 1246 l 672 1246 l 672 1106 l 533 1106 m 148 0 l 148 981 l 273 981 l 604 433 l 937 981 l 1058 981 l 1058 0 l 929 0 l 929 760 l 654 311 l 553 311 l 278 758 l 278 0 l 148 0 z "},"ṁ":{"ha":1261,"x_min":126,"x_max":1142,"o":"m 564 843 l 564 983 l 703 983 l 703 843 l 564 843 m 572 530 q 417 635 572 635 q 296 601 338 635 q 254 512 254 568 l 254 0 l 126 0 l 126 719 l 254 719 l 254 649 q 470 732 326 732 q 671 638 614 732 l 688 654 q 906 732 766 732 q 1130 604 1087 732 q 1142 522 1142 567 l 1142 0 l 1015 0 l 1015 530 q 873 635 1015 635 q 742 601 785 635 q 700 512 700 568 l 700 0 l 572 0 l 572 530 z "},"Ṗ":{"ha":899,"x_min":148,"x_max":812,"o":"m 411 1106 l 411 1246 l 550 1246 l 550 1106 l 411 1106 m 148 0 l 148 981 l 540 981 q 812 672 812 981 q 742 431 812 504 q 538 359 671 359 l 285 359 l 285 0 l 148 0 m 285 463 l 541 463 q 673 602 661 463 q 675 663 675 628 q 643 829 675 782 q 544 877 611 877 l 285 877 l 285 463 z "},"ṗ":{"ha":812,"x_min":126,"x_max":712,"o":"m 350 843 l 350 983 l 489 983 l 489 843 l 350 843 m 126 -277 l 126 719 l 227 719 l 241 665 q 327 712 273 692 q 439 732 381 732 q 643 667 573 732 q 712 494 712 602 l 712 233 q 636 54 712 122 q 423 -15 560 -15 q 254 23 328 -15 l 254 -277 l 126 -277 m 254 121 q 407 83 322 83 q 538 119 492 83 q 585 220 585 155 l 585 505 q 539 601 585 567 q 427 635 493 635 q 314 608 361 635 q 254 559 268 581 l 254 121 z "},"Ṡ":{"ha":884,"x_min":98,"x_max":789,"o":"m 374 1106 l 374 1246 l 513 1246 l 513 1106 l 374 1106 m 789 275 q 469 -15 789 -15 q 98 77 256 -15 l 146 181 q 294 120 207 145 q 464 95 381 95 q 588 116 546 95 q 663 271 663 154 q 659 335 663 319 q 544 420 643 389 l 307 499 q 154 594 193 536 q 116 741 116 651 q 210 937 117 869 q 445 996 291 995 q 774 927 664 996 l 741 821 q 469 886 620 886 q 309 859 363 886 q 250 771 254 831 q 248 737 248 752 q 269 662 248 688 q 349 615 290 635 l 596 532 q 744 441 698 497 q 789 275 789 385 z "},"ṡ":{"ha":673,"x_min":96,"x_max":594,"o":"m 275 843 l 275 983 l 414 983 l 414 843 l 275 843 m 341 83 q 486 191 486 83 q 473 260 486 237 q 412 300 460 283 l 241 363 q 132 430 163 391 q 101 526 101 468 q 113 618 101 583 q 151 680 124 653 q 340 732 203 732 q 576 693 477 732 l 547 595 q 456 622 513 610 q 358 635 400 635 q 235 604 261 635 q 220 546 220 584 q 232 492 220 508 q 281 463 245 476 l 450 397 q 566 320 538 362 q 594 189 594 279 q 536 42 594 100 q 358 -15 479 -15 q 201 4 270 -15 q 96 43 133 23 l 127 137 q 341 83 224 83 z "},"Ṫ":{"ha":817,"x_min":57,"x_max":760,"o":"m 339 1106 l 339 1246 l 478 1246 l 478 1106 l 339 1106 m 340 0 l 340 869 l 57 869 l 57 981 l 760 981 l 760 869 l 476 869 l 476 0 l 340 0 z "},"ṫ":{"ha":570,"x_min":54,"x_max":491,"o":"m 203 1052 l 203 1192 l 342 1192 l 342 1052 l 203 1052 m 458 -5 q 241 42 308 -5 q 174 205 174 90 l 174 623 l 54 623 l 54 719 l 179 719 l 195 941 l 302 941 l 302 719 l 482 719 l 482 623 l 302 623 l 302 214 q 341 124 302 146 q 477 102 380 102 l 491 102 l 477 -5 l 458 -5 z "},"Ẁ":{"ha":1389,"x_min":76,"x_max":1313,"o":"m 659 1106 l 484 1337 l 637 1337 l 730 1106 l 659 1106 m 354 0 l 76 981 l 201 981 l 409 235 l 623 981 l 768 981 l 991 235 l 1189 981 l 1313 981 l 1046 0 l 943 0 l 703 836 l 457 0 l 354 0 z "},"ẁ":{"ha":1095,"x_min":35,"x_max":1059,"o":"m 511 843 l 337 1074 l 490 1074 l 583 843 l 511 843 m 242 0 l 35 719 l 152 719 l 311 155 l 484 719 l 607 719 l 787 155 l 941 719 l 1059 719 l 849 0 l 730 0 l 547 573 l 363 0 l 242 0 z "},"Ẃ":{"ha":1389,"x_min":76,"x_max":1313,"o":"m 659 1106 l 740 1337 l 892 1337 l 730 1106 l 659 1106 m 354 0 l 76 981 l 201 981 l 409 235 l 623 981 l 768 981 l 991 235 l 1189 981 l 1313 981 l 1046 0 l 943 0 l 703 836 l 457 0 l 354 0 z "},"ẃ":{"ha":1095,"x_min":35,"x_max":1059,"o":"m 511 843 l 593 1074 l 745 1074 l 583 843 l 511 843 m 242 0 l 35 719 l 152 719 l 311 155 l 484 719 l 607 719 l 787 155 l 941 719 l 1059 719 l 849 0 l 730 0 l 547 573 l 363 0 l 242 0 z "},"Ẅ":{"ha":1389,"x_min":76,"x_max":1313,"o":"m 454 1106 l 454 1229 l 594 1229 l 594 1106 l 454 1106 m 795 1106 l 795 1229 l 935 1229 l 935 1106 l 795 1106 m 354 0 l 76 981 l 201 981 l 409 235 l 623 981 l 768 981 l 991 235 l 1189 981 l 1313 981 l 1046 0 l 943 0 l 703 836 l 457 0 l 354 0 z "},"ẅ":{"ha":1095,"x_min":35,"x_max":1059,"o":"m 307 843 l 307 966 l 446 966 l 446 843 l 307 843 m 648 843 l 648 966 l 787 966 l 787 843 l 648 843 m 242 0 l 35 719 l 152 719 l 311 155 l 484 719 l 607 719 l 787 155 l 941 719 l 1059 719 l 849 0 l 730 0 l 547 573 l 363 0 l 242 0 z "},"Ỳ":{"ha":894,"x_min":33,"x_max":861,"o":"m 411 1106 l 237 1337 l 389 1337 l 483 1106 l 411 1106 m 380 0 l 380 385 l 33 981 l 177 981 l 448 505 l 721 981 l 861 981 l 516 385 l 516 0 l 380 0 z "},"ỳ":{"ha":758,"x_min":52,"x_max":719,"o":"m 349 843 l 175 1074 l 328 1074 l 421 843 l 349 843 m 134 -275 l 134 -176 q 270 -134 218 -176 q 348 3 322 -93 l 52 719 l 186 719 l 406 146 l 590 719 l 719 719 l 483 31 q 398 -158 436 -106 q 326 -232 361 -211 q 134 -275 255 -275 z "},"–":{"ha":366,"x_min":1,"x_max":363,"o":"m 1 411 l 1 496 l 363 496 l 363 411 l 1 411 z "},"—":{"ha":747,"x_min":1,"x_max":745,"o":"m 1 273 l 1 372 l 745 372 l 745 273 l 1 273 z "},"‘":{"ha":522,"x_min":174,"x_max":348,"o":"m 290 996 l 345 966 q 261 829 279 886 q 252 766 252 798 l 348 766 l 348 608 l 174 608 l 174 732 q 255 956 174 850 q 290 996 273 979 z "},"’":{"ha":522,"x_min":174,"x_max":348,"o":"m 231 608 l 176 638 q 260 775 243 718 q 269 838 270 806 l 174 838 l 174 996 l 348 996 l 348 871 q 267 648 348 754 q 231 608 249 625 z "},"‚":{"ha":522,"x_min":174,"x_max":348,"o":"m 231 -229 l 176 -199 q 260 -62 243 -119 q 269 0 270 -31 l 174 0 l 174 158 l 348 158 l 348 34 q 267 -190 348 -83 q 231 -229 249 -213 z "},"“":{"ha":801,"x_min":174,"x_max":627,"o":"m 290 996 l 345 966 q 261 829 279 886 q 252 766 252 798 l 348 766 l 348 608 l 174 608 l 174 732 q 255 956 174 850 q 290 996 273 979 m 570 996 l 625 966 q 541 829 558 886 q 532 766 531 798 l 627 766 l 627 608 l 453 608 l 453 732 q 534 956 453 850 q 570 996 552 979 z "},"”":{"ha":801,"x_min":174,"x_max":627,"o":"m 231 608 l 176 638 q 260 775 243 718 q 269 838 270 806 l 174 838 l 174 996 l 348 996 l 348 871 q 267 648 348 754 q 231 608 249 625 m 511 608 l 456 638 q 540 775 522 718 q 549 838 549 806 l 453 838 l 453 996 l 627 996 l 627 871 q 546 648 627 754 q 511 608 528 625 z "},"„":{"ha":801,"x_min":174,"x_max":627,"o":"m 511 -229 l 456 -199 q 540 -62 522 -119 q 549 0 549 -31 l 453 0 l 453 158 l 627 158 l 627 34 q 546 -190 627 -83 q 511 -229 528 -213 m 231 -229 l 176 -199 q 260 -62 243 -119 q 269 0 270 -31 l 174 0 l 174 158 l 348 158 l 348 34 q 267 -190 348 -83 q 231 -229 249 -213 z "},"†":{"ha":604,"x_min":60,"x_max":544,"o":"m 236 0 l 236 631 l 60 631 l 60 719 l 236 719 l 236 981 l 363 981 l 363 719 l 544 719 l 544 631 l 363 631 l 363 0 l 236 0 z "},"‡":{"ha":636,"x_min":76,"x_max":560,"o":"m 252 0 l 252 277 l 76 277 l 76 365 l 252 365 l 252 631 l 76 631 l 76 719 l 252 719 l 252 981 l 380 981 l 380 719 l 560 719 l 560 631 l 380 631 l 380 365 l 560 365 l 560 277 l 380 277 l 380 0 l 252 0 z "},"•":{"ha":661,"x_min":122,"x_max":539,"o":"m 539 407 q 539 355 539 407 q 490 253 539 304 q 330 202 441 202 q 170 253 218 202 q 122 406 122 303 q 171 560 122 509 q 331 611 219 611 q 491 560 442 611 q 539 407 539 509 z "},"…":{"ha":1278,"x_min":126,"x_max":1152,"o":"m 978 0 l 978 164 l 1152 164 l 1152 0 l 978 0 m 552 0 l 552 164 l 726 164 l 726 0 l 552 0 m 126 0 l 126 164 l 300 164 l 300 0 l 126 0 z "},"‰":{"ha":1957,"x_min":142,"x_max":1826,"o":"m 344 525 q 439 592 420 525 q 450 692 450 629 l 450 755 q 424 884 450 855 q 357 912 398 912 q 296 905 315 913 q 249 853 258 890 q 239 756 239 816 l 239 692 q 265 557 239 590 q 344 525 291 525 m 549 703 q 502 512 549 578 q 344 446 455 446 q 188 512 233 446 q 142 703 142 578 l 142 739 q 187 928 142 865 q 345 991 232 991 q 503 926 458 991 q 549 740 547 862 l 549 703 m 1093 66 q 1188 133 1169 66 q 1199 233 1199 170 l 1199 296 q 1173 425 1199 396 q 1105 453 1147 453 q 1044 445 1064 453 q 997 393 1007 430 q 987 297 987 357 l 987 233 q 1014 98 987 131 q 1093 66 1040 66 m 1297 244 q 1251 53 1297 119 q 1093 -13 1204 -13 q 936 53 982 -13 q 890 244 890 119 l 890 280 q 936 469 890 406 q 1094 532 981 532 q 1252 467 1207 532 q 1297 281 1296 403 l 1297 244 m 1621 66 q 1717 133 1698 66 q 1727 233 1728 170 l 1727 296 q 1701 425 1727 396 q 1634 453 1675 453 q 1573 445 1592 453 q 1526 393 1535 430 q 1516 297 1516 357 l 1516 233 q 1542 98 1516 131 q 1621 66 1568 66 m 1826 244 q 1779 53 1826 119 q 1621 -13 1732 -13 q 1465 53 1510 -13 q 1419 244 1419 119 l 1419 280 q 1464 469 1419 406 q 1622 532 1509 532 q 1780 467 1735 532 q 1826 281 1824 403 l 1826 244 m 478 0 l 846 981 l 947 981 l 583 0 l 478 0 z "},"‹":{"ha":521,"x_min":118,"x_max":403,"o":"m 308 54 l 118 359 l 303 665 l 403 617 l 262 359 l 403 102 l 308 54 z "},"›":{"ha":521,"x_min":122,"x_max":407,"o":"m 222 54 l 122 102 l 262 359 l 122 617 l 217 665 l 407 359 l 222 54 z "},"⁄":{"ha":521,"x_min":11,"x_max":510,"o":"m 11 0 l 386 1021 l 510 1021 l 138 0 l 11 0 z "},"⁴":{"ha":859,"x_min":173,"x_max":642,"o":"m 467 416 l 467 557 l 173 557 l 173 619 l 416 1021 l 512 1021 l 276 618 l 467 618 l 467 778 l 544 778 l 544 618 l 642 618 l 642 557 l 544 557 l 544 416 l 467 416 z "},"€":{"ha":990,"x_min":1,"x_max":882,"o":"m 268 30 q 225 52 268 30 q 153 149 182 74 q 123 330 123 224 l 123 342 l 1 342 l 1 433 l 123 433 l 123 555 l 1 555 l 1 646 l 123 646 q 235 930 125 854 q 509 996 329 996 q 770 946 689 996 q 872 789 852 896 q 882 676 882 742 l 752 665 q 735 799 752 764 q 702 848 718 833 q 647 874 685 863 q 528 886 609 886 q 401 875 448 886 q 323 840 355 865 q 260 663 260 791 l 260 646 l 504 646 l 504 555 l 260 555 l 260 433 l 504 433 l 504 342 l 260 342 l 260 309 q 323 138 260 181 q 525 95 387 95 q 701 127 663 95 q 747 222 739 160 q 752 304 752 256 l 882 304 q 839 96 882 156 q 540 -15 760 -15 q 268 30 355 -15 z "},"™":{"ha":1250,"x_min":90,"x_max":1091,"o":"m 573 519 l 573 981 l 707 981 l 832 701 l 958 981 l 1091 981 l 1091 519 l 1005 519 l 1005 901 l 888 631 l 779 631 l 658 901 l 658 519 l 573 519 m 234 519 l 234 903 l 90 903 l 90 981 l 469 981 l 469 903 l 326 903 l 326 519 l 234 519 z "},"∆":{"ha":749,"x_min":56,"x_max":693,"o":"m 56 237 l 56 321 l 326 1021 l 441 1021 l 693 321 l 693 237 l 56 237 m 178 335 l 574 335 l 385 905 l 178 335 z "},"∏":{"ha":1215,"x_min":109,"x_max":1107,"o":"m 448 216 l 448 782 l 666 782 q 844 616 840 782 l 844 606 q 803 486 844 530 q 657 442 761 442 l 536 442 l 536 216 l 448 216 m 536 503 l 663 503 q 755 595 753 503 l 755 611 q 669 720 755 720 l 536 720 l 536 503 m 237 268 q 264 219 237 268 q 390 112 292 169 q 609 56 488 56 q 829 112 731 56 q 981 268 926 169 q 1035 489 1035 367 q 981 711 1035 612 q 829 866 926 810 q 609 923 731 923 q 390 866 488 923 q 237 711 292 810 q 182 490 182 612 q 237 268 182 368 m 963 133 q 930 100 963 133 q 805 29 897 67 q 591 -9 712 -9 q 355 56 469 -9 q 175 235 241 121 q 109 489 109 350 q 175 743 109 629 q 355 922 241 857 q 608 987 469 987 q 861 922 747 987 q 1041 743 976 857 q 1107 507 1107 629 q 1068 292 1107 385 q 963 133 1029 199 z "},"−":{"ha":618,"x_min":96,"x_max":522,"o":"m 96 298 l 96 413 l 522 413 l 522 298 l 96 298 z "},"∕":{"ha":521,"x_min":43,"x_max":477,"o":"m 353 1021 l 477 1021 l 170 0 l 43 0 l 353 1021 z "},"∙":{"ha":279,"x_min":73,"x_max":212,"o":"m 73 866 l 73 1006 l 212 1006 l 212 866 l 73 866 z "},"∞":{"ha":1119,"x_min":43,"x_max":1076,"o":"m 255 418 q 335 454 277 418 q 439 526 393 490 l 486 562 q 346 656 414 616 q 255 696 277 696 q 177 655 205 696 q 149 557 149 614 q 177 459 149 500 q 255 418 205 418 m 95 714 q 160 766 120 747 q 243 785 201 785 q 402 736 319 785 q 535 648 486 688 l 555 633 l 576 649 q 789 769 686 732 q 869 785 836 785 q 983 751 935 785 q 1053 666 1031 718 q 1076 556 1076 615 q 1053 447 1076 497 q 983 362 1031 396 q 869 329 935 329 q 631 439 784 329 q 575 481 595 464 l 555 499 q 329 347 435 391 q 250 329 284 329 q 136 363 184 329 q 43 557 43 428 q 95 714 43 647 m 855 696 q 775 662 833 696 q 670 594 717 628 l 623 560 q 759 464 685 511 q 855 418 833 418 q 933 459 905 418 q 961 557 961 500 q 933 655 961 614 q 855 696 905 696 z "},"∫":{"ha":604,"x_min":96,"x_max":481,"o":"m 170 -258 q 96 -253 134 -258 l 96 -169 q 145 -170 107 -170 q 226 -86 227 -170 l 226 786 q 267 947 226 899 q 411 996 307 996 q 481 991 443 996 l 481 907 q 450 908 473 908 q 373 878 393 908 q 353 801 353 848 l 353 -67 q 312 -212 353 -166 q 170 -258 270 -258 z "},"≈":{"ha":597,"x_min":43,"x_max":554,"o":"m 188 609 q 218 609 188 609 q 319 569 249 609 q 414 530 389 530 q 488 600 488 530 l 554 600 q 513 475 554 519 q 412 431 471 431 q 240 490 353 431 q 184 510 203 510 q 109 440 109 510 l 43 440 q 85 565 43 521 q 188 609 126 609 m 188 817 q 218 817 188 817 q 319 777 249 817 q 414 737 389 737 q 488 807 488 737 l 554 807 q 513 682 554 726 q 412 638 471 638 q 240 698 353 638 q 184 718 203 718 q 109 648 109 718 l 43 648 q 85 772 43 728 q 188 817 126 817 z "},"≠":{"ha":848,"x_min":152,"x_max":696,"o":"m 175 0 l 550 1021 l 674 1021 l 302 0 l 175 0 m 152 317 l 152 417 l 696 417 l 696 317 l 152 317 m 152 546 l 152 646 l 696 646 l 696 546 l 152 546 z "},"≤":{"ha":848,"x_min":96,"x_max":707,"o":"m 707 0 l 106 319 l 106 456 l 707 776 l 707 638 l 211 389 l 707 142 l 707 0 m 96 -171 l 96 -69 l 707 -69 l 707 -171 l 96 -171 z "},"≥":{"ha":848,"x_min":117,"x_max":742,"o":"m 141 0 l 141 138 l 637 387 l 141 634 l 141 776 l 742 456 l 742 320 l 141 0 m 117 -164 l 117 -62 l 728 -62 l 728 -164 l 117 -164 z "},"◊":{"ha":749,"x_min":79,"x_max":670,"o":"m 326 0 l 79 492 l 326 981 l 441 981 l 670 492 l 441 0 l 326 0 m 385 109 l 552 492 l 385 865 l 200 492 l 385 109 z "},"ﬀ":{"ha":1046,"x_min":75,"x_max":1015,"o":"m 705 0 l 705 623 l 322 623 l 322 0 l 195 0 l 195 623 l 75 623 l 75 719 l 195 719 l 195 828 q 249 974 195 928 q 416 1021 304 1021 l 496 1021 l 505 930 l 426 930 q 322 840 322 930 l 322 719 l 705 719 l 705 828 q 759 974 705 928 q 926 1021 814 1021 l 1006 1021 l 1015 930 l 936 930 q 832 840 832 930 l 832 719 l 1006 719 l 1006 623 l 832 623 l 832 0 l 705 0 z "},"ﬁ":{"ha":940,"x_min":75,"x_max":803,"o":"m 675 848 l 675 981 l 803 981 l 803 848 l 675 848 m 195 0 l 195 623 l 75 623 l 75 719 l 195 719 l 195 829 q 249 975 195 928 q 416 1021 304 1021 l 496 1021 l 505 930 l 426 930 q 322 841 322 930 l 322 719 l 803 719 l 803 0 l 675 0 l 675 623 l 322 623 l 322 0 l 195 0 z "},"ﬂ":{"ha":1008,"x_min":75,"x_max":947,"o":"m 895 -5 q 792 4 832 -5 q 722 40 752 14 q 665 243 665 90 l 665 930 l 426 930 q 322 840 322 930 l 322 719 l 496 719 l 496 623 l 322 623 l 322 0 l 195 0 l 195 623 l 75 623 l 75 719 l 195 719 l 195 828 q 249 974 195 928 q 416 1021 304 1021 l 792 1021 l 792 241 q 818 128 792 155 q 924 102 844 102 l 947 102 l 932 -5 l 895 -5 z "},"ﬃ":{"ha":1476,"x_min":75,"x_max":1339,"o":"m 1211 848 l 1211 981 l 1339 981 l 1339 848 l 1211 848 m 730 0 l 730 623 l 322 623 l 322 0 l 195 0 l 195 623 l 75 623 l 75 719 l 195 719 l 195 828 q 249 974 195 928 q 416 1021 304 1021 l 496 1021 l 505 930 l 426 930 q 322 840 322 930 l 322 719 l 730 719 l 730 828 q 785 974 730 928 q 951 1021 840 1021 l 1032 1021 l 1040 930 l 962 930 q 858 840 858 930 l 858 719 l 1339 719 l 1339 0 l 1211 0 l 1211 623 l 858 623 l 858 0 l 730 0 z "},"ﬄ":{"ha":1509,"x_min":75,"x_max":1448,"o":"m 1396 -5 q 1293 4 1333 -5 q 1223 40 1253 14 q 1166 243 1166 90 l 1166 930 l 927 930 q 823 840 823 930 l 823 719 l 998 719 l 998 623 l 823 623 l 823 0 l 696 0 l 696 623 l 322 623 l 322 0 l 195 0 l 195 623 l 75 623 l 75 719 l 195 719 l 195 828 q 249 974 195 928 q 416 1021 304 1021 l 496 1021 l 505 930 l 426 930 q 322 840 322 930 l 322 719 l 696 719 l 696 828 q 750 974 696 928 q 917 1021 805 1021 l 1293 1021 l 1293 241 q 1319 128 1293 155 q 1426 102 1345 102 l 1448 102 l 1433 -5 l 1396 -5 z "}}}
